{
.appVersion = "3086";
DisplayStrings = (
A
);
customParameters = (
{
name = panose;
value = (
0,
0,
0,
0,
0,
0,
0,
0,
0,
0
);
},
{
name = fsType;
value = (
);
},
{
name = "Disable Last Change";
value = 1;
},
{
name = "Use Typo Metrics";
value = 1;
},
{
name = "Use Line Breaks";
value = 1;
},
{
name = "Variable Font Origin";
value = m01;
},
{
name = "Enforce Compatibility Check";
value = 0;
},
{
name = Axes;
value = (
{
Name = Weight;
Tag = wght;
}
);
}
);
date = "2021-07-07 04:50:43 +0000";
familyName = "Mekorot Rashi";
fontMaster = (
{
alignmentZones = (
"{800, 16}",
"{700, 16}",
"{500, 16}",
"{0, -16}",
"{-200, -16}"
);
ascender = 800;
capHeight = 700;
descender = -200;
id = m01;
xHeight = 500;
},
{
alignmentZones = (
"{800, 16}",
"{700, 16}",
"{500, 16}",
"{0, -16}",
"{-200, -16}"
);
ascender = 800;
capHeight = 700;
descender = -200;
id = m002;
weight = Bold;
weightValue = 200;
xHeight = 500;
}
);
glyphs = (
{
color = 5;
glyphname = A;
layers = (
{
anchors = (
{
name = bottom;
position = "{376, 0}";
},
{
name = right;
position = "{614, 0}";
},
{
name = top;
position = "{376, 710}";
}
);
layerId = m01;
paths = (
{
closed = 1;
nodes = (
"249 0 LINE",
"249 16 LINE",
"152 55 LINE",
"156 28 LINE",
"386 599 LINE",
"335 599 LINE",
"566 28 LINE",
"578 58 LINE",
"469 16 LINE",
"469 0 LINE",
"717 0 LINE",
"717 16 LINE",
"610 73 LINE",
"660 28 LINE",
"398 665 LINE",
"353 665 LINE",
"88 28 LINE",
"119 61 LINE",
"33 16 LINE",
"33 0 LINE"
);
},
{
closed = 1;
nodes = (
"524 235 LINE",
"524 290 LINE",
"204 290 LINE",
"204 235 LINE"
);
}
);
width = 750;
},
{
anchors = (
{
name = bottom;
position = "{376, 0}";
},
{
name = right;
position = "{614, 0}";
},
{
name = top;
position = "{376, 710}";
}
);
layerId = m002;
paths = (
{
closed = 1;
nodes = (
"249 0 LINE",
"249 16 LINE",
"152 55 LINE",
"156 28 LINE",
"386 599 LINE",
"335 599 LINE",
"566 28 LINE",
"578 58 LINE",
"469 16 LINE",
"469 0 LINE",
"717 0 LINE",
"717 16 LINE",
"610 73 LINE",
"660 28 LINE",
"398 665 LINE",
"353 665 LINE",
"88 28 LINE",
"119 61 LINE",
"33 16 LINE",
"33 0 LINE"
);
},
{
closed = 1;
nodes = (
"524 235 LINE",
"524 290 LINE",
"204 290 LINE",
"204 235 LINE"
);
}
);
width = 750;
}
);
leftKerningGroup = kern_A3;
rightKerningGroup = kern_A3;
unicode = 0041;
},
{
color = 4;
glyphname = AE;
layers = (
{
anchors = (
{
name = top;
position = "{535, 710}";
}
);
layerId = m01;
paths = (
{
closed = 1;
nodes = (
"79 28 LINE",
"141 75 LINE",
"28 16 LINE",
"28 0 LINE",
"243 0 LINE",
"243 16 LINE",
"142 59 LINE",
"150 28 LINE",
"490 603 LINE",
"475 603 LINE",
"475 56 LINE",
"395 16 LINE",
"395 0 LINE",
"565 0 LINE",
"565 660 LINE",
"464 660 LINE"
);
},
{
closed = 1;
nodes = (
"508 235 LINE",
"508 290 LINE",
"258 290 LINE",
"258 235 LINE"
);
},
{
closed = 1;
nodes = (
"512 660 LINE",
"512 605 LINE",
"806 605 LINE",
"868 488 LINE",
"884 488 LINE",
"884 660 LINE"
);
},
{
closed = 1;
nodes = (
"735 313 LINE",
"785 232 LINE",
"801 232 LINE",
"801 451 LINE",
"785 451 LINE",
"735 368 LINE",
"520 368 LINE",
"520 313 LINE"
);
},
{
closed = 1;
nodes = (
"912 182 LINE",
"896 182 LINE",
"834 55 LINE",
"540 55 LINE",
"540 0 LINE",
"912 0 LINE"
);
}
);
width = 982;
},
{
anchors = (
{
name = top;
position = "{535, 710}";
}
);
layerId = m002;
paths = (
{
closed = 1;
nodes = (
"79 28 LINE",
"141 75 LINE",
"28 16 LINE",
"28 0 LINE",
"243 0 LINE",
"243 16 LINE",
"142 59 LINE",
"150 28 LINE",
"490 603 LINE",
"475 603 LINE",
"475 56 LINE",
"395 16 LINE",
"395 0 LINE",
"565 0 LINE",
"565 660 LINE",
"464 660 LINE"
);
},
{
closed = 1;
nodes = (
"508 235 LINE",
"508 290 LINE",
"258 290 LINE",
"258 235 LINE"
);
},
{
closed = 1;
nodes = (
"512 660 LINE",
"512 605 LINE",
"806 605 LINE",
"868 488 LINE",
"884 488 LINE",
"884 660 LINE"
);
},
{
closed = 1;
nodes = (
"735 313 LINE",
"785 232 LINE",
"801 232 LINE",
"801 451 LINE",
"785 451 LINE",
"735 368 LINE",
"520 368 LINE",
"520 313 LINE"
);
},
{
closed = 1;
nodes = (
"912 182 LINE",
"896 182 LINE",
"834 55 LINE",
"540 55 LINE",
"540 0 LINE",
"912 0 LINE"
);
}
);
width = 982;
}
);
leftKerningGroup = kern_AE2;
rightKerningGroup = kern_E1;
unicode = 00C6;
},
{
color = 5;
glyphname = B;
layers = (
{
layerId = m01;
paths = (
{
closed = 1;
nodes = (
"235 0 LINE",
"235 660 LINE",
"65 660 LINE",
"65 644 LINE",
"145 604 LINE",
"145 56 LINE",
"65 16 LINE",
"65 0 LINE"
);
},
{
closed = 1;
nodes = (
"493 0 OFFCURVE",
"606 82 OFFCURVE",
"606 192 CURVE SMOOTH",
"606 298 OFFCURVE",
"507 363 OFFCURVE",
"346 363 CURVE",
"338 348 LINE",
"472 348 OFFCURVE",
"549 426 OFFCURVE",
"549 512 CURVE SMOOTH",
"549 611 OFFCURVE",
"451 660 OFFCURVE",
"318 660 CURVE SMOOTH",
"182 660 LINE",
"182 605 LINE",
"295 605 LINE SMOOTH",
"400 605 OFFCURVE",
"452 564 OFFCURVE",
"452 484 CURVE SMOOTH",
"452 411 OFFCURVE",
"396 368 OFFCURVE",
"301 368 CURVE SMOOTH",
"190 368 LINE",
"190 313 LINE",
"333 313 LINE SMOOTH",
"446 313 OFFCURVE",
"509 274 OFFCURVE",
"509 184 CURVE SMOOTH",
"509 108 OFFCURVE",
"445 55 OFFCURVE",
"340 55 CURVE SMOOTH",
"210 55 LINE",
"210 0 LINE",
"341 0 LINE SMOOTH"
);
}
);
width = 658;
},
{
layerId = m002;
paths = (
{
closed = 1;
nodes = (
"235 0 LINE",
"235 660 LINE",
"65 660 LINE",
"65 644 LINE",
"145 604 LINE",
"145 56 LINE",
"65 16 LINE",
"65 0 LINE"
);
},
{
closed = 1;
nodes = (
"493 0 OFFCURVE",
"606 82 OFFCURVE",
"606 192 CURVE SMOOTH",
"606 298 OFFCURVE",
"507 363 OFFCURVE",
"346 363 CURVE",
"338 348 LINE",
"472 348 OFFCURVE",
"549 426 OFFCURVE",
"549 512 CURVE SMOOTH",
"549 611 OFFCURVE",
"451 660 OFFCURVE",
"318 660 CURVE SMOOTH",
"182 660 LINE",
"182 605 LINE",
"295 605 LINE SMOOTH",
"400 605 OFFCURVE",
"452 564 OFFCURVE",
"452 484 CURVE SMOOTH",
"452 411 OFFCURVE",
"396 368 OFFCURVE",
"301 368 CURVE SMOOTH",
"190 368 LINE",
"190 313 LINE",
"333 313 LINE SMOOTH",
"446 313 OFFCURVE",
"509 274 OFFCURVE",
"509 184 CURVE SMOOTH",
"509 108 OFFCURVE",
"445 55 OFFCURVE",
"340 55 CURVE SMOOTH",
"210 55 LINE",
"210 0 LINE",
"341 0 LINE SMOOTH"
);
}
);
width = 658;
}
);
leftKerningGroup = kern_H2;
rightKerningGroup = kern_B1;
unicode = 0042;
},
{
color = 5;
glyphname = C;
layers = (
{
anchors = (
{
name = bottom;
position = "{400, 0}";
},
{
name = top;
position = "{389, 710}";
}
);
layerId = m01;
paths = (
{
closed = 1;
nodes = (
"510 -10 OFFCURVE",
"564 10 OFFCURVE",
"623 39 CURVE",
"634 198 LINE",
"617 198 LINE",
"540 62 LINE",
"578 106 LINE",
"535 76 OFFCURVE",
"486 41 OFFCURVE",
"398 41 CURVE SMOOTH",
"268 41 OFFCURVE",
"163 152 OFFCURVE",
"163 342 CURVE SMOOTH",
"163 504 OFFCURVE",
"269 620 OFFCURVE",
"413 620 CURVE SMOOTH",
"467 620 OFFCURVE",
"502 600 OFFCURVE",
"565 554 CURVE",
"529 599 LINE",
"605 447 LINE",
"623 447 LINE",
"618 622 LINE",
"563.216 648.894 OFFCURVE",
"515 670 OFFCURVE",
"415 670 CURVE SMOOTH",
"228 670 OFFCURVE",
"70 501.471 OFFCURVE",
"70 312 CURVE SMOOTH",
"70 126 OFFCURVE",
"195 -10 OFFCURVE",
"400 -10 CURVE SMOOTH"
);
}
);
width = 726;
},
{
anchors = (
{
name = bottom;
position = "{400, 0}";
},
{
name = top;
position = "{389, 710}";
}
);
layerId = m002;
paths = (
{
closed = 1;
nodes = (
"510 -10 OFFCURVE",
"564 10 OFFCURVE",
"623 39 CURVE",
"634 198 LINE",
"617 198 LINE",
"540 62 LINE",
"578 106 LINE",
"535 76 OFFCURVE",
"486 41 OFFCURVE",
"398 41 CURVE SMOOTH",
"268 41 OFFCURVE",
"163 152 OFFCURVE",
"163 342 CURVE SMOOTH",
"163 504 OFFCURVE",
"269 620 OFFCURVE",
"413 620 CURVE SMOOTH",
"467 620 OFFCURVE",
"502 600 OFFCURVE",
"565 554 CURVE",
"529 599 LINE",
"605 447 LINE",
"623 447 LINE",
"618 622 LINE",
"563.216 648.894 OFFCURVE",
"515 670 OFFCURVE",
"415 670 CURVE SMOOTH",
"228 670 OFFCURVE",
"70 501.471 OFFCURVE",
"70 312 CURVE SMOOTH",
"70 126 OFFCURVE",
"195 -10 OFFCURVE",
"400 -10 CURVE SMOOTH"
);
}
);
width = 726;
}
);
leftKerningGroup = kern_O2;
rightKerningGroup = kern_C1;
unicode = 0043;
},
{
color = 4;
glyphname = Ccedilla;
layers = (
{
layerId = m01;
paths = (
{
closed = 1;
nodes = (
"510 -10 OFFCURVE",
"564 10 OFFCURVE",
"623 39 CURVE",
"634 198 LINE",
"617 198 LINE",
"540 62 LINE",
"578 106 LINE",
"535 76 OFFCURVE",
"486 41 OFFCURVE",
"398 41 CURVE SMOOTH",
"268 41 OFFCURVE",
"163 152 OFFCURVE",
"163 342 CURVE SMOOTH",
"163 504 OFFCURVE",
"269 620 OFFCURVE",
"413 620 CURVE SMOOTH",
"467 620 OFFCURVE",
"502 600 OFFCURVE",
"565 554 CURVE",
"529 599 LINE",
"605 447 LINE",
"623 447 LINE",
"618 622 LINE",
"563 649 OFFCURVE",
"515 670 OFFCURVE",
"415 670 CURVE SMOOTH",
"228 670 OFFCURVE",
"70 501 OFFCURVE",
"70 312 CURVE SMOOTH",
"70 126 OFFCURVE",
"195 -10 OFFCURVE",
"400 -10 CURVE SMOOTH"
);
},
{
closed = 1;
nodes = (
"356 -210 OFFCURVE",
"338 -206 OFFCURVE",
"320 -198 CURVE",
"317 -198 LINE",
"317 -210 LINE",
"335 -231 OFFCURVE",
"363 -240 OFFCURVE",
"400 -240 CURVE",
"463 -240 OFFCURVE",
"497 -203 OFFCURVE",
"497 -155 CURVE SMOOTH",
"497 -98 OFFCURVE",
"465 -75 OFFCURVE",
"374 -49 CURVE",
"387 -69 LINE",
"428 20 LINE",
"393 20 LINE",
"336 -103 LINE",
"415 -128 OFFCURVE",
"437 -142 OFFCURVE",
"437 -171 CURVE SMOOTH",
"437 -192 OFFCURVE",
"423 -210 OFFCURVE",
"383 -210 CURVE SMOOTH"
);
}
);
width = 726;
},
{
layerId = m002;
paths = (
{
closed = 1;
nodes = (
"510 -10 OFFCURVE",
"564 10 OFFCURVE",
"623 39 CURVE",
"634 198 LINE",
"617 198 LINE",
"540 62 LINE",
"578 106 LINE",
"535 76 OFFCURVE",
"486 41 OFFCURVE",
"398 41 CURVE SMOOTH",
"268 41 OFFCURVE",
"163 152 OFFCURVE",
"163 342 CURVE SMOOTH",
"163 504 OFFCURVE",
"269 620 OFFCURVE",
"413 620 CURVE SMOOTH",
"467 620 OFFCURVE",
"502 600 OFFCURVE",
"565 554 CURVE",
"529 599 LINE",
"605 447 LINE",
"623 447 LINE",
"618 622 LINE",
"563 649 OFFCURVE",
"515 670 OFFCURVE",
"415 670 CURVE SMOOTH",
"228 670 OFFCURVE",
"70 501 OFFCURVE",
"70 312 CURVE SMOOTH",
"70 126 OFFCURVE",
"195 -10 OFFCURVE",
"400 -10 CURVE SMOOTH"
);
},
{
closed = 1;
nodes = (
"356 -210 OFFCURVE",
"338 -206 OFFCURVE",
"320 -198 CURVE",
"317 -198 LINE",
"317 -210 LINE",
"335 -231 OFFCURVE",
"363 -240 OFFCURVE",
"400 -240 CURVE",
"463 -240 OFFCURVE",
"497 -203 OFFCURVE",
"497 -155 CURVE SMOOTH",
"497 -98 OFFCURVE",
"465 -75 OFFCURVE",
"374 -49 CURVE",
"387 -69 LINE",
"428 20 LINE",
"393 20 LINE",
"336 -103 LINE",
"415 -128 OFFCURVE",
"437 -142 OFFCURVE",
"437 -171 CURVE SMOOTH",
"437 -192 OFFCURVE",
"423 -210 OFFCURVE",
"383 -210 CURVE SMOOTH"
);
}
);
width = 726;
}
);
leftKerningGroup = kern_O2;
rightKerningGroup = kern_C1;
unicode = 00C7;
},
{
color = 5;
glyphname = D;
layers = (
{
anchors = (
{
name = bottom;
position = "{388, 0}";
},
{
name = top;
position = "{388, 710}";
}
);
layerId = m01;
paths = (
{
closed = 1;
nodes = (
"235 0 LINE",
"235 660 LINE",
"65 660 LINE",
"65 644 LINE",
"145 604 LINE",
"145 56 LINE",
"65 16 LINE",
"65 0 LINE"
);
},
{
closed = 1;
nodes = (
"554 0 OFFCURVE",
"705 152 OFFCURVE",
"705 360 CURVE SMOOTH",
"705 532 OFFCURVE",
"579 660 OFFCURVE",
"358 660 CURVE SMOOTH",
"182 660 LINE",
"182 605 LINE",
"335 605 LINE SMOOTH",
"511 605 OFFCURVE",
"610 496 OFFCURVE",
"610 329 CURVE SMOOTH",
"610 162 OFFCURVE",
"511 55 OFFCURVE",
"350 55 CURVE SMOOTH",
"210 55 LINE",
"210 0 LINE",
"351 0 LINE SMOOTH"
);
}
);
width = 775;
},
{
anchors = (
{
name = bottom;
position = "{388, 0}";
},
{
name = top;
position = "{388, 710}";
}
);
layerId = m002;
paths = (
{
closed = 1;
nodes = (
"235 0 LINE",
"235 660 LINE",
"65 660 LINE",
"65 644 LINE",
"145 604 LINE",
"145 56 LINE",
"65 16 LINE",
"65 0 LINE"
);
},
{
closed = 1;
nodes = (
"554 0 OFFCURVE",
"705 152 OFFCURVE",
"705 360 CURVE SMOOTH",
"705 532 OFFCURVE",
"579 660 OFFCURVE",
"358 660 CURVE SMOOTH",
"182 660 LINE",
"182 605 LINE",
"335 605 LINE SMOOTH",
"511 605 OFFCURVE",
"610 496 OFFCURVE",
"610 329 CURVE SMOOTH",
"610 162 OFFCURVE",
"511 55 OFFCURVE",
"350 55 CURVE SMOOTH",
"210 55 LINE",
"210 0 LINE",
"351 0 LINE SMOOTH"
);
}
);
width = 775;
}
);
leftKerningGroup = kern_H2;
rightKerningGroup = kern_O1;
unicode = 0044;
},
{
color = 4;
glyphname = Dcroat;
layers = (
{
layerId = m01;
paths = (
{
closed = 1;
nodes = (
"235 0 LINE",
"235 660 LINE",
"65 660 LINE",
"65 644 LINE",
"145 604 LINE",
"145 56 LINE",
"65 16 LINE",
"65 0 LINE"
);
},
{
closed = 1;
nodes = (
"554 0 OFFCURVE",
"705 152 OFFCURVE",
"705 360 CURVE SMOOTH",
"705 532 OFFCURVE",
"579 660 OFFCURVE",
"358 660 CURVE SMOOTH",
"182 660 LINE",
"182 605 LINE",
"335 605 LINE SMOOTH",
"511 605 OFFCURVE",
"610 496 OFFCURVE",
"610 329 CURVE SMOOTH",
"610 162 OFFCURVE",
"511 55 OFFCURVE",
"350 55 CURVE SMOOTH",
"210 55 LINE",
"210 0 LINE",
"351 0 LINE SMOOTH"
);
},
{
closed = 1;
nodes = (
"410 317 LINE",
"410 367 LINE",
"65 367 LINE",
"65 317 LINE"
);
}
);
width = 775;
},
{
layerId = m002;
paths = (
{
closed = 1;
nodes = (
"235 0 LINE",
"235 660 LINE",
"65 660 LINE",
"65 644 LINE",
"145 604 LINE",
"145 56 LINE",
"65 16 LINE",
"65 0 LINE"
);
},
{
closed = 1;
nodes = (
"554 0 OFFCURVE",
"705 152 OFFCURVE",
"705 360 CURVE SMOOTH",
"705 532 OFFCURVE",
"579 660 OFFCURVE",
"358 660 CURVE SMOOTH",
"182 660 LINE",
"182 605 LINE",
"335 605 LINE SMOOTH",
"511 605 OFFCURVE",
"610 496 OFFCURVE",
"610 329 CURVE SMOOTH",
"610 162 OFFCURVE",
"511 55 OFFCURVE",
"350 55 CURVE SMOOTH",
"210 55 LINE",
"210 0 LINE",
"351 0 LINE SMOOTH"
);
},
{
closed = 1;
nodes = (
"410 317 LINE",
"410 367 LINE",
"65 367 LINE",
"65 317 LINE"
);
}
);
width = 775;
}
);
leftKerningGroup = kern_H2;
rightKerningGroup = kern_O1;
unicode = 0110;
},
{
color = 5;
glyphname = E;
layers = (
{
anchors = (
{
name = bottom;
position = "{350, 0}";
},
{
name = right;
position = "{505, 0}";
},
{
name = top;
position = "{335, 710}";
}
);
layerId = m01;
paths = (
{
closed = 1;
nodes = (
"235 0 LINE",
"235 660 LINE",
"65 660 LINE",
"65 644 LINE",
"145 604 LINE",
"145 56 LINE",
"65 16 LINE",
"65 0 LINE"
);
},
{
closed = 1;
nodes = (
"554 488 LINE",
"554 660 LINE",
"182 660 LINE",
"182 605 LINE",
"476 605 LINE",
"538 488 LINE"
);
},
{
closed = 1;
nodes = (
"471 232 LINE",
"471 451 LINE",
"455 451 LINE",
"405 368 LINE",
"190 368 LINE",
"190 313 LINE",
"405 313 LINE",
"455 232 LINE"
);
},
{
closed = 1;
nodes = (
"582 182 LINE",
"566 182 LINE",
"504 55 LINE",
"210 55 LINE",
"210 0 LINE",
"582 0 LINE"
);
}
);
width = 652;
},
{
anchors = (
{
name = bottom;
position = "{350, 0}";
},
{
name = right;
position = "{505, 0}";
},
{
name = top;
position = "{335, 710}";
}
);
layerId = m002;
paths = (
{
closed = 1;
nodes = (
"235 0 LINE",
"235 660 LINE",
"65 660 LINE",
"65 644 LINE",
"145 604 LINE",
"145 56 LINE",
"65 16 LINE",
"65 0 LINE"
);
},
{
closed = 1;
nodes = (
"554 488 LINE",
"554 660 LINE",
"182 660 LINE",
"182 605 LINE",
"476 605 LINE",
"538 488 LINE"
);
},
{
closed = 1;
nodes = (
"471 232 LINE",
"471 451 LINE",
"455 451 LINE",
"405 368 LINE",
"190 368 LINE",
"190 313 LINE",
"405 313 LINE",
"455 232 LINE"
);
},
{
closed = 1;
nodes = (
"582 182 LINE",
"566 182 LINE",
"504 55 LINE",
"210 55 LINE",
"210 0 LINE",
"582 0 LINE"
);
}
);
width = 652;
}
);
leftKerningGroup = kern_H2;
rightKerningGroup = kern_E1;
unicode = 0045;
},
{
color = 5;
glyphname = F;
layers = (
{
layerId = m01;
paths = (
{
closed = 1;
nodes = (
"325 0 LINE",
"325 16 LINE",
"235 56 LINE",
"235 660 LINE",
"65 660 LINE",
"65 644 LINE",
"145 604 LINE",
"145 56 LINE",
"65 16 LINE",
"65 0 LINE"
);
},
{
closed = 1;
nodes = (
"544 488 LINE",
"544 660 LINE",
"172 660 LINE",
"172 605 LINE",
"466 605 LINE",
"528 488 LINE"
);
},
{
closed = 1;
nodes = (
"461 232 LINE",
"461 451 LINE",
"445 451 LINE",
"395 368 LINE",
"180 368 LINE",
"180 313 LINE",
"395 313 LINE",
"445 232 LINE"
);
}
);
width = 614;
},
{
layerId = m002;
paths = (
{
closed = 1;
nodes = (
"325 0 LINE",
"325 16 LINE",
"235 56 LINE",
"235 660 LINE",
"65 660 LINE",
"65 644 LINE",
"145 604 LINE",
"145 56 LINE",
"65 16 LINE",
"65 0 LINE"
);
},
{
closed = 1;
nodes = (
"544 488 LINE",
"544 660 LINE",
"172 660 LINE",
"172 605 LINE",
"466 605 LINE",
"528 488 LINE"
);
},
{
closed = 1;
nodes = (
"461 232 LINE",
"461 451 LINE",
"445 451 LINE",
"395 368 LINE",
"180 368 LINE",
"180 313 LINE",
"395 313 LINE",
"445 232 LINE"
);
}
);
width = 614;
}
);
leftKerningGroup = kern_H2;
rightKerningGroup = kern_F1;
unicode = 0046;
},
{
color = 5;
glyphname = G;
layers = (
{
anchors = (
{
name = bottom;
position = "{415, 0}";
},
{
name = top;
position = "{400, 710}";
}
);
layerId = m01;
paths = (
{
closed = 1;
nodes = (
"489 -10 OFFCURVE",
"588 23 OFFCURVE",
"649 74 CURVE",
"649 231 LINE",
"718 274 LINE",
"718 290 LINE",
"470 290 LINE",
"470 274 LINE",
"559 234 LINE",
"559 61 LINE",
"588 82 LINE",
"533 54 OFFCURVE",
"485 48 OFFCURVE",
"432 48 CURVE SMOOTH",
"280 48 OFFCURVE",
"159 163 OFFCURVE",
"159 362 CURVE SMOOTH",
"159 510 OFFCURVE",
"270 620 OFFCURVE",
"424 620 CURVE SMOOTH",
"481 620 OFFCURVE",
"514 604 OFFCURVE",
"584 554 CURVE",
"546 598 LINE",
"628 457 LINE",
"644 457 LINE",
"639 622 LINE",
"582 650 OFFCURVE",
"531 670 OFFCURVE",
"426 670 CURVE SMOOTH",
"230 670 OFFCURVE",
"70 517 OFFCURVE",
"70 312 CURVE SMOOTH",
"70 126 OFFCURVE",
"211 -10 OFFCURVE",
"403 -10 CURVE SMOOTH"
);
}
);
width = 768;
},
{
anchors = (
{
name = bottom;
position = "{415, 0}";
},
{
name = top;
position = "{400, 710}";
}
);
layerId = m002;
paths = (
{
closed = 1;
nodes = (
"489 -10 OFFCURVE",
"588 23 OFFCURVE",
"649 74 CURVE",
"649 231 LINE",
"718 274 LINE",
"718 290 LINE",
"470 290 LINE",
"470 274 LINE",
"559 234 LINE",
"559 61 LINE",
"588 82 LINE",
"533 54 OFFCURVE",
"485 48 OFFCURVE",
"432 48 CURVE SMOOTH",
"280 48 OFFCURVE",
"159 163 OFFCURVE",
"159 362 CURVE SMOOTH",
"159 510 OFFCURVE",
"270 620 OFFCURVE",
"424 620 CURVE SMOOTH",
"481 620 OFFCURVE",
"514 604 OFFCURVE",
"584 554 CURVE",
"546 598 LINE",
"628 457 LINE",
"644 457 LINE",
"639 622 LINE",
"582 650 OFFCURVE",
"531 670 OFFCURVE",
"426 670 CURVE SMOOTH",
"230 670 OFFCURVE",
"70 517 OFFCURVE",
"70 312 CURVE SMOOTH",
"70 126 OFFCURVE",
"211 -10 OFFCURVE",
"403 -10 CURVE SMOOTH"
);
}
);
width = 768;
}
);
leftKerningGroup = kern_O2;
rightKerningGroup = kern_G1;
unicode = 0047;
},
{
color = 5;
glyphname = H;
layers = (
{
anchors = (
{
name = bottom;
position = "{405, 0}";
},
{
name = top;
position = "{405, 710}";
}
);
layerId = m01;
paths = (
{
closed = 1;
nodes = (
"315 0 LINE",
"315 16 LINE",
"235 56 LINE",
"235 604 LINE",
"315 644 LINE",
"315 660 LINE",
"65 660 LINE",
"65 644 LINE",
"145 604 LINE",
"145 56 LINE",
"65 16 LINE",
"65 0 LINE"
);
},
{
closed = 1;
nodes = (
"620 313 LINE",
"620 368 LINE",
"190 368 LINE",
"190 313 LINE"
);
},
{
closed = 1;
nodes = (
"745 0 LINE",
"745 16 LINE",
"665 56 LINE",
"665 604 LINE",
"745 644 LINE",
"745 660 LINE",
"495 660 LINE",
"495 644 LINE",
"575 604 LINE",
"575 56 LINE",
"495 16 LINE",
"495 0 LINE"
);
}
);
width = 810;
},
{
anchors = (
{
name = bottom;
position = "{405, 0}";
},
{
name = top;
position = "{405, 710}";
}
);
layerId = m002;
paths = (
{
closed = 1;
nodes = (
"315 0 LINE",
"315 16 LINE",
"235 56 LINE",
"235 604 LINE",
"315 644 LINE",
"315 660 LINE",
"65 660 LINE",
"65 644 LINE",
"145 604 LINE",
"145 56 LINE",
"65 16 LINE",
"65 0 LINE"
);
},
{
closed = 1;
nodes = (
"620 313 LINE",
"620 368 LINE",
"190 368 LINE",
"190 313 LINE"
);
},
{
closed = 1;
nodes = (
"745 0 LINE",
"745 16 LINE",
"665 56 LINE",
"665 604 LINE",
"745 644 LINE",
"745 660 LINE",
"495 660 LINE",
"495 644 LINE",
"575 604 LINE",
"575 56 LINE",
"495 16 LINE",
"495 0 LINE"
);
}
);
width = 810;
}
);
leftKerningGroup = kern_H2;
rightKerningGroup = kern_H1;
unicode = 0048;
},
{
color = 5;
glyphname = I;
layers = (
{
anchors = (
{
name = bottom;
position = "{195, 0}";
},
{
name = right;
position = "{212, 0}";
},
{
name = top;
position = "{195, 710}";
}
);
layerId = m01;
paths = (
{
closed = 1;
nodes = (
"320 0 LINE",
"320 16 LINE",
"240 56 LINE",
"240 604 LINE",
"320 644 LINE",
"320 660 LINE",
"70 660 LINE",
"70 644 LINE",
"150 604 LINE",
"150 56 LINE",
"70 16 LINE",
"70 0 LINE"
);
}
);
width = 390;
},
{
anchors = (
{
name = bottom;
position = "{195, 0}";
},
{
name = right;
position = "{212, 0}";
},
{
name = top;
position = "{195, 710}";
}
);
layerId = m002;
paths = (
{
closed = 1;
nodes = (
"320 0 LINE",
"320 16 LINE",
"240 56 LINE",
"240 604 LINE",
"320 644 LINE",
"320 660 LINE",
"70 660 LINE",
"70 644 LINE",
"150 604 LINE",
"150 56 LINE",
"70 16 LINE",
"70 0 LINE"
);
}
);
width = 390;
}
);
leftKerningGroup = kern_H2;
rightKerningGroup = kern_H1;
unicode = 0049;
},
{
color = 5;
glyphname = J;
layers = (
{
anchors = (
{
name = top;
position = "{195, 710}";
}
);
layerId = m01;
paths = (
{
closed = 1;
nodes = (
"86 -173 OFFCURVE",
"103 -163 OFFCURVE",
"161 -99 CURVE SMOOTH",
"219 -35 OFFCURVE",
"240 90.385 OFFCURVE",
"240 240 CURVE SMOOTH",
"240 604 LINE",
"320 644 LINE",
"320 660 LINE",
"70 660 LINE",
"70 644 LINE",
"150 604 LINE",
"150 51 LINE SMOOTH",
"150 -83 OFFCURVE",
"123 -100 OFFCURVE",
"80 -100 CURVE SMOOTH",
"62 -100 OFFCURVE",
"52 -97 OFFCURVE",
"29 -91 CURVE",
"23 -91 LINE",
"13 -139 OFFCURVE",
"13 -142 OFFCURVE",
"13 -145 CURVE SMOOTH",
"13 -166 OFFCURVE",
"29 -173 OFFCURVE",
"46 -173 CURVE SMOOTH"
);
}
);
width = 390;
},
{
anchors = (
{
name = top;
position = "{195, 710}";
}
);
layerId = m002;
paths = (
{
closed = 1;
nodes = (
"86 -173 OFFCURVE",
"103 -163 OFFCURVE",
"161 -99 CURVE SMOOTH",
"219 -35 OFFCURVE",
"240 90.385 OFFCURVE",
"240 240 CURVE SMOOTH",
"240 604 LINE",
"320 644 LINE",
"320 660 LINE",
"70 660 LINE",
"70 644 LINE",
"150 604 LINE",
"150 51 LINE SMOOTH",
"150 -83 OFFCURVE",
"123 -100 OFFCURVE",
"80 -100 CURVE SMOOTH",
"62 -100 OFFCURVE",
"52 -97 OFFCURVE",
"29 -91 CURVE",
"23 -91 LINE",
"13 -139 OFFCURVE",
"13 -142 OFFCURVE",
"13 -145 CURVE SMOOTH",
"13 -166 OFFCURVE",
"29 -173 OFFCURVE",
"46 -173 CURVE SMOOTH"
);
}
);
width = 390;
}
);
leftKerningGroup = kern_J2;
rightKerningGroup = kern_J1;
unicode = 004A;
},
{
color = 5;
glyphname = K;
layers = (
{
anchors = (
{
name = bottom;
position = "{385, 0}";
},
{
name = top;
position = "{385, 710}";
}
);
layerId = m01;
paths = (
{
closed = 1;
nodes = (
"315 0 LINE",
"315 16 LINE",
"235 56 LINE",
"235 604 LINE",
"315 644 LINE",
"315 660 LINE",
"65 660 LINE",
"65 644 LINE",
"145 604 LINE",
"145 56 LINE",
"65 16 LINE",
"65 0 LINE"
);
},
{
closed = 1;
nodes = (
"560 0 LINE",
"704 0 LINE",
"704 16 LINE",
"604 59 LINE",
"654 31 LINE",
"303 386 LINE",
"303 338 LINE",
"609 638 LINE",
"568 611 LINE",
"652 644 LINE",
"652 660 LINE",
"442 660 LINE",
"442 644 LINE",
"530 602 LINE",
"530 627 LINE",
"236 338 LINE"
);
}
);
width = 719;
},
{
anchors = (
{
name = bottom;
position = "{385, 0}";
},
{
name = top;
position = "{385, 710}";
}
);
layerId = m002;
paths = (
{
closed = 1;
nodes = (
"315 0 LINE",
"315 16 LINE",
"235 56 LINE",
"235 604 LINE",
"315 644 LINE",
"315 660 LINE",
"65 660 LINE",
"65 644 LINE",
"145 604 LINE",
"145 56 LINE",
"65 16 LINE",
"65 0 LINE"
);
},
{
closed = 1;
nodes = (
"560 0 LINE",
"704 0 LINE",
"704 16 LINE",
"604 59 LINE",
"654 31 LINE",
"303 386 LINE",
"303 338 LINE",
"609 638 LINE",
"568 611 LINE",
"652 644 LINE",
"652 660 LINE",
"442 660 LINE",
"442 644 LINE",
"530 602 LINE",
"530 627 LINE",
"236 338 LINE"
);
}
);
width = 719;
}
);
leftKerningGroup = kern_H2;
rightKerningGroup = kern_K1;
unicode = 004B;
},
{
color = 5;
glyphname = L;
layers = (
{
anchors = (
{
name = bottom;
position = "{354, 0}";
},
{
name = mid;
position = "{490, 347}";
},
{
name = right;
position = "{475, 660}";
},
{
name = top;
position = "{190, 710}";
}
);
layerId = m01;
paths = (
{
closed = 1;
nodes = (
"562 0 LINE",
"562 222 LINE",
"546 222 LINE",
"478 55 LINE",
"235 55 LINE",
"235 604 LINE",
"325 644 LINE",
"325 660 LINE",
"65 660 LINE",
"65 644 LINE",
"145 604 LINE",
"145 56 LINE",
"65 16 LINE",
"65 0 LINE"
);
}
);
width = 632;
},
{
anchors = (
{
name = bottom;
position = "{354, 0}";
},
{
name = mid;
position = "{490, 347}";
},
{
name = right;
position = "{475, 660}";
},
{
name = top;
position = "{190, 710}";
}
);
layerId = m002;
paths = (
{
closed = 1;
nodes = (
"562 0 LINE",
"562 222 LINE",
"546 222 LINE",
"478 55 LINE",
"235 55 LINE",
"235 604 LINE",
"325 644 LINE",
"325 660 LINE",
"65 660 LINE",
"65 644 LINE",
"145 604 LINE",
"145 56 LINE",
"65 16 LINE",
"65 0 LINE"
);
}
);
width = 632;
}
);
leftKerningGroup = kern_H2;
rightKerningGroup = kern_L1;
unicode = 004C;
},
{
color = 5;
glyphname = M;
layers = (
{
anchors = (
{
name = bottom;
position = "{472, 0}";
}
);
layerId = m01;
paths = (
{
closed = 1;
nodes = (
"282 0 LINE",
"282 16 LINE",
"201 55 LINE",
"217 642 LINE",
"161 642 LINE",
"139 56 LINE",
"60 16 LINE",
"60 0 LINE"
);
},
{
closed = 1;
nodes = (
"494 -5 LINE",
"754 597 LINE",
"797 597 LINE",
"896 644 LINE",
"896 660 LINE",
"720 660 LINE",
"465 71 LINE",
"514 71 LINE",
"259 660 LINE",
"74 660 LINE",
"74 644 LINE",
"173 597 LINE",
"190 597 LINE",
"449 -5 LINE"
);
},
{
closed = 1;
nodes = (
"899 0 LINE",
"899 16 LINE",
"829 56 LINE",
"811 642 LINE",
"731 642 LINE",
"743 55 LINE",
"669 16 LINE",
"669 0 LINE"
);
}
);
width = 959;
},
{
anchors = (
{
name = bottom;
position = "{472, 0}";
}
);
layerId = m002;
paths = (
{
closed = 1;
nodes = (
"282 0 LINE",
"282 16 LINE",
"201 55 LINE",
"217 642 LINE",
"161 642 LINE",
"139 56 LINE",
"60 16 LINE",
"60 0 LINE"
);
},
{
closed = 1;
nodes = (
"494 -5 LINE",
"754 597 LINE",
"797 597 LINE",
"896 644 LINE",
"896 660 LINE",
"720 660 LINE",
"465 71 LINE",
"514 71 LINE",
"259 660 LINE",
"74 660 LINE",
"74 644 LINE",
"173 597 LINE",
"190 597 LINE",
"449 -5 LINE"
);
},
{
closed = 1;
nodes = (
"899 0 LINE",
"899 16 LINE",
"829 56 LINE",
"811 642 LINE",
"731 642 LINE",
"743 55 LINE",
"669 16 LINE",
"669 0 LINE"
);
}
);
width = 959;
}
);
leftKerningGroup = kern_M3;
rightKerningGroup = kern_M3;
unicode = 004D;
},
{
color = 5;
glyphname = N;
layers = (
{
anchors = (
{
name = bottom;
position = "{420, 0}";
},
{
name = top;
position = "{410, 710}";
}
);
layerId = m01;
paths = (
{
closed = 1;
nodes = (
"310 0 LINE",
"310 16 LINE",
"210 55 LINE",
"210 561 LINE",
"174 561 LINE",
"623 -5 LINE",
"660 -5 LINE",
"660 605 LINE",
"739 644 LINE",
"739 660 LINE",
"490 660 LINE",
"490 644 LINE",
"590 606 LINE",
"590 100 LINE",
"654 100 LINE",
"208 660 LINE",
"61 660 LINE",
"61 644 LINE",
"140 602 LINE",
"140 56 LINE",
"60 16 LINE",
"60 0 LINE"
);
}
);
width = 799;
},
{
anchors = (
{
name = bottom;
position = "{420, 0}";
},
{
name = top;
position = "{410, 710}";
}
);
layerId = m002;
paths = (
{
closed = 1;
nodes = (
"310 0 LINE",
"310 16 LINE",
"210 55 LINE",
"210 561 LINE",
"174 561 LINE",
"623 -5 LINE",
"660 -5 LINE",
"660 605 LINE",
"739 644 LINE",
"739 660 LINE",
"490 660 LINE",
"490 644 LINE",
"590 606 LINE",
"590 100 LINE",
"654 100 LINE",
"208 660 LINE",
"61 660 LINE",
"61 644 LINE",
"140 602 LINE",
"140 56 LINE",
"60 16 LINE",
"60 0 LINE"
);
}
);
width = 799;
}
);
leftKerningGroup = kern_H2;
rightKerningGroup = kern_N1;
unicode = 004E;
},
{
color = 5;
glyphname = O;
layers = (
{
anchors = (
{
name = bottom;
position = "{417, 0}";
},
{
name = right;
position = "{431, 0}";
},
{
name = top;
position = "{391, 710}";
}
);
layerId = m01;
paths = (
{
closed = 1;
nodes = (
"595 -10 OFFCURVE",
"737 134 OFFCURVE",
"737 330 CURVE SMOOTH",
"737 526 OFFCURVE",
"595 670 OFFCURVE",
"403 670 CURVE SMOOTH",
"212 670 OFFCURVE",
"70 526 OFFCURVE",
"70 330 CURVE SMOOTH",
"70 134 OFFCURVE",
"212 -10 OFFCURVE",
"403 -10 CURVE SMOOTH"
);
},
{
closed = 1;
nodes = (
"281 40 OFFCURVE",
"167 168 OFFCURVE",
"167 363 CURVE SMOOTH",
"167 521 OFFCURVE",
"258 621 OFFCURVE",
"386 621 CURVE SMOOTH",
"528 621 OFFCURVE",
"640 494 OFFCURVE",
"640 299 CURVE SMOOTH",
"640 141 OFFCURVE",
"552 40 OFFCURVE",
"424 40 CURVE SMOOTH"
);
}
);
width = 807;
},
{
anchors = (
{
name = bottom;
position = "{417, 0}";
},
{
name = right;
position = "{431, 0}";
},
{
name = top;
position = "{391, 710}";
}
);
layerId = m002;
paths = (
{
closed = 1;
nodes = (
"595 -10 OFFCURVE",
"737 134 OFFCURVE",
"737 330 CURVE SMOOTH",
"737 526 OFFCURVE",
"595 670 OFFCURVE",
"403 670 CURVE SMOOTH",
"212 670 OFFCURVE",
"70 526 OFFCURVE",
"70 330 CURVE SMOOTH",
"70 134 OFFCURVE",
"212 -10 OFFCURVE",
"403 -10 CURVE SMOOTH"
);
},
{
closed = 1;
nodes = (
"281 40 OFFCURVE",
"167 168 OFFCURVE",
"167 363 CURVE SMOOTH",
"167 521 OFFCURVE",
"258 621 OFFCURVE",
"386 621 CURVE SMOOTH",
"528 621 OFFCURVE",
"640 494 OFFCURVE",
"640 299 CURVE SMOOTH",
"640 141 OFFCURVE",
"552 40 OFFCURVE",
"424 40 CURVE SMOOTH"
);
}
);
width = 807;
}
);
leftKerningGroup = kern_O2;
rightKerningGroup = kern_O1;
unicode = 004F;
},
{
color = 5;
glyphname = Oslash;
layers = (
{
anchors = (
{
name = top;
position = "{391, 710}";
}
);
layerId = m01;
paths = (
{
closed = 1;
nodes = (
"595 -10 OFFCURVE",
"737 134 OFFCURVE",
"737 330 CURVE SMOOTH",
"737 526 OFFCURVE",
"595 670 OFFCURVE",
"403 670 CURVE SMOOTH",
"212 670 OFFCURVE",
"70 526 OFFCURVE",
"70 330 CURVE SMOOTH",
"70 134 OFFCURVE",
"212 -10 OFFCURVE",
"403 -10 CURVE SMOOTH"
);
},
{
closed = 1;
nodes = (
"281 40 OFFCURVE",
"167 168 OFFCURVE",
"167 363 CURVE SMOOTH",
"167 521 OFFCURVE",
"258 621 OFFCURVE",
"386 621 CURVE SMOOTH",
"528 621 OFFCURVE",
"640 494 OFFCURVE",
"640 299 CURVE SMOOTH",
"640 141 OFFCURVE",
"552 40 OFFCURVE",
"424 40 CURVE SMOOTH"
);
},
{
closed = 1;
nodes = (
"139 -10 LINE",
"737 670 LINE",
"668 670 LINE",
"70 -10 LINE"
);
}
);
width = 807;
},
{
anchors = (
{
name = top;
position = "{391, 710}";
}
);
layerId = m002;
paths = (
{
closed = 1;
nodes = (
"595 -10 OFFCURVE",
"737 134 OFFCURVE",
"737 330 CURVE SMOOTH",
"737 526 OFFCURVE",
"595 670 OFFCURVE",
"403 670 CURVE SMOOTH",
"212 670 OFFCURVE",
"70 526 OFFCURVE",
"70 330 CURVE SMOOTH",
"70 134 OFFCURVE",
"212 -10 OFFCURVE",
"403 -10 CURVE SMOOTH"
);
},
{
closed = 1;
nodes = (
"281 40 OFFCURVE",
"167 168 OFFCURVE",
"167 363 CURVE SMOOTH",
"167 521 OFFCURVE",
"258 621 OFFCURVE",
"386 621 CURVE SMOOTH",
"528 621 OFFCURVE",
"640 494 OFFCURVE",
"640 299 CURVE SMOOTH",
"640 141 OFFCURVE",
"552 40 OFFCURVE",
"424 40 CURVE SMOOTH"
);
},
{
closed = 1;
nodes = (
"139 -10 LINE",
"737 670 LINE",
"668 670 LINE",
"70 -10 LINE"
);
}
);
width = 807;
}
);
leftKerningGroup = kern_O2;
rightKerningGroup = kern_O1;
unicode = 00D8;
},
{
color = 5;
glyphname = OE;
layers = (
{
layerId = m01;
paths = (
{
closed = 1;
nodes = (
"596 0 LINE",
"596 660 LINE",
"424 660 LINE SMOOTH",
"221 660 OFFCURVE",
"70 522 OFFCURVE",
"70 326 CURVE SMOOTH",
"70 130 OFFCURVE",
"200 2 OFFCURVE",
"417 0 CURVE SMOOTH"
);
},
{
closed = 1;
nodes = (
"264 55 OFFCURVE",
"165 164 OFFCURVE",
"165 330 CURVE SMOOTH",
"165 499 OFFCURVE",
"264 605 OFFCURVE",
"425 605 CURVE SMOOTH",
"535 605 LINE",
"506 627 LINE",
"506 28 LINE",
"532 55 LINE",
"440 55 LINE SMOOTH"
);
},
{
closed = 1;
nodes = (
"915 660 LINE",
"563 660 LINE",
"563 605 LINE",
"837 605 LINE",
"899 488 LINE",
"915 488 LINE"
);
},
{
closed = 1;
nodes = (
"832 451 LINE",
"816 451 LINE",
"766 368 LINE",
"551 368 LINE",
"551 313 LINE",
"766 313 LINE",
"816 232 LINE",
"832 232 LINE"
);
},
{
closed = 1;
nodes = (
"943 182 LINE",
"927 182 LINE",
"865 55 LINE",
"571 55 LINE",
"571 0 LINE",
"943 0 LINE"
);
}
);
width = 1013;
},
{
layerId = m002;
paths = (
{
closed = 1;
nodes = (
"596 0 LINE",
"596 660 LINE",
"424 660 LINE SMOOTH",
"221 660 OFFCURVE",
"70 522 OFFCURVE",
"70 326 CURVE SMOOTH",
"70 130 OFFCURVE",
"200 2 OFFCURVE",
"417 0 CURVE SMOOTH"
);
},
{
closed = 1;
nodes = (
"264 55 OFFCURVE",
"165 164 OFFCURVE",
"165 330 CURVE SMOOTH",
"165 499 OFFCURVE",
"264 605 OFFCURVE",
"425 605 CURVE SMOOTH",
"535 605 LINE",
"506 627 LINE",
"506 28 LINE",
"532 55 LINE",
"440 55 LINE SMOOTH"
);
},
{
closed = 1;
nodes = (
"915 660 LINE",
"563 660 LINE",
"563 605 LINE",
"837 605 LINE",
"899 488 LINE",
"915 488 LINE"
);
},
{
closed = 1;
nodes = (
"832 451 LINE",
"816 451 LINE",
"766 368 LINE",
"551 368 LINE",
"551 313 LINE",
"766 313 LINE",
"816 232 LINE",
"832 232 LINE"
);
},
{
closed = 1;
nodes = (
"943 182 LINE",
"927 182 LINE",
"865 55 LINE",
"571 55 LINE",
"571 0 LINE",
"943 0 LINE"
);
}
);
width = 1013;
}
);
leftKerningGroup = kern_O2;
rightKerningGroup = kern_E1;
unicode = 0152;
},
{
color = 5;
glyphname = P;
layers = (
{
layerId = m01;
paths = (
{
closed = 1;
nodes = (
"325 0 LINE",
"325 16 LINE",
"235 56 LINE",
"235 605 LINE",
"313 605 LINE SMOOTH",
"426 605 OFFCURVE",
"489 566 OFFCURVE",
"489 473 CURVE SMOOTH",
"489 398 OFFCURVE",
"425 346 OFFCURVE",
"320 346 CURVE SMOOTH",
"210 346 LINE",
"210 291 LINE",
"301 291 LINE SMOOTH",
"464 291 OFFCURVE",
"586 372 OFFCURVE",
"586 481 CURVE SMOOTH",
"586 605 OFFCURVE",
"482 660 OFFCURVE",
"325 660 CURVE SMOOTH",
"65 660 LINE",
"65 644 LINE",
"145 604 LINE",
"145 56 LINE",
"65 16 LINE",
"65 0 LINE"
);
}
);
width = 638;
},
{
layerId = m002;
paths = (
{
closed = 1;
nodes = (
"325 0 LINE",
"325 16 LINE",
"235 56 LINE",
"235 605 LINE",
"313 605 LINE SMOOTH",
"426 605 OFFCURVE",
"489 566 OFFCURVE",
"489 473 CURVE SMOOTH",
"489 398 OFFCURVE",
"425 346 OFFCURVE",
"320 346 CURVE SMOOTH",
"210 346 LINE",
"210 291 LINE",
"301 291 LINE SMOOTH",
"464 291 OFFCURVE",
"586 372 OFFCURVE",
"586 481 CURVE SMOOTH",
"586 605 OFFCURVE",
"482 660 OFFCURVE",
"325 660 CURVE SMOOTH",
"65 660 LINE",
"65 644 LINE",
"145 604 LINE",
"145 56 LINE",
"65 16 LINE",
"65 0 LINE"
);
}
);
width = 638;
}
);
leftKerningGroup = kern_H2;
rightKerningGroup = kern_P1;
unicode = 0050;
},
{
color = 5;
glyphname = Thorn;
layers = (
{
layerId = m01;
paths = (
{
closed = 1;
nodes = (
"315 0 LINE",
"315 16 LINE",
"235 56 LINE",
"235 604 LINE",
"315 644 LINE",
"315 660 LINE",
"65 660 LINE",
"65 644 LINE",
"145 604 LINE",
"145 56 LINE",
"65 16 LINE",
"65 0 LINE"
);
},
{
closed = 1;
nodes = (
"464 171 OFFCURVE",
"586 252 OFFCURVE",
"586 361 CURVE SMOOTH",
"586 485 OFFCURVE",
"482 540 OFFCURVE",
"325 540 CURVE SMOOTH",
"218 540 LINE",
"218 485 LINE",
"313 485 LINE SMOOTH",
"426 485 OFFCURVE",
"489 446 OFFCURVE",
"489 353 CURVE SMOOTH",
"489 278 OFFCURVE",
"425 226 OFFCURVE",
"320 226 CURVE SMOOTH",
"210 226 LINE",
"210 171 LINE",
"301 171 LINE SMOOTH"
);
}
);
width = 638;
},
{
layerId = m002;
paths = (
{
closed = 1;
nodes = (
"315 0 LINE",
"315 16 LINE",
"235 56 LINE",
"235 604 LINE",
"315 644 LINE",
"315 660 LINE",
"65 660 LINE",
"65 644 LINE",
"145 604 LINE",
"145 56 LINE",
"65 16 LINE",
"65 0 LINE"
);
},
{
closed = 1;
nodes = (
"464 171 OFFCURVE",
"586 252 OFFCURVE",
"586 361 CURVE SMOOTH",
"586 485 OFFCURVE",
"482 540 OFFCURVE",
"325 540 CURVE SMOOTH",
"218 540 LINE",
"218 485 LINE",
"313 485 LINE SMOOTH",
"426 485 OFFCURVE",
"489 446 OFFCURVE",
"489 353 CURVE SMOOTH",
"489 278 OFFCURVE",
"425 226 OFFCURVE",
"320 226 CURVE SMOOTH",
"210 226 LINE",
"210 171 LINE",
"301 171 LINE SMOOTH"
);
}
);
width = 638;
}
);
leftKerningGroup = kern_H2;
rightKerningGroup = kern_Thorn1;
unicode = 00DE;
},
{
color = 5;
glyphname = Q;
layers = (
{
layerId = m01;
paths = (
{
closed = 1;
nodes = (
"595 -10 OFFCURVE",
"737 134 OFFCURVE",
"737 330 CURVE SMOOTH",
"737 526 OFFCURVE",
"595 670 OFFCURVE",
"403 670 CURVE SMOOTH",
"212 670 OFFCURVE",
"70 526 OFFCURVE",
"70 330 CURVE SMOOTH",
"70 134 OFFCURVE",
"212 -10 OFFCURVE",
"403 -10 CURVE SMOOTH"
);
},
{
closed = 1;
nodes = (
"281 40 OFFCURVE",
"167 168 OFFCURVE",
"167 363 CURVE SMOOTH",
"167 521 OFFCURVE",
"258 621 OFFCURVE",
"386 621 CURVE SMOOTH",
"528 621 OFFCURVE",
"640 494 OFFCURVE",
"640 299 CURVE SMOOTH",
"640 141 OFFCURVE",
"552 40 OFFCURVE",
"424 40 CURVE SMOOTH"
);
},
{
closed = 1;
nodes = (
"732 -149 OFFCURVE",
"776 -138 OFFCURVE",
"807 -122 CURVE",
"807 -106 LINE",
"792 -111 OFFCURVE",
"771 -115 OFFCURVE",
"743 -115 CURVE SMOOTH",
"673 -115 OFFCURVE",
"606 -83 OFFCURVE",
"483 16 CURVE",
"347 16 LINE",
"515 -126 OFFCURVE",
"599 -149 OFFCURVE",
"682 -149 CURVE SMOOTH"
);
}
);
width = 807;
},
{
layerId = m002;
paths = (
{
closed = 1;
nodes = (
"595 -10 OFFCURVE",
"737 134 OFFCURVE",
"737 330 CURVE SMOOTH",
"737 526 OFFCURVE",
"595 670 OFFCURVE",
"403 670 CURVE SMOOTH",
"212 670 OFFCURVE",
"70 526 OFFCURVE",
"70 330 CURVE SMOOTH",
"70 134 OFFCURVE",
"212 -10 OFFCURVE",
"403 -10 CURVE SMOOTH"
);
},
{
closed = 1;
nodes = (
"281 40 OFFCURVE",
"167 168 OFFCURVE",
"167 363 CURVE SMOOTH",
"167 521 OFFCURVE",
"258 621 OFFCURVE",
"386 621 CURVE SMOOTH",
"528 621 OFFCURVE",
"640 494 OFFCURVE",
"640 299 CURVE SMOOTH",
"640 141 OFFCURVE",
"552 40 OFFCURVE",
"424 40 CURVE SMOOTH"
);
},
{
closed = 1;
nodes = (
"732 -149 OFFCURVE",
"776 -138 OFFCURVE",
"807 -122 CURVE",
"807 -106 LINE",
"792 -111 OFFCURVE",
"771 -115 OFFCURVE",
"743 -115 CURVE SMOOTH",
"673 -115 OFFCURVE",
"606 -83 OFFCURVE",
"483 16 CURVE",
"347 16 LINE",
"515 -126 OFFCURVE",
"599 -149 OFFCURVE",
"682 -149 CURVE SMOOTH"
);
}
);
width = 807;
}
);
leftKerningGroup = kern_O2;
rightKerningGroup = kern_O1;
unicode = 0051;
},
{
color = 5;
glyphname = R;
layers = (
{
anchors = (
{
name = bottom;
position = "{367, 0}";
},
{
name = top;
position = "{317, 710}";
}
);
layerId = m01;
paths = (
{
closed = 1;
nodes = (
"310 0 LINE",
"310 16 LINE",
"235 57 LINE",
"235 660 LINE",
"65 660 LINE",
"65 644 LINE",
"145 604 LINE",
"145 56 LINE",
"65 16 LINE",
"65 0 LINE"
);
},
{
closed = 1;
nodes = (
"549 598 OFFCURVE",
"463 660 OFFCURVE",
"323 660 CURVE SMOOTH",
"182 660 LINE",
"182 605 LINE",
"300 605 LINE SMOOTH",
"394 605 OFFCURVE",
"452 559 OFFCURVE",
"452 484 CURVE SMOOTH",
"452 411 OFFCURVE",
"390 358 OFFCURVE",
"306 358 CURVE SMOOTH",
"190 358 LINE",
"190 303 LINE",
"333 303 LINE",
"333 312 LINE",
"457 324 OFFCURVE",
"549 401 OFFCURVE",
"549 497 CURVE SMOOTH"
);
},
{
closed = 1;
nodes = (
"666 0 LINE",
"666 16 LINE",
"600 52 LINE",
"402 341 LINE",
"304 341 LINE",
"522 0 LINE"
);
}
);
width = 661;
},
{
anchors = (
{
name = bottom;
position = "{367, 0}";
},
{
name = top;
position = "{317, 710}";
}
);
layerId = m002;
paths = (
{
closed = 1;
nodes = (
"310 0 LINE",
"310 16 LINE",
"235 57 LINE",
"235 660 LINE",
"65 660 LINE",
"65 644 LINE",
"145 604 LINE",
"145 56 LINE",
"65 16 LINE",
"65 0 LINE"
);
},
{
closed = 1;
nodes = (
"549 598 OFFCURVE",
"463 660 OFFCURVE",
"323 660 CURVE SMOOTH",
"182 660 LINE",
"182 605 LINE",
"300 605 LINE SMOOTH",
"394 605 OFFCURVE",
"452 559 OFFCURVE",
"452 484 CURVE SMOOTH",
"452 411 OFFCURVE",
"390 358 OFFCURVE",
"306 358 CURVE SMOOTH",
"190 358 LINE",
"190 303 LINE",
"333 303 LINE",
"333 312 LINE",
"457 324 OFFCURVE",
"549 401 OFFCURVE",
"549 497 CURVE SMOOTH"
);
},
{
closed = 1;
nodes = (
"666 0 LINE",
"666 16 LINE",
"600 52 LINE",
"402 341 LINE",
"304 341 LINE",
"522 0 LINE"
);
}
);
width = 661;
}
);
leftKerningGroup = kern_H2;
rightKerningGroup = kern_R1;
unicode = 0052;
},
{
color = 5;
glyphname = S;
layers = (
{
anchors = (
{
name = bottom;
position = "{272, 0}";
},
{
name = top;
position = "{272, 710}";
}
);
layerId = m01;
paths = (
{
closed = 1;
nodes = (
"356 -10 OFFCURVE",
"476 55 OFFCURVE",
"476 180 CURVE SMOOTH",
"476 282 OFFCURVE",
"420 319 OFFCURVE",
"299 378 CURVE SMOOTH",
"211 421 OFFCURVE",
"171 450 OFFCURVE",
"171 518 CURVE SMOOTH",
"171 577 OFFCURVE",
"213 622 OFFCURVE",
"272 622 CURVE SMOOTH",
"320 622 OFFCURVE",
"351 606 OFFCURVE",
"402 566 CURVE",
"384 593 LINE",
"439 468 LINE",
"455 468 LINE",
"445 628 LINE",
"391 655 OFFCURVE",
"342 670 OFFCURVE",
"280 670 CURVE SMOOTH",
"179 670 OFFCURVE",
"81 577 OFFCURVE",
"81 487 CURVE SMOOTH",
"81 395 OFFCURVE",
"134 357 OFFCURVE",
"228 310 CURVE SMOOTH",
"328 260 OFFCURVE",
"390 239 OFFCURVE",
"390 152 CURVE SMOOTH",
"390 81 OFFCURVE",
"343 37 OFFCURVE",
"264 37 CURVE SMOOTH",
"215 37 OFFCURVE",
"168 56 OFFCURVE",
"115 102 CURVE",
"142 56 LINE",
"76 200 LINE",
"60 200 LINE",
"70 36 LINE",
"132 5 OFFCURVE",
"182 -10 OFFCURVE",
"264 -10 CURVE SMOOTH"
);
}
);
width = 531;
},
{
anchors = (
{
name = bottom;
position = "{272, 0}";
},
{
name = top;
position = "{272, 710}";
}
);
layerId = m002;
paths = (
{
closed = 1;
nodes = (
"356 -10 OFFCURVE",
"476 55 OFFCURVE",
"476 180 CURVE SMOOTH",
"476 282 OFFCURVE",
"420 319 OFFCURVE",
"299 378 CURVE SMOOTH",
"211 421 OFFCURVE",
"171 450 OFFCURVE",
"171 518 CURVE SMOOTH",
"171 577 OFFCURVE",
"213 622 OFFCURVE",
"272 622 CURVE SMOOTH",
"320 622 OFFCURVE",
"351 606 OFFCURVE",
"402 566 CURVE",
"384 593 LINE",
"439 468 LINE",
"455 468 LINE",
"445 628 LINE",
"391 655 OFFCURVE",
"342 670 OFFCURVE",
"280 670 CURVE SMOOTH",
"179 670 OFFCURVE",
"81 577 OFFCURVE",
"81 487 CURVE SMOOTH",
"81 395 OFFCURVE",
"134 357 OFFCURVE",
"228 310 CURVE SMOOTH",
"328 260 OFFCURVE",
"390 239 OFFCURVE",
"390 152 CURVE SMOOTH",
"390 81 OFFCURVE",
"343 37 OFFCURVE",
"264 37 CURVE SMOOTH",
"215 37 OFFCURVE",
"168 56 OFFCURVE",
"115 102 CURVE",
"142 56 LINE",
"76 200 LINE",
"60 200 LINE",
"70 36 LINE",
"132 5 OFFCURVE",
"182 -10 OFFCURVE",
"264 -10 CURVE SMOOTH"
);
}
);
width = 531;
}
);
leftKerningGroup = kern_S3;
rightKerningGroup = kern_S3;
unicode = 0053;
},
{
color = 5;
glyphname = T;
layers = (
{
anchors = (
{
name = bottom;
position = "{337, 0}";
},
{
name = top;
position = "{337, 710}";
}
);
layerId = m01;
paths = (
{
closed = 1;
nodes = (
"482 0 LINE",
"482 16 LINE",
"382 56 LINE",
"382 605 LINE",
"545 605 LINE",
"613 458 LINE",
"629 458 LINE",
"629 660 LINE",
"45 660 LINE",
"45 458 LINE",
"61 458 LINE",
"129 605 LINE",
"292 605 LINE",
"292 56 LINE",
"192 16 LINE",
"192 0 LINE"
);
}
);
width = 674;
},
{
anchors = (
{
name = bottom;
position = "{337, 0}";
},
{
name = top;
position = "{337, 710}";
}
);
layerId = m002;
paths = (
{
closed = 1;
nodes = (
"482 0 LINE",
"482 16 LINE",
"382 56 LINE",
"382 605 LINE",
"545 605 LINE",
"613 458 LINE",
"629 458 LINE",
"629 660 LINE",
"45 660 LINE",
"45 458 LINE",
"61 458 LINE",
"129 605 LINE",
"292 605 LINE",
"292 56 LINE",
"192 16 LINE",
"192 0 LINE"
);
}
);
width = 674;
}
);
leftKerningGroup = kern_T2;
rightKerningGroup = kern_T1;
unicode = 0054;
},
{
color = 5;
glyphname = U;
layers = (
{
anchors = (
{
name = bottom;
position = "{402, 0}";
},
{
name = right;
position = "{431, 0}";
},
{
name = top;
position = "{415, 710}";
}
);
layerId = m01;
paths = (
{
closed = 1;
nodes = (
"554 -10 OFFCURVE",
"665 70 OFFCURVE",
"665 256 CURVE SMOOTH",
"665 605 LINE",
"744 644 LINE",
"744 660 LINE",
"495 660 LINE",
"495 644 LINE",
"595 606 LINE",
"595 236 LINE SMOOTH",
"595 101 OFFCURVE",
"519 48 OFFCURVE",
"431 48 CURVE SMOOTH",
"321 48 OFFCURVE",
"235 105 OFFCURVE",
"235 271 CURVE SMOOTH",
"235 604 LINE",
"315 644 LINE",
"315 660 LINE",
"65 660 LINE",
"65 644 LINE",
"145 604 LINE",
"145 256 LINE SMOOTH",
"145 70 OFFCURVE",
"256 -10 OFFCURVE",
"405 -10 CURVE SMOOTH"
);
}
);
width = 809;
},
{
anchors = (
{
name = bottom;
position = "{402, 0}";
},
{
name = right;
position = "{431, 0}";
},
{
name = top;
position = "{415, 710}";
}
);
layerId = m002;
paths = (
{
closed = 1;
nodes = (
"554 -10 OFFCURVE",
"665 70 OFFCURVE",
"665 256 CURVE SMOOTH",
"665 605 LINE",
"744 644 LINE",
"744 660 LINE",
"495 660 LINE",
"495 644 LINE",
"595 606 LINE",
"595 236 LINE SMOOTH",
"595 101 OFFCURVE",
"519 48 OFFCURVE",
"431 48 CURVE SMOOTH",
"321 48 OFFCURVE",
"235 105 OFFCURVE",
"235 271 CURVE SMOOTH",
"235 604 LINE",
"315 644 LINE",
"315 660 LINE",
"65 660 LINE",
"65 644 LINE",
"145 604 LINE",
"145 256 LINE SMOOTH",
"145 70 OFFCURVE",
"256 -10 OFFCURVE",
"405 -10 CURVE SMOOTH"
);
}
);
width = 809;
}
);
leftKerningGroup = kern_U2;
rightKerningGroup = kern_U1;
unicode = 0055;
},
{
color = 5;
glyphname = V;
layers = (
{
layerId = m01;
paths = (
{
closed = 1;
nodes = (
"391 -5 LINE",
"656 632 LINE",
"632 605 LINE",
"705 644 LINE",
"705 660 LINE",
"495 660 LINE",
"495 644 LINE",
"577 610 LINE",
"577 606 LINE",
"373 99 LINE",
"411 144 LINE",
"366 144 LINE",
"404 99 LINE",
"199 602 LINE",
"199 607 LINE",
"285 644 LINE",
"285 660 LINE",
"35 660 LINE",
"35 644 LINE",
"144 588 LINE",
"94 632 LINE",
"356 -5 LINE"
);
}
);
width = 740;
},
{
layerId = m002;
paths = (
{
closed = 1;
nodes = (
"391 -5 LINE",
"656 632 LINE",
"632 605 LINE",
"705 644 LINE",
"705 660 LINE",
"495 660 LINE",
"495 644 LINE",
"577 610 LINE",
"577 606 LINE",
"373 99 LINE",
"411 144 LINE",
"366 144 LINE",
"404 99 LINE",
"199 602 LINE",
"199 607 LINE",
"285 644 LINE",
"285 660 LINE",
"35 660 LINE",
"35 644 LINE",
"144 588 LINE",
"94 632 LINE",
"356 -5 LINE"
);
}
);
width = 740;
}
);
leftKerningGroup = kern_V3;
rightKerningGroup = kern_V3;
unicode = 0056;
},
{
color = 5;
glyphname = W;
layers = (
{
anchors = (
{
name = top;
position = "{506, 710}";
}
);
layerId = m01;
paths = (
{
closed = 1;
nodes = (
"309 -5 LINE",
"512 543 LINE",
"471 485 LINE",
"516 485 LINE",
"475 543 LINE",
"678 -5 LINE",
"713 -5 LINE",
"906 632 LINE",
"876 595 LINE",
"966 644 LINE",
"966 660 LINE",
"745 660 LINE",
"745 644 LINE",
"854 595 LINE",
"838 632 LINE",
"694 129 LINE",
"726 174 LINE",
"681 174 LINE",
"717 129 LINE",
"524 665 LINE",
"487 665 LINE",
"296 122 LINE",
"333 174 LINE",
"288 174 LINE",
"324 122 LINE",
"177 632 LINE",
"150 592 LINE",
"269 644 LINE",
"269 660 LINE",
"15 660 LINE",
"15 644 LINE",
"124 592 LINE",
"83 632 LINE",
"274 -5 LINE"
);
}
);
width = 981;
},
{
anchors = (
{
name = top;
position = "{506, 710}";
}
);
layerId = m002;
paths = (
{
closed = 1;
nodes = (
"309 -5 LINE",
"512 543 LINE",
"471 485 LINE",
"516 485 LINE",
"475 543 LINE",
"678 -5 LINE",
"713 -5 LINE",
"906 632 LINE",
"876 595 LINE",
"966 644 LINE",
"966 660 LINE",
"745 660 LINE",
"745 644 LINE",
"854 595 LINE",
"838 632 LINE",
"694 129 LINE",
"726 174 LINE",
"681 174 LINE",
"717 129 LINE",
"524 665 LINE",
"487 665 LINE",
"296 122 LINE",
"333 174 LINE",
"288 174 LINE",
"324 122 LINE",
"177 632 LINE",
"150 592 LINE",
"269 644 LINE",
"269 660 LINE",
"15 660 LINE",
"15 644 LINE",
"124 592 LINE",
"83 632 LINE",
"274 -5 LINE"
);
}
);
width = 981;
}
);
leftKerningGroup = kern_W3;
rightKerningGroup = kern_W3;
unicode = 0057;
},
{
color = 5;
glyphname = X;
layers = (
{
layerId = m01;
paths = (
{
closed = 1;
nodes = (
"705 0 LINE",
"705 16 LINE",
"596 76 LINE",
"664 16 LINE",
"220 602 LINE",
"220 607 LINE",
"300 644 LINE",
"300 660 LINE",
"50 660 LINE",
"50 644 LINE",
"159 584 LINE",
"96 632 LINE",
"523 56 LINE",
"523 52 LINE",
"450 16 LINE",
"450 0 LINE"
);
},
{
closed = 1;
nodes = (
"260 0 LINE",
"260 16 LINE",
"179 52 LINE",
"179 56 LINE",
"374 313 LINE",
"338 352 LINE",
"85 24 LINE",
"136 68 LINE",
"35 16 LINE",
"35 0 LINE"
);
},
{
closed = 1;
nodes = (
"470 660 LINE",
"470 644 LINE",
"546 607 LINE",
"546 603 LINE",
"366 373 LINE",
"399 327 LINE",
"636 632 LINE",
"599 597 LINE",
"680 644 LINE",
"680 660 LINE"
);
}
);
width = 740;
},
{
layerId = m002;
paths = (
{
closed = 1;
nodes = (
"705 0 LINE",
"705 16 LINE",
"596 76 LINE",
"664 16 LINE",
"220 602 LINE",
"220 607 LINE",
"300 644 LINE",
"300 660 LINE",
"50 660 LINE",
"50 644 LINE",
"159 584 LINE",
"96 632 LINE",
"523 56 LINE",
"523 52 LINE",
"450 16 LINE",
"450 0 LINE"
);
},
{
closed = 1;
nodes = (
"260 0 LINE",
"260 16 LINE",
"179 52 LINE",
"179 56 LINE",
"374 313 LINE",
"338 352 LINE",
"85 24 LINE",
"136 68 LINE",
"35 16 LINE",
"35 0 LINE"
);
},
{
closed = 1;
nodes = (
"470 660 LINE",
"470 644 LINE",
"546 607 LINE",
"546 603 LINE",
"366 373 LINE",
"399 327 LINE",
"636 632 LINE",
"599 597 LINE",
"680 644 LINE",
"680 660 LINE"
);
}
);
width = 740;
}
);
leftKerningGroup = kern_X3;
rightKerningGroup = kern_X3;
unicode = 0058;
},
{
color = 5;
glyphname = Y;
layers = (
{
anchors = (
{
name = bottom;
position = "{363, 0}";
},
{
name = top;
position = "{374, 710}";
}
);
layerId = m01;
paths = (
{
closed = 1;
nodes = (
"498 0 LINE",
"498 16 LINE",
"408 56 LINE",
"408 332 LINE",
"378 266 LINE",
"634 632 LINE",
"598 600 LINE",
"683 644 LINE",
"683 660 LINE",
"471 660 LINE",
"471 644 LINE",
"544 608 LINE",
"544 604 LINE",
"372 346 LINE",
"395 346 LINE",
"204 605 LINE",
"204 609 LINE",
"277 644 LINE",
"277 660 LINE",
"35 660 LINE",
"35 644 LINE",
"130 592 LINE",
"80 632 LINE",
"349 266 LINE",
"318 332 LINE",
"318 56 LINE",
"228 16 LINE",
"228 0 LINE"
);
}
);
width = 718;
},
{
anchors = (
{
name = bottom;
position = "{363, 0}";
},
{
name = top;
position = "{374, 710}";
}
);
layerId = m002;
paths = (
{
closed = 1;
nodes = (
"498 0 LINE",
"498 16 LINE",
"408 56 LINE",
"408 332 LINE",
"378 266 LINE",
"634 632 LINE",
"598 600 LINE",
"683 644 LINE",
"683 660 LINE",
"471 660 LINE",
"471 644 LINE",
"544 608 LINE",
"544 604 LINE",
"372 346 LINE",
"395 346 LINE",
"204 605 LINE",
"204 609 LINE",
"277 644 LINE",
"277 660 LINE",
"35 660 LINE",
"35 644 LINE",
"130 592 LINE",
"80 632 LINE",
"349 266 LINE",
"318 332 LINE",
"318 56 LINE",
"228 16 LINE",
"228 0 LINE"
);
}
);
width = 718;
}
);
leftKerningGroup = kern_Y3;
rightKerningGroup = kern_Y3;
unicode = 0059;
},
{
color = 5;
glyphname = Z;
layers = (
{
anchors = (
{
name = bottom;
position = "{333, 0}";
},
{
name = top;
position = "{333, 710}";
}
);
layerId = m01;
paths = (
{
closed = 1;
nodes = (
"556 0 LINE",
"556 192 LINE",
"540 192 LINE",
"478 55 LINE",
"182 55 LINE",
"182 19 LINE",
"545 635 LINE",
"545 660 LINE",
"102 660 LINE",
"102 478 LINE",
"118 478 LINE",
"180 605 LINE",
"452 605 LINE",
"452 641 LINE",
"90 25 LINE",
"90 0 LINE"
);
}
);
width = 646;
},
{
anchors = (
{
name = bottom;
position = "{333, 0}";
},
{
name = top;
position = "{333, 710}";
}
);
layerId = m002;
paths = (
{
closed = 1;
nodes = (
"556 0 LINE",
"556 192 LINE",
"540 192 LINE",
"478 55 LINE",
"182 55 LINE",
"182 19 LINE",
"545 635 LINE",
"545 660 LINE",
"102 660 LINE",
"102 478 LINE",
"118 478 LINE",
"180 605 LINE",
"452 605 LINE",
"452 641 LINE",
"90 25 LINE",
"90 0 LINE"
);
}
);
width = 646;
}
);
leftKerningGroup = kern_Z3;
rightKerningGroup = kern_Z3;
unicode = 005A;
},
{
color = 5;
glyphname = a;
layers = (
{
anchors = (
{
name = bottom;
position = "{237, 0}";
},
{
name = right;
position = "{402, 0}";
},
{
name = top;
position = "{225, 510}";
}
);
layerId = m01;
paths = (
{
closed = 1;
nodes = (
"212 -10 OFFCURVE",
"266 16 OFFCURVE",
"301 50 CURVE",
"319 50 LINE",
"319 83 LINE",
"269 60 OFFCURVE",
"237 52 OFFCURVE",
"200 52 CURVE SMOOTH",
"152 52 OFFCURVE",
"125 73 OFFCURVE",
"125 114 CURVE SMOOTH",
"125 162 OFFCURVE",
"144 197 OFFCURVE",
"333 229 CURVE",
"333 265 LINE",
"206 235 LINE SMOOTH",
"91 208 OFFCURVE",
"47 159 OFFCURVE",
"47 94 CURVE",
"47 29 OFFCURVE",
"93 -10 OFFCURVE",
"156 -10 CURVE SMOOTH"
);
},
{
closed = 1;
nodes = (
"430 -10 OFFCURVE",
"462 16 OFFCURVE",
"478 45 CURVE",
"478 48 LINE",
"475 50 LINE",
"437 50 LINE SMOOTH",
"407 50 OFFCURVE",
"390 57 OFFCURVE",
"381 67 CURVE",
"381 351 LINE SMOOTH",
"381 435 OFFCURVE",
"308 460 OFFCURVE",
"237 460 CURVE SMOOTH",
"191 460 OFFCURVE",
"150 442 OFFCURVE",
"113 418 CURVE SMOOTH",
"77 395 OFFCURVE",
"60 362 OFFCURVE",
"60 333 CURVE SMOOTH",
"60 309 OFFCURVE",
"66 305 OFFCURVE",
"86 305 CURVE SMOOTH",
"138 305 LINE",
"143 310 LINE",
"143 338 LINE SMOOTH",
"143 384 OFFCURVE",
"160 413 OFFCURVE",
"211 413 CURVE SMOOTH",
"257 413 OFFCURVE",
"301 376 OFFCURVE",
"301 330 CURVE SMOOTH",
"301 71 LINE",
"303 71 LINE",
"309 23 OFFCURVE",
"336 -10 OFFCURVE",
"385 -10 CURVE SMOOTH"
);
}
);
width = 489;
},
{
anchors = (
{
name = bottom;
position = "{237, 0}";
},
{
name = right;
position = "{402, 0}";
},
{
name = top;
position = "{225, 510}";
}
);
layerId = m002;
paths = (
{
closed = 1;
nodes = (
"212 -10 OFFCURVE",
"266 16 OFFCURVE",
"301 50 CURVE",
"319 50 LINE",
"319 83 LINE",
"269 60 OFFCURVE",
"237 52 OFFCURVE",
"200 52 CURVE SMOOTH",
"152 52 OFFCURVE",
"125 73 OFFCURVE",
"125 114 CURVE SMOOTH",
"125 162 OFFCURVE",
"144 197 OFFCURVE",
"333 229 CURVE",
"333 265 LINE",
"206 235 LINE SMOOTH",
"91 208 OFFCURVE",
"47 159 OFFCURVE",
"47 94 CURVE",
"47 29 OFFCURVE",
"93 -10 OFFCURVE",
"156 -10 CURVE SMOOTH"
);
},
{
closed = 1;
nodes = (
"430 -10 OFFCURVE",
"462 16 OFFCURVE",
"478 45 CURVE",
"478 48 LINE",
"475 50 LINE",
"437 50 LINE SMOOTH",
"407 50 OFFCURVE",
"390 57 OFFCURVE",
"381 67 CURVE",
"381 351 LINE SMOOTH",
"381 435 OFFCURVE",
"308 460 OFFCURVE",
"237 460 CURVE SMOOTH",
"191 460 OFFCURVE",
"150 442 OFFCURVE",
"113 418 CURVE SMOOTH",
"77 395 OFFCURVE",
"60 362 OFFCURVE",
"60 333 CURVE SMOOTH",
"60 309 OFFCURVE",
"66 305 OFFCURVE",
"86 305 CURVE SMOOTH",
"138 305 LINE",
"143 310 LINE",
"143 338 LINE SMOOTH",
"143 384 OFFCURVE",
"160 413 OFFCURVE",
"211 413 CURVE SMOOTH",
"257 413 OFFCURVE",
"301 376 OFFCURVE",
"301 330 CURVE SMOOTH",
"301 71 LINE",
"303 71 LINE",
"309 23 OFFCURVE",
"336 -10 OFFCURVE",
"385 -10 CURVE SMOOTH"
);
}
);
width = 489;
}
);
leftKerningGroup = kernLC_a2;
rightKerningGroup = kernLC_a1;
unicode = 0061;
},
{
color = 4;
glyphname = ae;
layers = (
{
anchors = (
{
name = top;
position = "{377, 510}";
}
);
layerId = m01;
paths = (
{
closed = 1;
nodes = (
"593 -10 OFFCURVE",
"656 37 OFFCURVE",
"687 95 CURVE",
"687 105 LINE",
"684 105 LINE",
"634 78 OFFCURVE",
"592 65 OFFCURVE",
"555 65 CURVE SMOOTH",
"424 65 OFFCURVE",
"382 155 OFFCURVE",
"382 251 CURVE SMOOTH",
"382 355 OFFCURVE",
"427 416 OFFCURVE",
"500 416 CURVE SMOOTH",
"559 416 OFFCURVE",
"596 377 OFFCURVE",
"611 284 CURVE",
"629 288 LINE",
"372 288 LINE",
"372 242 LINE",
"681 242 LINE",
"686 247 LINE",
"686 384 OFFCURVE",
"621 460 OFFCURVE",
"516 460 CURVE SMOOTH",
"453 460 OFFCURVE",
"395 427 OFFCURVE",
"355 373 CURVE",
"380 373 LINE",
"369 439 OFFCURVE",
"302 460 OFFCURVE",
"238 460 CURVE SMOOTH",
"192 460 OFFCURVE",
"151 442 OFFCURVE",
"114 418 CURVE SMOOTH",
"78 395 OFFCURVE",
"61 362 OFFCURVE",
"61 333 CURVE SMOOTH",
"61 309 OFFCURVE",
"67 305 OFFCURVE",
"87 305 CURVE SMOOTH",
"139 305 LINE",
"144 310 LINE",
"144 338 LINE SMOOTH",
"144 384 OFFCURVE",
"161 413 OFFCURVE",
"212 413 CURVE SMOOTH",
"258 413 OFFCURVE",
"302 376 OFFCURVE",
"302 330 CURVE SMOOTH",
"302 207 LINE SMOOTH",
"302 74 OFFCURVE",
"385 -10 OFFCURVE",
"512 -10 CURVE SMOOTH"
);
},
{
closed = 1;
nodes = (
"234 -10 OFFCURVE",
"298 26 OFFCURVE",
"336 71 CURVE",
"344 71 LINE",
"344 97 LINE",
"294 70 OFFCURVE",
"253 52 OFFCURVE",
"201 52 CURVE SMOOTH",
"153 52 OFFCURVE",
"126 73 OFFCURVE",
"126 114 CURVE SMOOTH",
"126 162 OFFCURVE",
"145 197 OFFCURVE",
"334 229 CURVE",
"334 265 LINE",
"207 235 LINE SMOOTH",
"92 208 OFFCURVE",
"48 159 OFFCURVE",
"48 94 CURVE",
"48 29 OFFCURVE",
"94 -10 OFFCURVE",
"157 -10 CURVE SMOOTH"
);
}
);
width = 737;
},
{
anchors = (
{
name = top;
position = "{377, 510}";
}
);
layerId = m002;
paths = (
{
closed = 1;
nodes = (
"593 -10 OFFCURVE",
"656 37 OFFCURVE",
"687 95 CURVE",
"687 105 LINE",
"684 105 LINE",
"634 78 OFFCURVE",
"592 65 OFFCURVE",
"555 65 CURVE SMOOTH",
"424 65 OFFCURVE",
"382 155 OFFCURVE",
"382 251 CURVE SMOOTH",
"382 355 OFFCURVE",
"427 416 OFFCURVE",
"500 416 CURVE SMOOTH",
"559 416 OFFCURVE",
"596 377 OFFCURVE",
"611 284 CURVE",
"629 288 LINE",
"372 288 LINE",
"372 242 LINE",
"681 242 LINE",
"686 247 LINE",
"686 384 OFFCURVE",
"621 460 OFFCURVE",
"516 460 CURVE SMOOTH",
"453 460 OFFCURVE",
"395 427 OFFCURVE",
"355 373 CURVE",
"380 373 LINE",
"369 439 OFFCURVE",
"302 460 OFFCURVE",
"238 460 CURVE SMOOTH",
"192 460 OFFCURVE",
"151 442 OFFCURVE",
"114 418 CURVE SMOOTH",
"78 395 OFFCURVE",
"61 362 OFFCURVE",
"61 333 CURVE SMOOTH",
"61 309 OFFCURVE",
"67 305 OFFCURVE",
"87 305 CURVE SMOOTH",
"139 305 LINE",
"144 310 LINE",
"144 338 LINE SMOOTH",
"144 384 OFFCURVE",
"161 413 OFFCURVE",
"212 413 CURVE SMOOTH",
"258 413 OFFCURVE",
"302 376 OFFCURVE",
"302 330 CURVE SMOOTH",
"302 207 LINE SMOOTH",
"302 74 OFFCURVE",
"385 -10 OFFCURVE",
"512 -10 CURVE SMOOTH"
);
},
{
closed = 1;
nodes = (
"234 -10 OFFCURVE",
"298 26 OFFCURVE",
"336 71 CURVE",
"344 71 LINE",
"344 97 LINE",
"294 70 OFFCURVE",
"253 52 OFFCURVE",
"201 52 CURVE SMOOTH",
"153 52 OFFCURVE",
"126 73 OFFCURVE",
"126 114 CURVE SMOOTH",
"126 162 OFFCURVE",
"145 197 OFFCURVE",
"334 229 CURVE",
"334 265 LINE",
"207 235 LINE SMOOTH",
"92 208 OFFCURVE",
"48 159 OFFCURVE",
"48 94 CURVE",
"48 29 OFFCURVE",
"94 -10 OFFCURVE",
"157 -10 CURVE SMOOTH"
);
}
);
width = 737;
}
);
leftKerningGroup = kernLC_a2;
rightKerningGroup = kernLC_e1;
unicode = 00E6;
},
{
color = 5;
glyphname = b;
layers = (
{
layerId = m01;
paths = (
{
closed = 1;
nodes = (
"109 -10 LINE",
"183 65 LINE",
"183 750 LINE",
"177 750 LINE",
"43 695 LINE",
"43 688 LINE",
"103 636 LINE",
"103 -10 LINE"
);
},
{
closed = 1;
nodes = (
"409 -10 OFFCURVE",
"511 83 OFFCURVE",
"511 247 CURVE SMOOTH",
"511 379 OFFCURVE",
"438 460 OFFCURVE",
"337 460 CURVE SMOOTH",
"283 460 OFFCURVE",
"238 441 OFFCURVE",
"187 398 CURVE",
"173 398 LINE",
"173 354 LINE",
"207 379 OFFCURVE",
"246 391 OFFCURVE",
"282 391 CURVE SMOOTH",
"364 391 OFFCURVE",
"431 340 OFFCURVE",
"431 224 CURVE SMOOTH",
"431 90 OFFCURVE",
"372 38 OFFCURVE",
"303 38 CURVE SMOOTH",
"252 38 OFFCURVE",
"214 51 OFFCURVE",
"173 88 CURVE",
"123 20 LINE",
"166 3 OFFCURVE",
"217 -10 OFFCURVE",
"277 -10 CURVE SMOOTH"
);
}
);
width = 560;
},
{
layerId = m002;
paths = (
{
closed = 1;
nodes = (
"109 -10 LINE",
"183 65 LINE",
"183 750 LINE",
"177 750 LINE",
"43 695 LINE",
"43 688 LINE",
"103 636 LINE",
"103 -10 LINE"
);
},
{
closed = 1;
nodes = (
"409 -10 OFFCURVE",
"511 83 OFFCURVE",
"511 247 CURVE SMOOTH",
"511 379 OFFCURVE",
"438 460 OFFCURVE",
"337 460 CURVE SMOOTH",
"283 460 OFFCURVE",
"238 441 OFFCURVE",
"187 398 CURVE",
"173 398 LINE",
"173 354 LINE",
"207 379 OFFCURVE",
"246 391 OFFCURVE",
"282 391 CURVE SMOOTH",
"364 391 OFFCURVE",
"431 340 OFFCURVE",
"431 224 CURVE SMOOTH",
"431 90 OFFCURVE",
"372 38 OFFCURVE",
"303 38 CURVE SMOOTH",
"252 38 OFFCURVE",
"214 51 OFFCURVE",
"173 88 CURVE",
"123 20 LINE",
"166 3 OFFCURVE",
"217 -10 OFFCURVE",
"277 -10 CURVE SMOOTH"
);
}
);
width = 560;
}
);
leftKerningGroup = kern_b2;
rightKerningGroup = kernLC_o1;
unicode = 0062;
},
{
color = 5;
glyphname = c;
layers = (
{
anchors = (
{
name = bottom;
position = "{260, 0}";
},
{
name = top;
position = "{264, 510}";
}
);
layerId = m01;
paths = (
{
closed = 1;
nodes = (
"340 -10 OFFCURVE",
"403 37 OFFCURVE",
"434 95 CURVE",
"434 105 LINE",
"431 105 LINE",
"381 78 OFFCURVE",
"339 65 OFFCURVE",
"302 65 CURVE SMOOTH",
"171 65 OFFCURVE",
"129 155 OFFCURVE",
"129 251 CURVE SMOOTH",
"129 355 OFFCURVE",
"174 416 OFFCURVE",
"247 416 CURVE SMOOTH",
"291 416 OFFCURVE",
"320 398 OFFCURVE",
"340 371 CURVE SMOOTH",
"374 325 LINE",
"381 325 LINE",
"419 357 LINE SMOOTH",
"429 365 OFFCURVE",
"432 371 OFFCURVE",
"432 381 CURVE SMOOTH",
"432 389 OFFCURVE",
"427 398 OFFCURVE",
"416 411 CURVE SMOOTH",
"390 440 OFFCURVE",
"334 460 OFFCURVE",
"280 460 CURVE SMOOTH",
"150 460 OFFCURVE",
"50 354 OFFCURVE",
"50 205 CURVE SMOOTH",
"50 75 OFFCURVE",
"130 -10 OFFCURVE",
"259 -10 CURVE SMOOTH"
);
}
);
width = 479;
},
{
anchors = (
{
name = bottom;
position = "{260, 0}";
},
{
name = top;
position = "{264, 510}";
}
);
layerId = m002;
paths = (
{
closed = 1;
nodes = (
"340 -10 OFFCURVE",
"403 37 OFFCURVE",
"434 95 CURVE",
"434 105 LINE",
"431 105 LINE",
"381 78 OFFCURVE",
"339 65 OFFCURVE",
"302 65 CURVE SMOOTH",
"171 65 OFFCURVE",
"129 155 OFFCURVE",
"129 251 CURVE SMOOTH",
"129 355 OFFCURVE",
"174 416 OFFCURVE",
"247 416 CURVE SMOOTH",
"291 416 OFFCURVE",
"320 398 OFFCURVE",
"340 371 CURVE SMOOTH",
"374 325 LINE",
"381 325 LINE",
"419 357 LINE SMOOTH",
"429 365 OFFCURVE",
"432 371 OFFCURVE",
"432 381 CURVE SMOOTH",
"432 389 OFFCURVE",
"427 398 OFFCURVE",
"416 411 CURVE SMOOTH",
"390 440 OFFCURVE",
"334 460 OFFCURVE",
"280 460 CURVE SMOOTH",
"150 460 OFFCURVE",
"50 354 OFFCURVE",
"50 205 CURVE SMOOTH",
"50 75 OFFCURVE",
"130 -10 OFFCURVE",
"259 -10 CURVE SMOOTH"
);
}
);
width = 479;
}
);
leftKerningGroup = kernLC_o2;
rightKerningGroup = kernLC_c1;
unicode = 0063;
},
{
color = 4;
glyphname = ccedilla;
layers = (
{
layerId = m01;
paths = (
{
closed = 1;
nodes = (
"340 -10 OFFCURVE",
"403 37 OFFCURVE",
"434 95 CURVE",
"434 105 LINE",
"431 105 LINE",
"381 78 OFFCURVE",
"339 65 OFFCURVE",
"302 65 CURVE SMOOTH",
"171 65 OFFCURVE",
"129 155 OFFCURVE",
"129 251 CURVE SMOOTH",
"129 355 OFFCURVE",
"174 416 OFFCURVE",
"247 416 CURVE SMOOTH",
"291 416 OFFCURVE",
"320 398 OFFCURVE",
"340 371 CURVE SMOOTH",
"374 325 LINE",
"381 325 LINE",
"419 357 LINE SMOOTH",
"429 365 OFFCURVE",
"432 371 OFFCURVE",
"432 381 CURVE SMOOTH",
"432 389 OFFCURVE",
"427 398 OFFCURVE",
"416 411 CURVE SMOOTH",
"390 440 OFFCURVE",
"334 460 OFFCURVE",
"280 460 CURVE SMOOTH",
"150 460 OFFCURVE",
"50 354 OFFCURVE",
"50 205 CURVE SMOOTH",
"50 75 OFFCURVE",
"130 -10 OFFCURVE",
"259 -10 CURVE SMOOTH"
);
},
{
closed = 1;
nodes = (
"216 -210 OFFCURVE",
"198 -206 OFFCURVE",
"180 -198 CURVE",
"177 -198 LINE",
"177 -210 LINE",
"195 -231 OFFCURVE",
"223 -240 OFFCURVE",
"260 -240 CURVE",
"323 -240 OFFCURVE",
"357 -203 OFFCURVE",
"357 -155 CURVE SMOOTH",
"357 -98 OFFCURVE",
"325 -75 OFFCURVE",
"234 -49 CURVE",
"247 -69 LINE",
"288 20 LINE",
"253 20 LINE",
"196 -103 LINE",
"275 -128 OFFCURVE",
"297 -142 OFFCURVE",
"297 -171 CURVE SMOOTH",
"297 -192 OFFCURVE",
"283 -210 OFFCURVE",
"243 -210 CURVE SMOOTH"
);
}
);
width = 479;
},
{
layerId = m002;
paths = (
{
closed = 1;
nodes = (
"340 -10 OFFCURVE",
"403 37 OFFCURVE",
"434 95 CURVE",
"434 105 LINE",
"431 105 LINE",
"381 78 OFFCURVE",
"339 65 OFFCURVE",
"302 65 CURVE SMOOTH",
"171 65 OFFCURVE",
"129 155 OFFCURVE",
"129 251 CURVE SMOOTH",
"129 355 OFFCURVE",
"174 416 OFFCURVE",
"247 416 CURVE SMOOTH",
"291 416 OFFCURVE",
"320 398 OFFCURVE",
"340 371 CURVE SMOOTH",
"374 325 LINE",
"381 325 LINE",
"419 357 LINE SMOOTH",
"429 365 OFFCURVE",
"432 371 OFFCURVE",
"432 381 CURVE SMOOTH",
"432 389 OFFCURVE",
"427 398 OFFCURVE",
"416 411 CURVE SMOOTH",
"390 440 OFFCURVE",
"334 460 OFFCURVE",
"280 460 CURVE SMOOTH",
"150 460 OFFCURVE",
"50 354 OFFCURVE",
"50 205 CURVE SMOOTH",
"50 75 OFFCURVE",
"130 -10 OFFCURVE",
"259 -10 CURVE SMOOTH"
);
},
{
closed = 1;
nodes = (
"216 -210 OFFCURVE",
"198 -206 OFFCURVE",
"180 -198 CURVE",
"177 -198 LINE",
"177 -210 LINE",
"195 -231 OFFCURVE",
"223 -240 OFFCURVE",
"260 -240 CURVE",
"323 -240 OFFCURVE",
"357 -203 OFFCURVE",
"357 -155 CURVE SMOOTH",
"357 -98 OFFCURVE",
"325 -75 OFFCURVE",
"234 -49 CURVE",
"247 -69 LINE",
"288 20 LINE",
"253 20 LINE",
"196 -103 LINE",
"275 -128 OFFCURVE",
"297 -142 OFFCURVE",
"297 -171 CURVE SMOOTH",
"297 -192 OFFCURVE",
"283 -210 OFFCURVE",
"243 -210 CURVE SMOOTH"
);
}
);
width = 479;
}
);
leftKerningGroup = kernLC_o2;
rightKerningGroup = kernLC_c1;
unicode = 00E7;
},
{
color = 5;
glyphname = d;
layers = (
{
anchors = (
{
name = bottom;
position = "{271, 0}";
},
{
name = right;
position = "{577, 740}";
}
);
layerId = m01;
paths = (
{
closed = 1;
nodes = (
"272 -10 OFFCURVE",
"316 8 OFFCURVE",
"367 51 CURVE",
"382 51 LINE",
"382 96 LINE",
"348 71 OFFCURVE",
"309 59 OFFCURVE",
"273 59 CURVE SMOOTH",
"191 59 OFFCURVE",
"124 107 OFFCURVE",
"124 217 CURVE SMOOTH",
"124 357 OFFCURVE",
"192 411 OFFCURVE",
"272 411 CURVE SMOOTH",
"319 411 OFFCURVE",
"350 390 OFFCURVE",
"392 352 CURVE",
"432 430 LINE",
"393 447 OFFCURVE",
"358 460 OFFCURVE",
"285 460 CURVE SMOOTH",
"155 460 OFFCURVE",
"44 364 OFFCURVE",
"44 194 CURVE SMOOTH",
"44 68 OFFCURVE",
"117 -10 OFFCURVE",
"218 -10 CURVE SMOOTH"
);
},
{
closed = 1;
nodes = (
"523 0 LINE",
"523 16 LINE",
"452 45 LINE",
"452 750 LINE",
"446 750 LINE",
"307 695 LINE",
"307 688 LINE",
"372 636 LINE",
"372 60 LINE",
"382 0 LINE"
);
}
);
width = 559;
},
{
anchors = (
{
name = bottom;
position = "{271, 0}";
},
{
name = right;
position = "{577, 740}";
}
);
layerId = m002;
paths = (
{
closed = 1;
nodes = (
"272 -10 OFFCURVE",
"316 8 OFFCURVE",
"367 51 CURVE",
"382 51 LINE",
"382 96 LINE",
"348 71 OFFCURVE",
"309 59 OFFCURVE",
"273 59 CURVE SMOOTH",
"191 59 OFFCURVE",
"124 107 OFFCURVE",
"124 217 CURVE SMOOTH",
"124 357 OFFCURVE",
"192 411 OFFCURVE",
"272 411 CURVE SMOOTH",
"319 411 OFFCURVE",
"350 390 OFFCURVE",
"392 352 CURVE",
"432 430 LINE",
"393 447 OFFCURVE",
"358 460 OFFCURVE",
"285 460 CURVE SMOOTH",
"155 460 OFFCURVE",
"44 364 OFFCURVE",
"44 194 CURVE SMOOTH",
"44 68 OFFCURVE",
"117 -10 OFFCURVE",
"218 -10 CURVE SMOOTH"
);
},
{
closed = 1;
nodes = (
"523 0 LINE",
"523 16 LINE",
"452 45 LINE",
"452 750 LINE",
"446 750 LINE",
"307 695 LINE",
"307 688 LINE",
"372 636 LINE",
"372 60 LINE",
"382 0 LINE"
);
}
);
width = 559;
}
);
leftKerningGroup = kernLC_o2;
rightKerningGroup = kernLC_l1;
unicode = 0064;
},
{
color = 4;
glyphname = eth;
layers = (
{
layerId = m01;
paths = (
{
closed = 1;
nodes = (
"405 -10 OFFCURVE",
"495 103 OFFCURVE",
"495 259 CURVE SMOOTH",
"495 490 OFFCURVE",
"348 676 OFFCURVE",
"112 749 CURVE",
"112 716 LINE",
"297 651 OFFCURVE",
"402 481 OFFCURVE",
"402 264 CURVE SMOOTH",
"402 102 OFFCURVE",
"346 33 OFFCURVE",
"280 33 CURVE SMOOTH",
"182 33 OFFCURVE",
"140 141 OFFCURVE",
"140 226 CURVE SMOOTH",
"140 368 OFFCURVE",
"203 411 OFFCURVE",
"276 411 CURVE SMOOTH",
"327 411 OFFCURVE",
"365 389 OFFCURVE",
"405 348 CURVE",
"436 429 LINE",
"397 446 OFFCURVE",
"362 460 OFFCURVE",
"289 460 CURVE SMOOTH",
"160 460 OFFCURVE",
"50 378 OFFCURVE",
"50 215 CURVE SMOOTH",
"50 91 OFFCURVE",
"139 -10 OFFCURVE",
"270 -10 CURVE SMOOTH"
);
},
{
closed = 1;
nodes = (
"207 523 LINE",
"429 741 LINE",
"360 741 LINE",
"138 523 LINE"
);
}
);
width = 545;
},
{
layerId = m002;
paths = (
{
closed = 1;
nodes = (
"405 -10 OFFCURVE",
"495 103 OFFCURVE",
"495 259 CURVE SMOOTH",
"495 490 OFFCURVE",
"348 676 OFFCURVE",
"112 749 CURVE",
"112 716 LINE",
"297 651 OFFCURVE",
"402 481 OFFCURVE",
"402 264 CURVE SMOOTH",
"402 102 OFFCURVE",
"346 33 OFFCURVE",
"280 33 CURVE SMOOTH",
"182 33 OFFCURVE",
"140 141 OFFCURVE",
"140 226 CURVE SMOOTH",
"140 368 OFFCURVE",
"203 411 OFFCURVE",
"276 411 CURVE SMOOTH",
"327 411 OFFCURVE",
"365 389 OFFCURVE",
"405 348 CURVE",
"436 429 LINE",
"397 446 OFFCURVE",
"362 460 OFFCURVE",
"289 460 CURVE SMOOTH",
"160 460 OFFCURVE",
"50 378 OFFCURVE",
"50 215 CURVE SMOOTH",
"50 91 OFFCURVE",
"139 -10 OFFCURVE",
"270 -10 CURVE SMOOTH"
);
},
{
closed = 1;
nodes = (
"207 523 LINE",
"429 741 LINE",
"360 741 LINE",
"138 523 LINE"
);
}
);
width = 545;
}
);
leftKerningGroup = kernLC_o2;
rightKerningGroup = kernLC_eth3;
unicode = 00F0;
},
{
color = 5;
glyphname = e;
layers = (
{
anchors = (
{
name = bottom;
position = "{264, 0}";
},
{
name = right;
position = "{358, 0}";
},
{
name = top;
position = "{260, 510}";
}
);
layerId = m01;
paths = (
{
closed = 1;
nodes = (
"340 -10 OFFCURVE",
"403 37 OFFCURVE",
"434 95 CURVE",
"434 105 LINE",
"431 105 LINE",
"381 78 OFFCURVE",
"339 65 OFFCURVE",
"302 65 CURVE SMOOTH",
"171 65 OFFCURVE",
"129 155 OFFCURVE",
"129 251 CURVE SMOOTH",
"129 355 OFFCURVE",
"174 416 OFFCURVE",
"247 416 CURVE SMOOTH",
"306 416 OFFCURVE",
"343 377 OFFCURVE",
"358 284 CURVE",
"376 288 LINE",
"119 288 LINE",
"119 242 LINE",
"428 242 LINE",
"433 247 LINE",
"433 384 OFFCURVE",
"368 460 OFFCURVE",
"263 460 CURVE SMOOTH",
"150 460 OFFCURVE",
"50 354 OFFCURVE",
"50 205 CURVE SMOOTH",
"50 75 OFFCURVE",
"130 -10 OFFCURVE",
"259 -10 CURVE SMOOTH"
);
}
);
width = 484;
},
{
anchors = (
{
name = bottom;
position = "{264, 0}";
},
{
name = right;
position = "{358, 0}";
},
{
name = top;
position = "{260, 510}";
}
);
layerId = m002;
paths = (
{
closed = 1;
nodes = (
"340 -10 OFFCURVE",
"403 37 OFFCURVE",
"434 95 CURVE",
"434 105 LINE",
"431 105 LINE",
"381 78 OFFCURVE",
"339 65 OFFCURVE",
"302 65 CURVE SMOOTH",
"171 65 OFFCURVE",
"129 155 OFFCURVE",
"129 251 CURVE SMOOTH",
"129 355 OFFCURVE",
"174 416 OFFCURVE",
"247 416 CURVE SMOOTH",
"306 416 OFFCURVE",
"343 377 OFFCURVE",
"358 284 CURVE",
"376 288 LINE",
"119 288 LINE",
"119 242 LINE",
"428 242 LINE",
"433 247 LINE",
"433 384 OFFCURVE",
"368 460 OFFCURVE",
"263 460 CURVE SMOOTH",
"150 460 OFFCURVE",
"50 354 OFFCURVE",
"50 205 CURVE SMOOTH",
"50 75 OFFCURVE",
"130 -10 OFFCURVE",
"259 -10 CURVE SMOOTH"
);
}
);
width = 484;
}
);
leftKerningGroup = kernLC_o2;
rightKerningGroup = kernLC_e1;
unicode = 0065;
},
{
color = 5;
glyphname = f;
layers = (
{
layerId = m01;
paths = (
{
closed = 1;
nodes = (
"268 0 LINE",
"268 16 LINE",
"197 46 LINE",
"197 530 LINE SMOOTH",
"197 622 OFFCURVE",
"216 668 OFFCURVE",
"289 668 CURVE SMOOTH",
"315 668 OFFCURVE",
"334 665 OFFCURVE",
"354 657 CURVE SMOOTH",
"381 646 LINE",
"388 646 LINE",
"408 695 LINE SMOOTH",
"411 702 OFFCURVE",
"412 708 OFFCURVE",
"412 713 CURVE SMOOTH",
"412 725 OFFCURVE",
"402 732 OFFCURVE",
"382 741 CURVE SMOOTH",
"373 745 OFFCURVE",
"358 750 OFFCURVE",
"346 750 CURVE SMOOTH",
"204 750 OFFCURVE",
"117 555 OFFCURVE",
"117 490 CURVE SMOOTH",
"117 48 LINE",
"54 16 LINE",
"54 0 LINE"
);
},
{
closed = 1;
nodes = (
"329 403 LINE",
"329 450 LINE",
"39 450 LINE",
"39 403 LINE"
);
}
);
width = 342;
},
{
layerId = m002;
paths = (
{
closed = 1;
nodes = (
"268 0 LINE",
"268 16 LINE",
"197 46 LINE",
"197 530 LINE SMOOTH",
"197 622 OFFCURVE",
"216 668 OFFCURVE",
"289 668 CURVE SMOOTH",
"315 668 OFFCURVE",
"334 665 OFFCURVE",
"354 657 CURVE SMOOTH",
"381 646 LINE",
"388 646 LINE",
"408 695 LINE SMOOTH",
"411 702 OFFCURVE",
"412 708 OFFCURVE",
"412 713 CURVE SMOOTH",
"412 725 OFFCURVE",
"402 732 OFFCURVE",
"382 741 CURVE SMOOTH",
"373 745 OFFCURVE",
"358 750 OFFCURVE",
"346 750 CURVE SMOOTH",
"204 750 OFFCURVE",
"117 555 OFFCURVE",
"117 490 CURVE SMOOTH",
"117 48 LINE",
"54 16 LINE",
"54 0 LINE"
);
},
{
closed = 1;
nodes = (
"329 403 LINE",
"329 450 LINE",
"39 450 LINE",
"39 403 LINE"
);
}
);
width = 342;
}
);
leftKerningGroup = kernLC_f2;
rightKerningGroup = kernLC_f1;
unicode = 0066;
},
{
color = 5;
glyphname = g;
layers = (
{
anchors = (
{
name = top;
position = "{263, 510}";
}
);
layerId = m01;
paths = (
{
closed = 1;
nodes = (
"360 142 OFFCURVE",
"436 210 OFFCURVE",
"436 301 CURVE SMOOTH",
"436 346 OFFCURVE",
"412 394 OFFCURVE",
"380 414 CURVE",
"351 439 LINE",
"328 451 OFFCURVE",
"288 460 OFFCURVE",
"258 460 CURVE SMOOTH",
"156 460 OFFCURVE",
"80 391 OFFCURVE",
"80 301 CURVE SMOOTH",
"80 210 OFFCURVE",
"156 142 OFFCURVE",
"258 142 CURVE SMOOTH"
);
},
{
closed = 1;
nodes = (
"206 183 OFFCURVE",
"162 233.802 OFFCURVE",
"162 304 CURVE SMOOTH",
"162 367.472 OFFCURVE",
"194 420 OFFCURVE",
"251 420 CURVE SMOOTH",
"309 420 OFFCURVE",
"354 371.015 OFFCURVE",
"354 298 CURVE SMOOTH",
"354 235.571 OFFCURVE",
"321 183 OFFCURVE",
"268 183 CURVE SMOOTH"
);
},
{
closed = 1;
nodes = (
"496 450 LINE",
"334 441 LINE",
"334 387 LINE",
"387 387 LINE",
"403 402 LINE",
"496 396 LINE"
);
},
{
closed = 1;
nodes = (
"383 -240 OFFCURVE",
"473 -154 OFFCURVE",
"473 -68 CURVE SMOOTH",
"473 16 OFFCURVE",
"428 59 OFFCURVE",
"331 59 CURVE SMOOTH",
"211 59 LINE SMOOTH",
"162 59 OFFCURVE",
"140 74 OFFCURVE",
"140 109 CURVE SMOOTH",
"140 131 OFFCURVE",
"152 151 OFFCURVE",
"185 161 CURVE",
"185 178 LINE",
"150 178 LINE",
"150 167 LINE",
"96 139 LINE",
"78 121 OFFCURVE",
"70 101 OFFCURVE",
"70 75 CURVE SMOOTH",
"70 24 OFFCURVE",
"112 -10 OFFCURVE",
"185 -10 CURVE SMOOTH",
"292 -10 LINE SMOOTH",
"373 -10 OFFCURVE",
"400 -29 OFFCURVE",
"400 -88 CURVE SMOOTH",
"400 -152 OFFCURVE",
"340 -212 OFFCURVE",
"251 -212 CURVE SMOOTH",
"184 -212 OFFCURVE",
"132 -169 OFFCURVE",
"132 -110 CURVE SMOOTH",
"132 -58 OFFCURVE",
"147 -24 OFFCURVE",
"195 -2 CURVE",
"195 5 LINE",
"148 5 LINE",
"148 -11 LINE",
"79 -57 LINE",
"67 -75 OFFCURVE",
"61 -96 OFFCURVE",
"61 -121 CURVE SMOOTH",
"61 -188 OFFCURVE",
"112 -240 OFFCURVE",
"239 -240 CURVE SMOOTH"
);
}
);
width = 546;
},
{
anchors = (
{
name = top;
position = "{263, 510}";
}
);
layerId = m002;
paths = (
{
closed = 1;
nodes = (
"360 142 OFFCURVE",
"436 210 OFFCURVE",
"436 301 CURVE SMOOTH",
"436 346 OFFCURVE",
"412 394 OFFCURVE",
"380 414 CURVE",
"351 439 LINE",
"328 451 OFFCURVE",
"288 460 OFFCURVE",
"258 460 CURVE SMOOTH",
"156 460 OFFCURVE",
"80 391 OFFCURVE",
"80 301 CURVE SMOOTH",
"80 210 OFFCURVE",
"156 142 OFFCURVE",
"258 142 CURVE SMOOTH"
);
},
{
closed = 1;
nodes = (
"206 183 OFFCURVE",
"162 233.802 OFFCURVE",
"162 304 CURVE SMOOTH",
"162 367.472 OFFCURVE",
"194 420 OFFCURVE",
"251 420 CURVE SMOOTH",
"309 420 OFFCURVE",
"354 371.015 OFFCURVE",
"354 298 CURVE SMOOTH",
"354 235.571 OFFCURVE",
"321 183 OFFCURVE",
"268 183 CURVE SMOOTH"
);
},
{
closed = 1;
nodes = (
"496 450 LINE",
"334 441 LINE",
"334 387 LINE",
"387 387 LINE",
"403 402 LINE",
"496 396 LINE"
);
},
{
closed = 1;
nodes = (
"383 -240 OFFCURVE",
"473 -154 OFFCURVE",
"473 -68 CURVE SMOOTH",
"473 16 OFFCURVE",
"428 59 OFFCURVE",
"331 59 CURVE SMOOTH",
"211 59 LINE SMOOTH",
"162 59 OFFCURVE",
"140 74 OFFCURVE",
"140 109 CURVE SMOOTH",
"140 131 OFFCURVE",
"152 151 OFFCURVE",
"185 161 CURVE",
"185 178 LINE",
"150 178 LINE",
"150 167 LINE",
"96 139 LINE",
"78 121 OFFCURVE",
"70 101 OFFCURVE",
"70 75 CURVE SMOOTH",
"70 24 OFFCURVE",
"112 -10 OFFCURVE",
"185 -10 CURVE SMOOTH",
"292 -10 LINE SMOOTH",
"373 -10 OFFCURVE",
"400 -29 OFFCURVE",
"400 -88 CURVE SMOOTH",
"400 -152 OFFCURVE",
"340 -212 OFFCURVE",
"251 -212 CURVE SMOOTH",
"184 -212 OFFCURVE",
"132 -169 OFFCURVE",
"132 -110 CURVE SMOOTH",
"132 -58 OFFCURVE",
"147 -24 OFFCURVE",
"195 -2 CURVE",
"195 5 LINE",
"148 5 LINE",
"148 -11 LINE",
"79 -57 LINE",
"67 -75 OFFCURVE",
"61 -96 OFFCURVE",
"61 -121 CURVE SMOOTH",
"61 -188 OFFCURVE",
"112 -240 OFFCURVE",
"239 -240 CURVE SMOOTH"
);
}
);
width = 546;
}
);
leftKerningGroup = kernLC_g3;
rightKerningGroup = kernLC_g3;
unicode = 0067;
},
{
color = 5;
glyphname = h;
layers = (
{
anchors = (
{
name = bottom;
position = "{296, 0}";
},
{
name = top;
position = "{296, 765}";
}
);
layerId = m01;
paths = (
{
closed = 1;
nodes = (
"262 0 LINE",
"262 16 LINE",
"191 45 LINE",
"191 750 LINE",
"185 750 LINE",
"51 695 LINE",
"51 688 LINE",
"111 636 LINE",
"111 48 LINE",
"48 16 LINE",
"48 0 LINE"
);
},
{
closed = 1;
nodes = (
"544 0 LINE",
"544 16 LINE",
"481 48 LINE",
"481 343 LINE SMOOTH",
"481 420 OFFCURVE",
"425 460 OFFCURVE",
"347 460 CURVE SMOOTH",
"290 460 OFFCURVE",
"246 437 OFFCURVE",
"195 386 CURVE",
"183 386 LINE",
"183 342 LINE",
"205 371 OFFCURVE",
"262 386 OFFCURVE",
"302 386 CURVE SMOOTH",
"360 386 OFFCURVE",
"401 355 OFFCURVE",
"401 296 CURVE SMOOTH",
"401 45 LINE",
"330 16 LINE",
"330 0 LINE"
);
}
);
width = 582;
},
{
anchors = (
{
name = bottom;
position = "{296, 0}";
},
{
name = top;
position = "{296, 765}";
}
);
layerId = m002;
paths = (
{
closed = 1;
nodes = (
"262 0 LINE",
"262 16 LINE",
"191 45 LINE",
"191 750 LINE",
"185 750 LINE",
"51 695 LINE",
"51 688 LINE",
"111 636 LINE",
"111 48 LINE",
"48 16 LINE",
"48 0 LINE"
);
},
{
closed = 1;
nodes = (
"544 0 LINE",
"544 16 LINE",
"481 48 LINE",
"481 343 LINE SMOOTH",
"481 420 OFFCURVE",
"425 460 OFFCURVE",
"347 460 CURVE SMOOTH",
"290 460 OFFCURVE",
"246 437 OFFCURVE",
"195 386 CURVE",
"183 386 LINE",
"183 342 LINE",
"205 371 OFFCURVE",
"262 386 OFFCURVE",
"302 386 CURVE SMOOTH",
"360 386 OFFCURVE",
"401 355 OFFCURVE",
"401 296 CURVE SMOOTH",
"401 45 LINE",
"330 16 LINE",
"330 0 LINE"
);
}
);
width = 582;
}
);
leftKerningGroup = kernLC_l2;
rightKerningGroup = kernLC_n1;
unicode = 0068;
},
{
color = 5;
glyphname = i;
layers = (
{
anchors = (
{
name = bottom;
position = "{157, 0}";
},
{
name = right;
position = "{175, 0}";
},
{
name = top;
position = "{157, 510}";
}
);
layerId = m01;
paths = (
{
closed = 1;
nodes = (
"260 0 LINE",
"260 16 LINE",
"197 48 LINE",
"197 460 LINE",
"191 460 LINE",
"57 405 LINE",
"57 398 LINE",
"117 346 LINE",
"117 48 LINE",
"54 16 LINE",
"54 0 LINE"
);
},
{
closed = 1;
nodes = (
"188 581 OFFCURVE",
"214 607 OFFCURVE",
"214 641 CURVE SMOOTH",
"214 676 OFFCURVE",
"188 701 OFFCURVE",
"154 701 CURVE SMOOTH",
"119 701 OFFCURVE",
"94 676 OFFCURVE",
"94 641 CURVE SMOOTH",
"94 607 OFFCURVE",
"119 581 OFFCURVE",
"154 581 CURVE SMOOTH"
);
}
);
width = 313;
},
{
anchors = (
{
name = bottom;
position = "{157, 0}";
},
{
name = right;
position = "{175, 0}";
},
{
name = top;
position = "{157, 510}";
}
);
layerId = m002;
paths = (
{
closed = 1;
nodes = (
"260 0 LINE",
"260 16 LINE",
"197 48 LINE",
"197 460 LINE",
"191 460 LINE",
"57 405 LINE",
"57 398 LINE",
"117 346 LINE",
"117 48 LINE",
"54 16 LINE",
"54 0 LINE"
);
},
{
closed = 1;
nodes = (
"188 581 OFFCURVE",
"214 607 OFFCURVE",
"214 641 CURVE SMOOTH",
"214 676 OFFCURVE",
"188 701 OFFCURVE",
"154 701 CURVE SMOOTH",
"119 701 OFFCURVE",
"94 676 OFFCURVE",
"94 641 CURVE SMOOTH",
"94 607 OFFCURVE",
"119 581 OFFCURVE",
"154 581 CURVE SMOOTH"
);
}
);
width = 313;
}
);
leftKerningGroup = kernLC_i2;
rightKerningGroup = kernLC_i1;
unicode = 0069;
},
{
color = 4;
glyphname = idotless;
layers = (
{
anchors = (
{
name = bottom;
position = "{157, 0}";
},
{
name = right;
position = "{170, 0}";
},
{
name = top;
position = "{157, 510}";
}
);
layerId = m01;
paths = (
{
closed = 1;
nodes = (
"260 0 LINE",
"260 16 LINE",
"197 48 LINE",
"197 460 LINE",
"191 460 LINE",
"57 405 LINE",
"57 398 LINE",
"117 346 LINE",
"117 48 LINE",
"54 16 LINE",
"54 0 LINE"
);
}
);
width = 313;
},
{
anchors = (
{
name = bottom;
position = "{157, 0}";
},
{
name = right;
position = "{170, 0}";
},
{
name = top;
position = "{157, 510}";
}
);
layerId = m002;
paths = (
{
closed = 1;
nodes = (
"260 0 LINE",
"260 16 LINE",
"197 48 LINE",
"197 460 LINE",
"191 460 LINE",
"57 405 LINE",
"57 398 LINE",
"117 346 LINE",
"117 48 LINE",
"54 16 LINE",
"54 0 LINE"
);
}
);
width = 313;
}
);
leftKerningGroup = kernLC_i2;
rightKerningGroup = kernLC_i1;
unicode = 0131;
},
{
color = 5;
glyphname = j;
layers = (
{
anchors = (
{
name = top;
position = "{157, 510}";
}
);
layerId = m01;
paths = (
{
closed = 1;
nodes = (
"164 -177 OFFCURVE",
"197 -101 OFFCURVE",
"197 0 CURVE SMOOTH",
"197 460 LINE",
"191 460 LINE",
"57 405 LINE",
"57 398 LINE",
"117 346 LINE",
"117 -10 LINE SMOOTH",
"117 -122 OFFCURVE",
"100 -171 OFFCURVE",
"54 -214 CURVE",
"54 -230 LINE"
);
},
{
closed = 1;
nodes = (
"188 581 OFFCURVE",
"214 607 OFFCURVE",
"214 641 CURVE SMOOTH",
"214 676 OFFCURVE",
"188 701 OFFCURVE",
"154 701 CURVE SMOOTH",
"119 701 OFFCURVE",
"94 676 OFFCURVE",
"94 641 CURVE SMOOTH",
"94 607 OFFCURVE",
"119 581 OFFCURVE",
"154 581 CURVE SMOOTH"
);
}
);
width = 314;
},
{
anchors = (
{
name = top;
position = "{157, 510}";
}
);
layerId = m002;
paths = (
{
closed = 1;
nodes = (
"164 -177 OFFCURVE",
"197 -101 OFFCURVE",
"197 0 CURVE SMOOTH",
"197 460 LINE",
"191 460 LINE",
"57 405 LINE",
"57 398 LINE",
"117 346 LINE",
"117 -10 LINE SMOOTH",
"117 -122 OFFCURVE",
"100 -171 OFFCURVE",
"54 -214 CURVE",
"54 -230 LINE"
);
},
{
closed = 1;
nodes = (
"188 581 OFFCURVE",
"214 607 OFFCURVE",
"214 641 CURVE SMOOTH",
"214 676 OFFCURVE",
"188 701 OFFCURVE",
"154 701 CURVE SMOOTH",
"119 701 OFFCURVE",
"94 676 OFFCURVE",
"94 641 CURVE SMOOTH",
"94 607 OFFCURVE",
"119 581 OFFCURVE",
"154 581 CURVE SMOOTH"
);
}
);
width = 314;
}
);
leftKerningGroup = kernLC_j2;
rightKerningGroup = kernLC_i1;
unicode = 006A;
},
{
color = 5;
glyphname = k;
layers = (
{
anchors = (
{
name = bottom;
position = "{295, 0}";
}
);
layerId = m01;
paths = (
{
closed = 1;
nodes = (
"262 0 LINE",
"262 16 LINE",
"191 45 LINE",
"191 750 LINE",
"185 750 LINE",
"51 695 LINE",
"51 688 LINE",
"111 636 LINE",
"111 48 LINE",
"48 16 LINE",
"48 0 LINE"
);
},
{
closed = 1;
nodes = (
"530 0 LINE",
"530 16 LINE",
"466 50 LINE",
"244 294 LINE",
"244 257 LINE",
"429 399 LINE",
"493 434 LINE",
"493 450 LINE",
"303 450 LINE",
"303 434 LINE",
"352 398 LINE",
"352 392 LINE",
"191 255 LINE",
"191 240 LINE",
"360 52 LINE",
"398 0 LINE"
);
}
);
width = 558;
},
{
anchors = (
{
name = bottom;
position = "{295, 0}";
}
);
layerId = m002;
paths = (
{
closed = 1;
nodes = (
"262 0 LINE",
"262 16 LINE",
"191 45 LINE",
"191 750 LINE",
"185 750 LINE",
"51 695 LINE",
"51 688 LINE",
"111 636 LINE",
"111 48 LINE",
"48 16 LINE",
"48 0 LINE"
);
},
{
closed = 1;
nodes = (
"530 0 LINE",
"530 16 LINE",
"466 50 LINE",
"244 294 LINE",
"244 257 LINE",
"429 399 LINE",
"493 434 LINE",
"493 450 LINE",
"303 450 LINE",
"303 434 LINE",
"352 398 LINE",
"352 392 LINE",
"191 255 LINE",
"191 240 LINE",
"360 52 LINE",
"398 0 LINE"
);
}
);
width = 558;
}
);
leftKerningGroup = kernLC_l2;
rightKerningGroup = kernLC_k1;
unicode = 006B;
},
{
color = 5;
glyphname = l;
layers = (
{
anchors = (
{
name = bottom;
position = "{147, 0}";
},
{
name = mid;
position = "{295, 300}";
},
{
name = right;
position = "{313, 740}";
},
{
name = top;
position = "{147, 765}";
}
);
layerId = m01;
paths = (
{
closed = 1;
nodes = (
"250 0 LINE",
"250 16 LINE",
"187 48 LINE",
"187 750 LINE",
"181 750 LINE",
"47 695 LINE",
"47 688 LINE",
"107 636 LINE",
"107 48 LINE",
"44 16 LINE",
"44 0 LINE"
);
}
);
width = 294;
},
{
anchors = (
{
name = bottom;
position = "{147, 0}";
},
{
name = mid;
position = "{295, 300}";
},
{
name = right;
position = "{313, 740}";
},
{
name = top;
position = "{147, 765}";
}
);
layerId = m002;
paths = (
{
closed = 1;
nodes = (
"250 0 LINE",
"250 16 LINE",
"187 48 LINE",
"187 750 LINE",
"181 750 LINE",
"47 695 LINE",
"47 688 LINE",
"107 636 LINE",
"107 48 LINE",
"44 16 LINE",
"44 0 LINE"
);
}
);
width = 294;
}
);
leftKerningGroup = kernLC_l2;
rightKerningGroup = kernLC_l1;
unicode = 006C;
},
{
color = 5;
glyphname = m;
layers = (
{
anchors = (
{
name = bottom;
position = "{431, 0}";
}
);
layerId = m01;
paths = (
{
closed = 1;
nodes = (
"256 0 LINE",
"256 16 LINE",
"191 48 LINE",
"191 380 LINE",
"181 460 LINE",
"175 460 LINE",
"51 405 LINE",
"51 398 LINE",
"111 346 LINE",
"111 48 LINE",
"48 16 LINE",
"48 0 LINE"
);
},
{
closed = 1;
nodes = (
"540 0 LINE",
"540 16 LINE",
"471 48 LINE",
"471 343 LINE",
"471 420 OFFCURVE",
"417 460 OFFCURVE",
"342 460 CURVE SMOOTH",
"287 460 OFFCURVE",
"245 437 OFFCURVE",
"195 386 CURVE",
"183 386 LINE",
"183 342 LINE",
"205 371 OFFCURVE",
"259 386 OFFCURVE",
"297 386 CURVE SMOOTH",
"352 386 OFFCURVE",
"391 355 OFFCURVE",
"391 296 CURVE SMOOTH",
"391 48 LINE",
"324 16 LINE",
"324 0 LINE"
);
},
{
closed = 1;
nodes = (
"822 0 LINE",
"822 16 LINE",
"759 48 LINE",
"759 343 LINE SMOOTH",
"759 420 OFFCURVE",
"705 460 OFFCURVE",
"630 460 CURVE SMOOTH",
"571 460 OFFCURVE",
"527 433 OFFCURVE",
"471 374 CURVE",
"460 374 LINE",
"460 328 LINE",
"484 366 OFFCURVE",
"532 386 OFFCURVE",
"585 386 CURVE SMOOTH",
"640 386 OFFCURVE",
"679 355 OFFCURVE",
"679 296 CURVE SMOOTH",
"679 48 LINE",
"608 16 LINE",
"608 0 LINE"
);
}
);
width = 860;
},
{
anchors = (
{
name = bottom;
position = "{431, 0}";
}
);
layerId = m002;
paths = (
{
closed = 1;
nodes = (
"256 0 LINE",
"256 16 LINE",
"191 48 LINE",
"191 380 LINE",
"181 460 LINE",
"175 460 LINE",
"51 405 LINE",
"51 398 LINE",
"111 346 LINE",
"111 48 LINE",
"48 16 LINE",
"48 0 LINE"
);
},
{
closed = 1;
nodes = (
"540 0 LINE",
"540 16 LINE",
"471 48 LINE",
"471 343 LINE",
"471 420 OFFCURVE",
"417 460 OFFCURVE",
"342 460 CURVE SMOOTH",
"287 460 OFFCURVE",
"245 437 OFFCURVE",
"195 386 CURVE",
"183 386 LINE",
"183 342 LINE",
"205 371 OFFCURVE",
"259 386 OFFCURVE",
"297 386 CURVE SMOOTH",
"352 386 OFFCURVE",
"391 355 OFFCURVE",
"391 296 CURVE SMOOTH",
"391 48 LINE",
"324 16 LINE",
"324 0 LINE"
);
},
{
closed = 1;
nodes = (
"822 0 LINE",
"822 16 LINE",
"759 48 LINE",
"759 343 LINE SMOOTH",
"759 420 OFFCURVE",
"705 460 OFFCURVE",
"630 460 CURVE SMOOTH",
"571 460 OFFCURVE",
"527 433 OFFCURVE",
"471 374 CURVE",
"460 374 LINE",
"460 328 LINE",
"484 366 OFFCURVE",
"532 386 OFFCURVE",
"585 386 CURVE SMOOTH",
"640 386 OFFCURVE",
"679 355 OFFCURVE",
"679 296 CURVE SMOOTH",
"679 48 LINE",
"608 16 LINE",
"608 0 LINE"
);
}
);
width = 860;
}
);
leftKerningGroup = kernLC_n2;
rightKerningGroup = kernLC_n1;
unicode = 006D;
},
{
color = 5;
glyphname = n;
layers = (
{
anchors = (
{
name = bottom;
position = "{296, 0}";
},
{
name = top;
position = "{296, 510}";
}
);
layerId = m01;
paths = (
{
closed = 1;
nodes = (
"262 0 LINE",
"262 16 LINE",
"191 48 LINE",
"191 380 LINE",
"181 460 LINE",
"175 460 LINE",
"51 405 LINE",
"51 398 LINE",
"111 346 LINE",
"111 48 LINE",
"48 16 LINE",
"48 0 LINE"
);
},
{
closed = 1;
nodes = (
"544 0 LINE",
"544 16 LINE",
"481 48 LINE",
"481 343 LINE SMOOTH",
"481 420 OFFCURVE",
"425 460 OFFCURVE",
"347 460 CURVE SMOOTH",
"290 460 OFFCURVE",
"246 437 OFFCURVE",
"195 386 CURVE",
"183 386 LINE",
"183 342 LINE",
"205 371 OFFCURVE",
"262 386 OFFCURVE",
"302 386 CURVE SMOOTH",
"360 386 OFFCURVE",
"401 355 OFFCURVE",
"401 296 CURVE SMOOTH",
"401 48 LINE",
"330 16 LINE",
"330 0 LINE"
);
}
);
width = 582;
},
{
anchors = (
{
name = bottom;
position = "{296, 0}";
},
{
name = top;
position = "{296, 510}";
}
);
layerId = m002;
paths = (
{
closed = 1;
nodes = (
"262 0 LINE",
"262 16 LINE",
"191 48 LINE",
"191 380 LINE",
"181 460 LINE",
"175 460 LINE",
"51 405 LINE",
"51 398 LINE",
"111 346 LINE",
"111 48 LINE",
"48 16 LINE",
"48 0 LINE"
);
},
{
closed = 1;
nodes = (
"544 0 LINE",
"544 16 LINE",
"481 48 LINE",
"481 343 LINE SMOOTH",
"481 420 OFFCURVE",
"425 460 OFFCURVE",
"347 460 CURVE SMOOTH",
"290 460 OFFCURVE",
"246 437 OFFCURVE",
"195 386 CURVE",
"183 386 LINE",
"183 342 LINE",
"205 371 OFFCURVE",
"262 386 OFFCURVE",
"302 386 CURVE SMOOTH",
"360 386 OFFCURVE",
"401 355 OFFCURVE",
"401 296 CURVE SMOOTH",
"401 48 LINE",
"330 16 LINE",
"330 0 LINE"
);
}
);
width = 582;
}
);
leftKerningGroup = kernLC_n2;
rightKerningGroup = kernLC_n1;
unicode = 006E;
},
{
color = 5;
glyphname = o;
layers = (
{
anchors = (
{
name = bottom;
position = "{276, 0}";
},
{
name = right;
position = "{306, 0}";
},
{
name = top;
position = "{267, 510}";
}
);
layerId = m01;
paths = (
{
closed = 1;
nodes = (
"401 -10 OFFCURVE",
"490 91 OFFCURVE",
"490 225 CURVE SMOOTH",
"490 359 OFFCURVE",
"401 460 OFFCURVE",
"270 460 CURVE SMOOTH",
"139 460 OFFCURVE",
"50 359 OFFCURVE",
"50 225 CURVE SMOOTH",
"50 91 OFFCURVE",
"139 -10 OFFCURVE",
"270 -10 CURVE SMOOTH"
);
},
{
closed = 1;
nodes = (
"182.703 33 OFFCURVE",
"140 140 OFFCURVE",
"140 246 CURVE SMOOTH",
"140 333 OFFCURVE",
"176 418 OFFCURVE",
"258 418 CURVE SMOOTH",
"359 418 OFFCURVE",
"400 311 OFFCURVE",
"400 205 CURVE SMOOTH",
"400 119 OFFCURVE",
"365.299 33 OFFCURVE",
"284 33 CURVE SMOOTH"
);
}
);
width = 540;
},
{
anchors = (
{
name = bottom;
position = "{276, 0}";
},
{
name = right;
position = "{306, 0}";
},
{
name = top;
position = "{267, 510}";
}
);
layerId = m002;
paths = (
{
closed = 1;
nodes = (
"401 -10 OFFCURVE",
"490 91 OFFCURVE",
"490 225 CURVE SMOOTH",
"490 359 OFFCURVE",
"401 460 OFFCURVE",
"270 460 CURVE SMOOTH",
"139 460 OFFCURVE",
"50 359 OFFCURVE",
"50 225 CURVE SMOOTH",
"50 91 OFFCURVE",
"139 -10 OFFCURVE",
"270 -10 CURVE SMOOTH"
);
},
{
closed = 1;
nodes = (
"182.703 33 OFFCURVE",
"140 140 OFFCURVE",
"140 246 CURVE SMOOTH",
"140 333 OFFCURVE",
"176 418 OFFCURVE",
"258 418 CURVE SMOOTH",
"359 418 OFFCURVE",
"400 311 OFFCURVE",
"400 205 CURVE SMOOTH",
"400 119 OFFCURVE",
"365.299 33 OFFCURVE",
"284 33 CURVE SMOOTH"
);
}
);
width = 540;
}
);
leftKerningGroup = kernLC_o2;
rightKerningGroup = kernLC_o1;
unicode = 006F;
},
{
color = 4;
glyphname = oslash;
layers = (
{
anchors = (
{
name = top;
position = "{267, 510}";
}
);
layerId = m01;
paths = (
{
closed = 1;
nodes = (
"401 -10 OFFCURVE",
"490 91 OFFCURVE",
"490 225 CURVE SMOOTH",
"490 359 OFFCURVE",
"401 460 OFFCURVE",
"270 460 CURVE SMOOTH",
"139 460 OFFCURVE",
"50 359 OFFCURVE",
"50 225 CURVE SMOOTH",
"50 91 OFFCURVE",
"139 -10 OFFCURVE",
"270 -10 CURVE SMOOTH"
);
},
{
closed = 1;
nodes = (
"183 33 OFFCURVE",
"140 140 OFFCURVE",
"140 246 CURVE SMOOTH",
"140 333 OFFCURVE",
"176 418 OFFCURVE",
"258 418 CURVE SMOOTH",
"359 418 OFFCURVE",
"400 311 OFFCURVE",
"400 205 CURVE SMOOTH",
"400 119 OFFCURVE",
"365 33 OFFCURVE",
"284 33 CURVE SMOOTH"
);
},
{
closed = 1;
nodes = (
"116 -10 LINE",
"490 460 LINE",
"424 460 LINE",
"50 -10 LINE"
);
}
);
width = 540;
},
{
anchors = (
{
name = top;
position = "{267, 510}";
}
);
layerId = m002;
paths = (
{
closed = 1;
nodes = (
"401 -10 OFFCURVE",
"490 91 OFFCURVE",
"490 225 CURVE SMOOTH",
"490 359 OFFCURVE",
"401 460 OFFCURVE",
"270 460 CURVE SMOOTH",
"139 460 OFFCURVE",
"50 359 OFFCURVE",
"50 225 CURVE SMOOTH",
"50 91 OFFCURVE",
"139 -10 OFFCURVE",
"270 -10 CURVE SMOOTH"
);
},
{
closed = 1;
nodes = (
"183 33 OFFCURVE",
"140 140 OFFCURVE",
"140 246 CURVE SMOOTH",
"140 333 OFFCURVE",
"176 418 OFFCURVE",
"258 418 CURVE SMOOTH",
"359 418 OFFCURVE",
"400 311 OFFCURVE",
"400 205 CURVE SMOOTH",
"400 119 OFFCURVE",
"365 33 OFFCURVE",
"284 33 CURVE SMOOTH"
);
},
{
closed = 1;
nodes = (
"116 -10 LINE",
"490 460 LINE",
"424 460 LINE",
"50 -10 LINE"
);
}
);
width = 540;
}
);
leftKerningGroup = kernLC_o2;
rightKerningGroup = kernLC_o1;
unicode = 00F8;
},
{
color = 4;
glyphname = oe;
layers = (
{
layerId = m01;
paths = (
{
closed = 1;
nodes = (
"352 -10 OFFCURVE",
"417 29 OFFCURVE",
"455 91 CURVE",
"437 91 LINE",
"470 28 OFFCURVE",
"534 -10 OFFCURVE",
"620 -10 CURVE SMOOTH",
"701 -10 OFFCURVE",
"764 37 OFFCURVE",
"795 95 CURVE",
"795 105 LINE",
"792 105 LINE",
"742 78 OFFCURVE",
"700 65 OFFCURVE",
"663 65 CURVE SMOOTH",
"532 65 OFFCURVE",
"490 155 OFFCURVE",
"490 251 CURVE SMOOTH",
"490 355 OFFCURVE",
"535 416 OFFCURVE",
"608 416 CURVE SMOOTH",
"667 416 OFFCURVE",
"704 377 OFFCURVE",
"719 284 CURVE",
"737 288 LINE",
"480 288 LINE",
"480 242 LINE",
"789 242 LINE",
"794 247 LINE",
"794 384 OFFCURVE",
"729 460 OFFCURVE",
"624 460 CURVE SMOOTH",
"551 460 OFFCURVE",
"484 416 OFFCURVE",
"445 345 CURVE",
"462 345 LINE",
"426 415 OFFCURVE",
"358 460 OFFCURVE",
"270 460 CURVE SMOOTH",
"139 460 OFFCURVE",
"50 359 OFFCURVE",
"50 225 CURVE SMOOTH",
"50 91 OFFCURVE",
"139 -10 OFFCURVE",
"270 -10 CURVE SMOOTH"
);
},
{
closed = 1;
nodes = (
"183 33 OFFCURVE",
"140 140 OFFCURVE",
"140 246 CURVE SMOOTH",
"140 333 OFFCURVE",
"176 418 OFFCURVE",
"258 418 CURVE SMOOTH",
"359 418 OFFCURVE",
"400 311 OFFCURVE",
"400 205 CURVE SMOOTH",
"400 119 OFFCURVE",
"365 33 OFFCURVE",
"284 33 CURVE SMOOTH"
);
}
);
width = 845;
},
{
layerId = m002;
paths = (
{
closed = 1;
nodes = (
"352 -10 OFFCURVE",
"417 29 OFFCURVE",
"455 91 CURVE",
"437 91 LINE",
"470 28 OFFCURVE",
"534 -10 OFFCURVE",
"620 -10 CURVE SMOOTH",
"701 -10 OFFCURVE",
"764 37 OFFCURVE",
"795 95 CURVE",
"795 105 LINE",
"792 105 LINE",
"742 78 OFFCURVE",
"700 65 OFFCURVE",
"663 65 CURVE SMOOTH",
"532 65 OFFCURVE",
"490 155 OFFCURVE",
"490 251 CURVE SMOOTH",
"490 355 OFFCURVE",
"535 416 OFFCURVE",
"608 416 CURVE SMOOTH",
"667 416 OFFCURVE",
"704 377 OFFCURVE",
"719 284 CURVE",
"737 288 LINE",
"480 288 LINE",
"480 242 LINE",
"789 242 LINE",
"794 247 LINE",
"794 384 OFFCURVE",
"729 460 OFFCURVE",
"624 460 CURVE SMOOTH",
"551 460 OFFCURVE",
"484 416 OFFCURVE",
"445 345 CURVE",
"462 345 LINE",
"426 415 OFFCURVE",
"358 460 OFFCURVE",
"270 460 CURVE SMOOTH",
"139 460 OFFCURVE",
"50 359 OFFCURVE",
"50 225 CURVE SMOOTH",
"50 91 OFFCURVE",
"139 -10 OFFCURVE",
"270 -10 CURVE SMOOTH"
);
},
{
closed = 1;
nodes = (
"183 33 OFFCURVE",
"140 140 OFFCURVE",
"140 246 CURVE SMOOTH",
"140 333 OFFCURVE",
"176 418 OFFCURVE",
"258 418 CURVE SMOOTH",
"359 418 OFFCURVE",
"400 311 OFFCURVE",
"400 205 CURVE SMOOTH",
"400 119 OFFCURVE",
"365 33 OFFCURVE",
"284 33 CURVE SMOOTH"
);
}
);
width = 845;
}
);
leftKerningGroup = kernLC_o2;
rightKerningGroup = kernLC_e1;
unicode = 0153;
},
{
color = 5;
glyphname = p;
layers = (
{
layerId = m01;
paths = (
{
closed = 1;
nodes = (
"262 -230 LINE",
"262 -214 LINE",
"191 -182 LINE",
"191 380 LINE",
"181 460 LINE",
"175 460 LINE",
"51 405 LINE",
"51 398 LINE",
"111 346 LINE",
"111 -182 LINE",
"48 -214 LINE",
"48 -230 LINE"
);
},
{
closed = 1;
nodes = (
"417 -10 OFFCURVE",
"519 83 OFFCURVE",
"519 247 CURVE SMOOTH",
"519 379 OFFCURVE",
"446 460 OFFCURVE",
"345 460 CURVE SMOOTH",
"291 460 OFFCURVE",
"247 442 OFFCURVE",
"196 399 CURVE",
"181 399 LINE",
"181 354 LINE",
"215 379 OFFCURVE",
"254 391 OFFCURVE",
"290 391 CURVE SMOOTH",
"372 391 OFFCURVE",
"439 337 OFFCURVE",
"439 214 CURVE SMOOTH",
"439 87 OFFCURVE",
"385 38 OFFCURVE",
"321 38 CURVE SMOOTH",
"266 38 OFFCURVE",
"224 50 OFFCURVE",
"181 88 CURVE",
"131 20 LINE",
"174 1 OFFCURVE",
"225 -10 OFFCURVE",
"292 -10 CURVE SMOOTH"
);
}
);
width = 567;
},
{
layerId = m002;
paths = (
{
closed = 1;
nodes = (
"262 -230 LINE",
"262 -214 LINE",
"191 -182 LINE",
"191 380 LINE",
"181 460 LINE",
"175 460 LINE",
"51 405 LINE",
"51 398 LINE",
"111 346 LINE",
"111 -182 LINE",
"48 -214 LINE",
"48 -230 LINE"
);
},
{
closed = 1;
nodes = (
"417 -10 OFFCURVE",
"519 83 OFFCURVE",
"519 247 CURVE SMOOTH",
"519 379 OFFCURVE",
"446 460 OFFCURVE",
"345 460 CURVE SMOOTH",
"291 460 OFFCURVE",
"247 442 OFFCURVE",
"196 399 CURVE",
"181 399 LINE",
"181 354 LINE",
"215 379 OFFCURVE",
"254 391 OFFCURVE",
"290 391 CURVE SMOOTH",
"372 391 OFFCURVE",
"439 337 OFFCURVE",
"439 214 CURVE SMOOTH",
"439 87 OFFCURVE",
"385 38 OFFCURVE",
"321 38 CURVE SMOOTH",
"266 38 OFFCURVE",
"224 50 OFFCURVE",
"181 88 CURVE",
"131 20 LINE",
"174 1 OFFCURVE",
"225 -10 OFFCURVE",
"292 -10 CURVE SMOOTH"
);
}
);
width = 567;
}
);
leftKerningGroup = kernLC_n2;
rightKerningGroup = kernLC_o1;
unicode = 0070;
},
{
color = 4;
glyphname = thorn;
layers = (
{
layerId = m01;
paths = (
{
closed = 1;
nodes = (
"262 -230 LINE",
"262 -214 LINE",
"191 -182 LINE",
"191 750 LINE",
"175 750 LINE",
"51 695 LINE",
"51 688 LINE",
"111 636 LINE",
"111 -182 LINE",
"48 -214 LINE",
"48 -230 LINE"
);
},
{
closed = 1;
nodes = (
"417 -10 OFFCURVE",
"519 83 OFFCURVE",
"519 247 CURVE SMOOTH",
"519 379 OFFCURVE",
"446 460 OFFCURVE",
"345 460 CURVE SMOOTH",
"291 460 OFFCURVE",
"247 442 OFFCURVE",
"196 399 CURVE",
"181 399 LINE",
"181 354 LINE",
"215 379 OFFCURVE",
"254 391 OFFCURVE",
"290 391 CURVE SMOOTH",
"372 391 OFFCURVE",
"439 337 OFFCURVE",
"439 214 CURVE SMOOTH",
"439 87 OFFCURVE",
"385 38 OFFCURVE",
"321 38 CURVE SMOOTH",
"266 38 OFFCURVE",
"224 50 OFFCURVE",
"181 88 CURVE",
"131 20 LINE",
"174 1 OFFCURVE",
"225 -10 OFFCURVE",
"292 -10 CURVE SMOOTH"
);
}
);
width = 567;
},
{
layerId = m002;
paths = (
{
closed = 1;
nodes = (
"262 -230 LINE",
"262 -214 LINE",
"191 -182 LINE",
"191 750 LINE",
"175 750 LINE",
"51 695 LINE",
"51 688 LINE",
"111 636 LINE",
"111 -182 LINE",
"48 -214 LINE",
"48 -230 LINE"
);
},
{
closed = 1;
nodes = (
"417 -10 OFFCURVE",
"519 83 OFFCURVE",
"519 247 CURVE SMOOTH",
"519 379 OFFCURVE",
"446 460 OFFCURVE",
"345 460 CURVE SMOOTH",
"291 460 OFFCURVE",
"247 442 OFFCURVE",
"196 399 CURVE",
"181 399 LINE",
"181 354 LINE",
"215 379 OFFCURVE",
"254 391 OFFCURVE",
"290 391 CURVE SMOOTH",
"372 391 OFFCURVE",
"439 337 OFFCURVE",
"439 214 CURVE SMOOTH",
"439 87 OFFCURVE",
"385 38 OFFCURVE",
"321 38 CURVE SMOOTH",
"266 38 OFFCURVE",
"224 50 OFFCURVE",
"181 88 CURVE",
"131 20 LINE",
"174 1 OFFCURVE",
"225 -10 OFFCURVE",
"292 -10 CURVE SMOOTH"
);
}
);
width = 567;
}
);
leftKerningGroup = kernLC_l2;
rightKerningGroup = kernLC_o1;
unicode = 00FE;
},
{
color = 5;
glyphname = q;
layers = (
{
layerId = m01;
paths = (
{
closed = 1;
nodes = (
"519 -230 LINE",
"519 -214 LINE",
"456 -183 LINE",
"456 460 LINE",
"450 460 LINE",
"382 427 LINE",
"439 427 LINE",
"384 447 OFFCURVE",
"347 460 OFFCURVE",
"289 460 CURVE SMOOTH",
"159 460 OFFCURVE",
"48 364 OFFCURVE",
"48 194 CURVE SMOOTH",
"48 68 OFFCURVE",
"121 -10 OFFCURVE",
"222 -10 CURVE SMOOTH",
"275 -10 OFFCURVE",
"324 10 OFFCURVE",
"370 50 CURVE",
"388 50 LINE",
"388 97 LINE",
"355 72 OFFCURVE",
"310 59 OFFCURVE",
"277 59 CURVE SMOOTH",
"195 59 OFFCURVE",
"128 107 OFFCURVE",
"128 217 CURVE SMOOTH",
"128 357 OFFCURVE",
"191 411 OFFCURVE",
"266 411 CURVE SMOOTH",
"302 411 OFFCURVE",
"336 405 OFFCURVE",
"364 381 CURVE SMOOTH",
"375 372 OFFCURVE",
"376 370 OFFCURVE",
"376 321 CURVE",
"376 -186 LINE",
"305 -214 LINE",
"305 -230 LINE"
);
}
);
width = 558;
},
{
layerId = m002;
paths = (
{
closed = 1;
nodes = (
"519 -230 LINE",
"519 -214 LINE",
"456 -183 LINE",
"456 460 LINE",
"450 460 LINE",
"382 427 LINE",
"439 427 LINE",
"384 447 OFFCURVE",
"347 460 OFFCURVE",
"289 460 CURVE SMOOTH",
"159 460 OFFCURVE",
"48 364 OFFCURVE",
"48 194 CURVE SMOOTH",
"48 68 OFFCURVE",
"121 -10 OFFCURVE",
"222 -10 CURVE SMOOTH",
"275 -10 OFFCURVE",
"324 10 OFFCURVE",
"370 50 CURVE",
"388 50 LINE",
"388 97 LINE",
"355 72 OFFCURVE",
"310 59 OFFCURVE",
"277 59 CURVE SMOOTH",
"195 59 OFFCURVE",
"128 107 OFFCURVE",
"128 217 CURVE SMOOTH",
"128 357 OFFCURVE",
"191 411 OFFCURVE",
"266 411 CURVE SMOOTH",
"302 411 OFFCURVE",
"336 405 OFFCURVE",
"364 381 CURVE SMOOTH",
"375 372 OFFCURVE",
"376 370 OFFCURVE",
"376 321 CURVE",
"376 -186 LINE",
"305 -214 LINE",
"305 -230 LINE"
);
}
);
width = 558;
}
);
leftKerningGroup = kernLC_o2;
rightKerningGroup = kernLC_q1;
unicode = 0071;
},
{
color = 5;
glyphname = r;
layers = (
{
anchors = (
{
name = bottom;
position = "{155, 0}";
},
{
name = top;
position = "{222, 510}";
}
);
layerId = m01;
paths = (
{
closed = 1;
nodes = (
"266 0 LINE",
"266 16 LINE",
"195 48 LINE",
"195 367 LINE",
"185 460 LINE",
"179 460 LINE",
"55 405 LINE",
"55 398 LINE",
"115 346 LINE",
"115 48 LINE",
"52 16 LINE",
"52 0 LINE"
);
},
{
closed = 1;
nodes = (
"279 378 OFFCURVE",
"293 377 OFFCURVE",
"308 371 CURVE SMOOTH",
"346 356 LINE",
"353 356 LINE",
"373 405 LINE SMOOTH",
"376 412 OFFCURVE",
"377 418 OFFCURVE",
"377 423 CURVE SMOOTH",
"377 435 OFFCURVE",
"362 445 OFFCURVE",
"347 451 CURVE SMOOTH",
"338 455 OFFCURVE",
"322 460 OFFCURVE",
"311 460 CURVE SMOOTH",
"277 460 OFFCURVE",
"244 450 OFFCURVE",
"198 375 CURVE",
"187 375 LINE",
"187 322 LINE",
"208 360 OFFCURVE",
"234 378 OFFCURVE",
"266 378 CURVE SMOOTH"
);
}
);
width = 397;
},
{
anchors = (
{
name = bottom;
position = "{155, 0}";
},
{
name = top;
position = "{222, 510}";
}
);
layerId = m002;
paths = (
{
closed = 1;
nodes = (
"266 0 LINE",
"266 16 LINE",
"195 48 LINE",
"195 367 LINE",
"185 460 LINE",
"179 460 LINE",
"55 405 LINE",
"55 398 LINE",
"115 346 LINE",
"115 48 LINE",
"52 16 LINE",
"52 0 LINE"
);
},
{
closed = 1;
nodes = (
"279 378 OFFCURVE",
"293 377 OFFCURVE",
"308 371 CURVE SMOOTH",
"346 356 LINE",
"353 356 LINE",
"373 405 LINE SMOOTH",
"376 412 OFFCURVE",
"377 418 OFFCURVE",
"377 423 CURVE SMOOTH",
"377 435 OFFCURVE",
"362 445 OFFCURVE",
"347 451 CURVE SMOOTH",
"338 455 OFFCURVE",
"322 460 OFFCURVE",
"311 460 CURVE SMOOTH",
"277 460 OFFCURVE",
"244 450 OFFCURVE",
"198 375 CURVE",
"187 375 LINE",
"187 322 LINE",
"208 360 OFFCURVE",
"234 378 OFFCURVE",
"266 378 CURVE SMOOTH"
);
}
);
width = 397;
}
);
leftKerningGroup = kernLC_n2;
rightKerningGroup = kernLC_r1;
unicode = 0072;
},
{
color = 5;
glyphname = s;
layers = (
{
anchors = (
{
name = bottom;
position = "{215, 0}";
},
{
name = top;
position = "{215, 510}";
}
);
layerId = m01;
paths = (
{
closed = 1;
nodes = (
"279 -10 OFFCURVE",
"364 37 OFFCURVE",
"364 126 CURVE SMOOTH",
"364 220.015 OFFCURVE",
"299.231 238.891 OFFCURVE",
"242 266 CURVE SMOOTH",
"178.684 295.223 OFFCURVE",
"146 312 OFFCURVE",
"146 357 CURVE SMOOTH",
"146 397 OFFCURVE",
"176.224 421 OFFCURVE",
"221 421 CURVE SMOOTH",
"252.461 421 OFFCURVE",
"278.775 405.695 OFFCURVE",
"301 370 CURVE SMOOTH",
"334 317 LINE",
"348 317 LINE",
"348 426 LINE",
"306 447 OFFCURVE",
"266 460 OFFCURVE",
"217 460 CURVE SMOOTH",
"147 460 OFFCURVE",
"75 401 OFFCURVE",
"75 327 CURVE SMOOTH",
"75 260.44 OFFCURVE",
"112.716 230.129 OFFCURVE",
"181 199 CURVE SMOOTH",
"250.407 166.74 OFFCURVE",
"295 153.885 OFFCURVE",
"295 97 CURVE SMOOTH",
"295 53 OFFCURVE",
"264 26 OFFCURVE",
"210 26 CURVE SMOOTH",
"162 26 OFFCURVE",
"130 44 OFFCURVE",
"109 81 CURVE SMOOTH",
"77 136 LINE",
"63 136 LINE",
"63 24 LINE",
"110 0 OFFCURVE",
"150 -10 OFFCURVE",
"213 -10 CURVE SMOOTH"
);
}
);
width = 432;
},
{
anchors = (
{
name = bottom;
position = "{215, 0}";
},
{
name = top;
position = "{215, 510}";
}
);
layerId = m002;
paths = (
{
closed = 1;
nodes = (
"279 -10 OFFCURVE",
"364 37 OFFCURVE",
"364 126 CURVE SMOOTH",
"364 220.015 OFFCURVE",
"299.231 238.891 OFFCURVE",
"242 266 CURVE SMOOTH",
"178.684 295.223 OFFCURVE",
"146 312 OFFCURVE",
"146 357 CURVE SMOOTH",
"146 397 OFFCURVE",
"176.224 421 OFFCURVE",
"221 421 CURVE SMOOTH",
"252.461 421 OFFCURVE",
"278.775 405.695 OFFCURVE",
"301 370 CURVE SMOOTH",
"334 317 LINE",
"348 317 LINE",
"348 426 LINE",
"306 447 OFFCURVE",
"266 460 OFFCURVE",
"217 460 CURVE SMOOTH",
"147 460 OFFCURVE",
"75 401 OFFCURVE",
"75 327 CURVE SMOOTH",
"75 260.44 OFFCURVE",
"112.716 230.129 OFFCURVE",
"181 199 CURVE SMOOTH",
"250.407 166.74 OFFCURVE",
"295 153.885 OFFCURVE",
"295 97 CURVE SMOOTH",
"295 53 OFFCURVE",
"264 26 OFFCURVE",
"210 26 CURVE SMOOTH",
"162 26 OFFCURVE",
"130 44 OFFCURVE",
"109 81 CURVE SMOOTH",
"77 136 LINE",
"63 136 LINE",
"63 24 LINE",
"110 0 OFFCURVE",
"150 -10 OFFCURVE",
"213 -10 CURVE SMOOTH"
);
}
);
width = 432;
}
);
leftKerningGroup = kernLC_s2;
rightKerningGroup = kernLC_s1;
unicode = 0073;
},
{
color = 5;
glyphname = germandbls;
layers = (
{
layerId = m01;
paths = (
{
closed = 1;
nodes = (
"207 0 LINE",
"207 552 LINE SMOOTH",
"207 646 OFFCURVE",
"242 710 OFFCURVE",
"334 710 CURVE SMOOTH",
"406 710 OFFCURVE",
"447 665 OFFCURVE",
"447 608 CURVE SMOOTH",
"447 467 OFFCURVE",
"321 444 OFFCURVE",
"321 351 CURVE SMOOTH",
"321 290 OFFCURVE",
"359 261 OFFCURVE",
"404 228 CURVE SMOOTH",
"465 184 OFFCURVE",
"513 154.696 OFFCURVE",
"513 101 CURVE SMOOTH",
"513 52 OFFCURVE",
"477 26 OFFCURVE",
"427 26 CURVE SMOOTH",
"383 26 OFFCURVE",
"353 46 OFFCURVE",
"333 81 CURVE SMOOTH",
"301 136 LINE",
"287 136 LINE",
"287 24 LINE",
"333 0 OFFCURVE",
"373 -10 OFFCURVE",
"435 -10 CURVE SMOOTH",
"513.805 -10 OFFCURVE",
"583 50 OFFCURVE",
"583 124 CURVE SMOOTH",
"583 178 OFFCURVE",
"560 212 OFFCURVE",
"493 265 CURVE SMOOTH",
"428 317 OFFCURVE",
"397 334 OFFCURVE",
"397 374 CURVE SMOOTH",
"397 476 OFFCURVE",
"523 520 OFFCURVE",
"523 623 CURVE SMOOTH",
"523 692 OFFCURVE",
"461 750 OFFCURVE",
"358 750 CURVE SMOOTH",
"214 750 OFFCURVE",
"127 616 OFFCURVE",
"127 480 CURVE SMOOTH",
"127 48 LINE",
"64 16 LINE",
"64 0 LINE"
);
},
{
closed = 1;
nodes = (
"159 403 LINE",
"159 450 LINE",
"49 450 LINE",
"49 403 LINE"
);
}
);
width = 603;
},
{
layerId = m002;
paths = (
{
closed = 1;
nodes = (
"207 0 LINE",
"207 552 LINE SMOOTH",
"207 646 OFFCURVE",
"242 710 OFFCURVE",
"334 710 CURVE SMOOTH",
"406 710 OFFCURVE",
"447 665 OFFCURVE",
"447 608 CURVE SMOOTH",
"447 467 OFFCURVE",
"321 444 OFFCURVE",
"321 351 CURVE SMOOTH",
"321 290 OFFCURVE",
"359 261 OFFCURVE",
"404 228 CURVE SMOOTH",
"465 184 OFFCURVE",
"513 154.696 OFFCURVE",
"513 101 CURVE SMOOTH",
"513 52 OFFCURVE",
"477 26 OFFCURVE",
"427 26 CURVE SMOOTH",
"383 26 OFFCURVE",
"353 46 OFFCURVE",
"333 81 CURVE SMOOTH",
"301 136 LINE",
"287 136 LINE",
"287 24 LINE",
"333 0 OFFCURVE",
"373 -10 OFFCURVE",
"435 -10 CURVE SMOOTH",
"513.805 -10 OFFCURVE",
"583 50 OFFCURVE",
"583 124 CURVE SMOOTH",
"583 178 OFFCURVE",
"560 212 OFFCURVE",
"493 265 CURVE SMOOTH",
"428 317 OFFCURVE",
"397 334 OFFCURVE",
"397 374 CURVE SMOOTH",
"397 476 OFFCURVE",
"523 520 OFFCURVE",
"523 623 CURVE SMOOTH",
"523 692 OFFCURVE",
"461 750 OFFCURVE",
"358 750 CURVE SMOOTH",
"214 750 OFFCURVE",
"127 616 OFFCURVE",
"127 480 CURVE SMOOTH",
"127 48 LINE",
"64 16 LINE",
"64 0 LINE"
);
},
{
closed = 1;
nodes = (
"159 403 LINE",
"159 450 LINE",
"49 450 LINE",
"49 403 LINE"
);
}
);
width = 603;
}
);
leftKerningGroup = kernLC_f2;
rightKerningGroup = kernLC_germandbls1;
unicode = 00DF;
},
{
color = 5;
glyphname = t;
layers = (
{
anchors = (
{
name = bottom;
position = "{212, 0}";
},
{
name = right;
position = "{309, 740}";
},
{
name = top;
position = "{155, 610}";
}
);
layerId = m01;
paths = (
{
closed = 1;
nodes = (
"271 -10 OFFCURVE",
"310 23 OFFCURVE",
"324 53 CURVE",
"324 63 LINE",
"321 63 LINE",
"305 59 OFFCURVE",
"282 56 OFFCURVE",
"257 56 CURVE SMOOTH",
"215 56 OFFCURVE",
"180 72 OFFCURVE",
"180 106 CURVE SMOOTH",
"180 403 LINE",
"312 403 LINE",
"312 450 LINE",
"180 450 LINE",
"180 560 LINE",
"174 560 LINE",
"103 450 LINE",
"18 409 LINE",
"18 403 LINE",
"100 403 LINE",
"100 89 LINE SMOOTH",
"100 26 OFFCURVE",
"149 -10 OFFCURVE",
"208 -10 CURVE"
);
}
);
width = 354;
},
{
anchors = (
{
name = bottom;
position = "{212, 0}";
},
{
name = right;
position = "{309, 740}";
},
{
name = top;
position = "{155, 610}";
}
);
layerId = m002;
paths = (
{
closed = 1;
nodes = (
"271 -10 OFFCURVE",
"310 23 OFFCURVE",
"324 53 CURVE",
"324 63 LINE",
"321 63 LINE",
"305 59 OFFCURVE",
"282 56 OFFCURVE",
"257 56 CURVE SMOOTH",
"215 56 OFFCURVE",
"180 72 OFFCURVE",
"180 106 CURVE SMOOTH",
"180 403 LINE",
"312 403 LINE",
"312 450 LINE",
"180 450 LINE",
"180 560 LINE",
"174 560 LINE",
"103 450 LINE",
"18 409 LINE",
"18 403 LINE",
"100 403 LINE",
"100 89 LINE SMOOTH",
"100 26 OFFCURVE",
"149 -10 OFFCURVE",
"208 -10 CURVE"
);
}
);
width = 354;
}
);
leftKerningGroup = kernLC_t2;
rightKerningGroup = kernLC_t1;
unicode = 0074;
},
{
color = 5;
glyphname = u;
layers = (
{
anchors = (
{
name = bottom;
position = "{270, 0}";
},
{
name = right;
position = "{457, 0}";
},
{
name = top;
position = "{270, 510}";
}
);
layerId = m01;
paths = (
{
closed = 1;
nodes = (
"281 -10 OFFCURVE",
"325 12 OFFCURVE",
"376 63 CURVE",
"389 63 LINE",
"389 108 LINE",
"367 79 OFFCURVE",
"310 64 OFFCURVE",
"270 64 CURVE SMOOTH",
"212 64 OFFCURVE",
"171 95 OFFCURVE",
"171 154 CURVE SMOOTH",
"171 450 LINE",
"28 450 LINE",
"28 434 LINE",
"91 403 LINE",
"91 107 LINE SMOOTH",
"91 30 OFFCURVE",
"147 -10 OFFCURVE",
"225 -10 CURVE SMOOTH"
);
},
{
closed = 1;
nodes = (
"532 0 LINE",
"532 16 LINE",
"461 45 LINE",
"461 450 LINE",
"310 450 LINE",
"310 434 LINE",
"381 403 LINE",
"381 0 LINE"
);
}
);
width = 561;
},
{
anchors = (
{
name = bottom;
position = "{270, 0}";
},
{
name = right;
position = "{457, 0}";
},
{
name = top;
position = "{270, 510}";
}
);
layerId = m002;
paths = (
{
closed = 1;
nodes = (
"281 -10 OFFCURVE",
"325 12 OFFCURVE",
"376 63 CURVE",
"389 63 LINE",
"389 108 LINE",
"367 79 OFFCURVE",
"310 64 OFFCURVE",
"270 64 CURVE SMOOTH",
"212 64 OFFCURVE",
"171 95 OFFCURVE",
"171 154 CURVE SMOOTH",
"171 450 LINE",
"28 450 LINE",
"28 434 LINE",
"91 403 LINE",
"91 107 LINE SMOOTH",
"91 30 OFFCURVE",
"147 -10 OFFCURVE",
"225 -10 CURVE SMOOTH"
);
},
{
closed = 1;
nodes = (
"532 0 LINE",
"532 16 LINE",
"461 45 LINE",
"461 450 LINE",
"310 450 LINE",
"310 434 LINE",
"381 403 LINE",
"381 0 LINE"
);
}
);
width = 561;
}
);
leftKerningGroup = kernLC_u2;
rightKerningGroup = kernLC_u1;
unicode = 0075;
},
{
color = 5;
glyphname = v;
layers = (
{
layerId = m01;
paths = (
{
closed = 1;
nodes = (
"242 0 LINE",
"278 83 LINE",
"278 119 LINE",
"262 119 LINE",
"134 398 LINE",
"134 404 LINE",
"216 434 LINE",
"216 450 LINE",
"-23 450 LINE",
"-23 434 LINE",
"44 403 LINE",
"227 0 LINE"
);
},
{
closed = 1;
nodes = (
"429 399 LINE",
"503 434 LINE",
"503 450 LINE",
"307 450 LINE",
"307 434 LINE",
"379 398 LINE",
"379 392 LINE",
"235 43 LINE",
"235 0 LINE",
"248 0 LINE"
);
}
);
width = 480;
},
{
layerId = m002;
paths = (
{
closed = 1;
nodes = (
"242 0 LINE",
"278 83 LINE",
"278 119 LINE",
"262 119 LINE",
"134 398 LINE",
"134 404 LINE",
"216 434 LINE",
"216 450 LINE",
"-23 450 LINE",
"-23 434 LINE",
"44 403 LINE",
"227 0 LINE"
);
},
{
closed = 1;
nodes = (
"429 399 LINE",
"503 434 LINE",
"503 450 LINE",
"307 450 LINE",
"307 434 LINE",
"379 398 LINE",
"379 392 LINE",
"235 43 LINE",
"235 0 LINE",
"248 0 LINE"
);
}
);
width = 480;
}
);
leftKerningGroup = kernLC_v3;
rightKerningGroup = kernLC_v3;
unicode = 0076;
},
{
color = 5;
glyphname = w;
layers = (
{
anchors = (
{
name = top;
position = "{395, 510}";
}
);
layerId = m01;
paths = (
{
closed = 1;
nodes = (
"216 0 LINE",
"252 81 LINE",
"252 121 LINE",
"238 121 LINE",
"134 398 LINE",
"134 404 LINE",
"216 434 LINE",
"216 450 LINE",
"-23 450 LINE",
"-23 434 LINE",
"44 403 LINE",
"201 0 LINE"
);
},
{
closed = 1;
nodes = (
"210 46 LINE",
"210 0 LINE",
"222 0 LINE",
"389 367 LINE",
"352 367 LINE",
"514 0 LINE",
"529 0 LINE",
"559 96 LINE",
"405 450 LINE",
"384 450 LINE"
);
},
{
closed = 1;
nodes = (
"702 399 LINE",
"776 434 LINE",
"776 450 LINE",
"580 450 LINE",
"580 434 LINE",
"652 398 LINE",
"652 392 LINE",
"551 124 LINE",
"526 124 LINE",
"526 0 LINE",
"535 0 LINE"
);
}
);
width = 753;
},
{
anchors = (
{
name = top;
position = "{395, 510}";
}
);
layerId = m002;
paths = (
{
closed = 1;
nodes = (
"216 0 LINE",
"252 81 LINE",
"252 121 LINE",
"238 121 LINE",
"134 398 LINE",
"134 404 LINE",
"216 434 LINE",
"216 450 LINE",
"-23 450 LINE",
"-23 434 LINE",
"44 403 LINE",
"201 0 LINE"
);
},
{
closed = 1;
nodes = (
"210 46 LINE",
"210 0 LINE",
"222 0 LINE",
"389 367 LINE",
"352 367 LINE",
"514 0 LINE",
"529 0 LINE",
"559 96 LINE",
"405 450 LINE",
"384 450 LINE"
);
},
{
closed = 1;
nodes = (
"702 399 LINE",
"776 434 LINE",
"776 450 LINE",
"580 450 LINE",
"580 434 LINE",
"652 398 LINE",
"652 392 LINE",
"551 124 LINE",
"526 124 LINE",
"526 0 LINE",
"535 0 LINE"
);
}
);
width = 753;
}
);
leftKerningGroup = kernLC_w3;
rightKerningGroup = kernLC_w3;
unicode = 0077;
},
{
color = 5;
glyphname = x;
layers = (
{
layerId = m01;
paths = (
{
closed = 1;
nodes = (
"470 0 LINE",
"470 16 LINE",
"429 47 LINE",
"170 398 LINE",
"170 404 LINE",
"238 434 LINE",
"238 450 LINE",
"31 450 LINE",
"31 434 LINE",
"78 403 LINE",
"337 52 LINE",
"337 46 LINE",
"276 16 LINE",
"276 0 LINE"
);
},
{
closed = 1;
nodes = (
"201 0 LINE",
"201 16 LINE",
"139 52 LINE",
"139 58 LINE",
"251 224 LINE",
"229 247 LINE",
"80 51 LINE",
"26 16 LINE",
"26 0 LINE"
);
},
{
closed = 1;
nodes = (
"287 450 LINE",
"287 434 LINE",
"344 398 LINE",
"344 392 LINE",
"243 243 LINE",
"264 220 LINE",
"400 399 LINE",
"453 434 LINE",
"453 450 LINE"
);
}
);
width = 496;
},
{
layerId = m002;
paths = (
{
closed = 1;
nodes = (
"470 0 LINE",
"470 16 LINE",
"429 47 LINE",
"170 398 LINE",
"170 404 LINE",
"238 434 LINE",
"238 450 LINE",
"31 450 LINE",
"31 434 LINE",
"78 403 LINE",
"337 52 LINE",
"337 46 LINE",
"276 16 LINE",
"276 0 LINE"
);
},
{
closed = 1;
nodes = (
"201 0 LINE",
"201 16 LINE",
"139 52 LINE",
"139 58 LINE",
"251 224 LINE",
"229 247 LINE",
"80 51 LINE",
"26 16 LINE",
"26 0 LINE"
);
},
{
closed = 1;
nodes = (
"287 450 LINE",
"287 434 LINE",
"344 398 LINE",
"344 392 LINE",
"243 243 LINE",
"264 220 LINE",
"400 399 LINE",
"453 434 LINE",
"453 450 LINE"
);
}
);
width = 496;
}
);
leftKerningGroup = kernLC_x3;
rightKerningGroup = kernLC_x3;
unicode = 0078;
},
{
color = 5;
glyphname = y;
layers = (
{
anchors = (
{
name = bottom;
position = "{298, -28}";
},
{
name = top;
position = "{264, 510}";
}
);
layerId = m01;
paths = (
{
closed = 1;
nodes = (
"-23 434 LINE",
"44 403 LINE",
"231 0 LINE",
"284 72 LINE",
"284 108 LINE",
"267 108 LINE",
"134 398 LINE",
"134 403 LINE",
"216 434 LINE",
"216 450 LINE",
"-23 450 LINE"
);
},
{
closed = 1;
nodes = (
"116 -241 OFFCURVE",
"151 -221 OFFCURVE",
"178 -183 CURVE SMOOTH",
"208 -141 OFFCURVE",
"212 -126 OFFCURVE",
"231 -79 CURVE SMOOTH",
"428 400 LINE",
"503 434 LINE",
"503 450 LINE",
"307 450 LINE",
"307 434 LINE",
"382 398 LINE",
"382 392 LINE",
"254 67 LINE",
"192 -70 LINE SMOOTH",
"153 -155 OFFCURVE",
"148 -158 OFFCURVE",
"99 -158 CURVE SMOOTH",
"53 -158 LINE",
"49 -162 LINE",
"49 -212 LINE SMOOTH",
"49 -234 OFFCURVE",
"53 -241 OFFCURVE",
"83 -241 CURVE SMOOTH"
);
}
);
width = 480;
},
{
anchors = (
{
name = bottom;
position = "{298, -28}";
},
{
name = top;
position = "{264, 510}";
}
);
layerId = m002;
paths = (
{
closed = 1;
nodes = (
"-23 434 LINE",
"44 403 LINE",
"231 0 LINE",
"284 72 LINE",
"284 108 LINE",
"267 108 LINE",
"134 398 LINE",
"134 403 LINE",
"216 434 LINE",
"216 450 LINE",
"-23 450 LINE"
);
},
{
closed = 1;
nodes = (
"116 -241 OFFCURVE",
"151 -221 OFFCURVE",
"178 -183 CURVE SMOOTH",
"208 -141 OFFCURVE",
"212 -126 OFFCURVE",
"231 -79 CURVE SMOOTH",
"428 400 LINE",
"503 434 LINE",
"503 450 LINE",
"307 450 LINE",
"307 434 LINE",
"382 398 LINE",
"382 392 LINE",
"254 67 LINE",
"192 -70 LINE SMOOTH",
"153 -155 OFFCURVE",
"148 -158 OFFCURVE",
"99 -158 CURVE SMOOTH",
"53 -158 LINE",
"49 -162 LINE",
"49 -212 LINE SMOOTH",
"49 -234 OFFCURVE",
"53 -241 OFFCURVE",
"83 -241 CURVE SMOOTH"
);
}
);
width = 480;
}
);
leftKerningGroup = kernLC_y3;
rightKerningGroup = kernLC_y3;
unicode = 0079;
},
{
color = 5;
glyphname = z;
layers = (
{
anchors = (
{
name = bottom;
position = "{243, 0}";
},
{
name = top;
position = "{243, 510}";
}
);
layerId = m01;
paths = (
{
closed = 1;
nodes = (
"407 0 LINE",
"407 151 LINE",
"391 151 LINE",
"342 8 LINE",
"381 44 LINE",
"157 44 LINE",
"157 14 LINE",
"399 432 LINE",
"399 450 LINE",
"148 450 LINE SMOOTH",
"132 450 OFFCURVE",
"102 456 OFFCURVE",
"85 460 CURVE",
"80 460 LINE",
"69 306 LINE",
"85 306 LINE",
"145 440 LINE",
"105 406 LINE",
"312 406 LINE",
"312 436 LINE",
"70 18 LINE",
"70 0 LINE"
);
}
);
width = 482;
},
{
anchors = (
{
name = bottom;
position = "{243, 0}";
},
{
name = top;
position = "{243, 510}";
}
);
layerId = m002;
paths = (
{
closed = 1;
nodes = (
"407 0 LINE",
"407 151 LINE",
"391 151 LINE",
"342 8 LINE",
"381 44 LINE",
"157 44 LINE",
"157 14 LINE",
"399 432 LINE",
"399 450 LINE",
"148 450 LINE SMOOTH",
"132 450 OFFCURVE",
"102 456 OFFCURVE",
"85 460 CURVE",
"80 460 LINE",
"69 306 LINE",
"85 306 LINE",
"145 440 LINE",
"105 406 LINE",
"312 406 LINE",
"312 436 LINE",
"70 18 LINE",
"70 0 LINE"
);
}
);
width = 482;
}
);
leftKerningGroup = kernLC_z3;
rightKerningGroup = kernLC_z3;
unicode = 007A;
},
{
color = 5;
glyphname = ordfeminine;
layers = (
{
layerId = m01;
paths = (
{
closed = 1;
nodes = (
"173 417 OFFCURVE",
"199 431 OFFCURVE",
"218 452 CURVE",
"228 452 LINE",
"228 470 LINE",
"211 462 OFFCURVE",
"198 458 OFFCURVE",
"184 458 CURVE SMOOTH",
"161 458 OFFCURVE",
"148 469 OFFCURVE",
"148 491 CURVE SMOOTH",
"148 519 OFFCURVE",
"162 534 OFFCURVE",
"235 546 CURVE",
"235 569 LINE",
"168 552 LINE SMOOTH",
"101 535 OFFCURVE",
"82 515 OFFCURVE",
"82 477 CURVE",
"82 439 OFFCURVE",
"110 417 OFFCURVE",
"144 417 CURVE SMOOTH"
);
},
{
closed = 1;
nodes = (
"305 417 OFFCURVE",
"323 430 OFFCURVE",
"331 444 CURVE",
"331 450 LINE",
"329 452 LINE",
"314 452 LINE SMOOTH",
"301 452 OFFCURVE",
"292 456 OFFCURVE",
"287 461 CURVE",
"287 602 LINE SMOOTH",
"287 647 OFFCURVE",
"252 669 OFFCURVE",
"195 669 CURVE SMOOTH",
"169 669 OFFCURVE",
"148 661 OFFCURVE",
"124 646 CURVE SMOOTH",
"103 633 OFFCURVE",
"91 618 OFFCURVE",
"91 602 CURVE SMOOTH",
"91 590 OFFCURVE",
"94 586 OFFCURVE",
"105 586 CURVE SMOOTH",
"139 586 LINE",
"141 588 LINE",
"141 611 LINE SMOOTH",
"141 631 OFFCURVE",
"150 642 OFFCURVE",
"174 642 CURVE SMOOTH",
"199 642 OFFCURVE",
"218 625 OFFCURVE",
"218 598 CURVE SMOOTH",
"218 459 LINE",
"219 459 LINE",
"226 433 OFFCURVE",
"244 417 OFFCURVE",
"276 417 CURVE SMOOTH"
);
},
{
closed = 1;
nodes = (
"315 292 LINE",
"315 342 LINE",
"85 342 LINE",
"85 292 LINE"
);
}
);
width = 400;
},
{
layerId = m002;
paths = (
{
closed = 1;
nodes = (
"173 417 OFFCURVE",
"199 431 OFFCURVE",
"218 452 CURVE",
"228 452 LINE",
"228 470 LINE",
"211 462 OFFCURVE",
"198 458 OFFCURVE",
"184 458 CURVE SMOOTH",
"161 458 OFFCURVE",
"148 469 OFFCURVE",
"148 491 CURVE SMOOTH",
"148 519 OFFCURVE",
"162 534 OFFCURVE",
"235 546 CURVE",
"235 569 LINE",
"168 552 LINE SMOOTH",
"101 535 OFFCURVE",
"82 515 OFFCURVE",
"82 477 CURVE",
"82 439 OFFCURVE",
"110 417 OFFCURVE",
"144 417 CURVE SMOOTH"
);
},
{
closed = 1;
nodes = (
"305 417 OFFCURVE",
"323 430 OFFCURVE",
"331 444 CURVE",
"331 450 LINE",
"329 452 LINE",
"314 452 LINE SMOOTH",
"301 452 OFFCURVE",
"292 456 OFFCURVE",
"287 461 CURVE",
"287 602 LINE SMOOTH",
"287 647 OFFCURVE",
"252 669 OFFCURVE",
"195 669 CURVE SMOOTH",
"169 669 OFFCURVE",
"148 661 OFFCURVE",
"124 646 CURVE SMOOTH",
"103 633 OFFCURVE",
"91 618 OFFCURVE",
"91 602 CURVE SMOOTH",
"91 590 OFFCURVE",
"94 586 OFFCURVE",
"105 586 CURVE SMOOTH",
"139 586 LINE",
"141 588 LINE",
"141 611 LINE SMOOTH",
"141 631 OFFCURVE",
"150 642 OFFCURVE",
"174 642 CURVE SMOOTH",
"199 642 OFFCURVE",
"218 625 OFFCURVE",
"218 598 CURVE SMOOTH",
"218 459 LINE",
"219 459 LINE",
"226 433 OFFCURVE",
"244 417 OFFCURVE",
"276 417 CURVE SMOOTH"
);
},
{
closed = 1;
nodes = (
"315 292 LINE",
"315 342 LINE",
"85 342 LINE",
"85 292 LINE"
);
}
);
width = 400;
}
);
unicode = 00AA;
},
{
color = 5;
glyphname = ordmasculine;
layers = (
{
layerId = m01;
paths = (
{
closed = 1;
nodes = (
"274 417 OFFCURVE",
"325 473 OFFCURVE",
"325 543 CURVE SMOOTH",
"325 612 OFFCURVE",
"274 669 OFFCURVE",
"200 669 CURVE SMOOTH",
"125 669 OFFCURVE",
"75 612 OFFCURVE",
"75 543 CURVE SMOOTH",
"75 473 OFFCURVE",
"125 417 OFFCURVE",
"200 417 CURVE SMOOTH"
);
},
{
closed = 1;
nodes = (
"171 442 OFFCURVE",
"147 484 OFFCURVE",
"147 554 CURVE SMOOTH",
"147 607 OFFCURVE",
"165 644 OFFCURVE",
"195 644 CURVE SMOOTH",
"230 644 OFFCURVE",
"253 600 OFFCURVE",
"253 532 CURVE SMOOTH",
"253 476 OFFCURVE",
"236 442 OFFCURVE",
"206 442 CURVE SMOOTH"
);
},
{
closed = 1;
nodes = (
"315 292 LINE",
"315 342 LINE",
"85 342 LINE",
"85 292 LINE"
);
}
);
width = 400;
},
{
layerId = m002;
paths = (
{
closed = 1;
nodes = (
"274 417 OFFCURVE",
"325 473 OFFCURVE",
"325 543 CURVE SMOOTH",
"325 612 OFFCURVE",
"274 669 OFFCURVE",
"200 669 CURVE SMOOTH",
"125 669 OFFCURVE",
"75 612 OFFCURVE",
"75 543 CURVE SMOOTH",
"75 473 OFFCURVE",
"125 417 OFFCURVE",
"200 417 CURVE SMOOTH"
);
},
{
closed = 1;
nodes = (
"171 442 OFFCURVE",
"147 484 OFFCURVE",
"147 554 CURVE SMOOTH",
"147 607 OFFCURVE",
"165 644 OFFCURVE",
"195 644 CURVE SMOOTH",
"230 644 OFFCURVE",
"253 600 OFFCURVE",
"253 532 CURVE SMOOTH",
"253 476 OFFCURVE",
"236 442 OFFCURVE",
"206 442 CURVE SMOOTH"
);
},
{
closed = 1;
nodes = (
"315 292 LINE",
"315 342 LINE",
"85 342 LINE",
"85 292 LINE"
);
}
);
width = 400;
}
);
unicode = 00BA;
},
{
color = 5;
glyphname = mu;
layers = (
{
layerId = m01;
paths = (
{
closed = 1;
nodes = (
"298 -10 OFFCURVE",
"335 12 OFFCURVE",
"378 63 CURVE",
"389 63 LINE",
"389 108 LINE",
"367 79 OFFCURVE",
"310 64 OFFCURVE",
"270 64 CURVE SMOOTH",
"212 64 OFFCURVE",
"171 95 OFFCURVE",
"171 154 CURVE SMOOTH",
"171 450 LINE",
"91 450 LINE",
"91 -230 LINE",
"93 -230 LINE",
"171 -210 LINE",
"151 56 LINE",
"134 47 LINE",
"170.844 0.461 OFFCURVE",
"208 -10 OFFCURVE",
"251 -10 CURVE SMOOTH"
);
},
{
closed = 1;
nodes = (
"510 -10 OFFCURVE",
"542 16 OFFCURVE",
"558 45 CURVE",
"558 48 LINE",
"555 50 LINE",
"517 50 LINE SMOOTH",
"487 50 OFFCURVE",
"470 57 OFFCURVE",
"461 67 CURVE",
"461 450 LINE",
"381 450 LINE",
"381 71 LINE",
"383 71 LINE",
"389 23 OFFCURVE",
"416 -10 OFFCURVE",
"465 -10 CURVE SMOOTH"
);
}
);
width = 561;
},
{
layerId = m002;
paths = (
{
closed = 1;
nodes = (
"298 -10 OFFCURVE",
"335 12 OFFCURVE",
"378 63 CURVE",
"389 63 LINE",
"389 108 LINE",
"367 79 OFFCURVE",
"310 64 OFFCURVE",
"270 64 CURVE SMOOTH",
"212 64 OFFCURVE",
"171 95 OFFCURVE",
"171 154 CURVE SMOOTH",
"171 450 LINE",
"91 450 LINE",
"91 -230 LINE",
"93 -230 LINE",
"171 -210 LINE",
"151 56 LINE",
"134 47 LINE",
"170.844 0.461 OFFCURVE",
"208 -10 OFFCURVE",
"251 -10 CURVE SMOOTH"
);
},
{
closed = 1;
nodes = (
"510 -10 OFFCURVE",
"542 16 OFFCURVE",
"558 45 CURVE",
"558 48 LINE",
"555 50 LINE",
"517 50 LINE SMOOTH",
"487 50 OFFCURVE",
"470 57 OFFCURVE",
"461 67 CURVE",
"461 450 LINE",
"381 450 LINE",
"381 71 LINE",
"383 71 LINE",
"389 23 OFFCURVE",
"416 -10 OFFCURVE",
"465 -10 CURVE SMOOTH"
);
}
);
width = 561;
}
);
unicode = 03BC;
},
{
color = 5;
glyphname = "alef-hb";
layers = (
{
anchors = (
{
name = bottom;
position = "{245, 0}";
},
{
name = bottomleft;
position = "{15, 0}";
},
{
name = center;
position = "{285, 324}";
},
{
name = top;
position = "{367, 800}";
},
{
name = topleft;
position = "{7, 604}";
}
);
layerId = m01;
paths = (
{
closed = 1;
nodes = (
"70 -29 OFFCURVE",
"62 -8 OFFCURVE",
"62 11 CURVE SMOOTH",
"62 40 OFFCURVE",
"67 76 OFFCURVE",
"67 105 CURVE SMOOTH",
"67 146 OFFCURVE",
"60 219 OFFCURVE",
"60 261 CURVE SMOOTH",
"60 402 OFFCURVE",
"118 450 OFFCURVE",
"118 457 CURVE SMOOTH",
"118 462 OFFCURVE",
"113 465 OFFCURVE",
"95 467 CURVE SMOOTH",
"74 469 OFFCURVE",
"56 478 OFFCURVE",
"47 490 CURVE SMOOTH",
"39 500 OFFCURVE",
"32 545 OFFCURVE",
"32.2 560 CURVE SMOOTH",
"33 588 OFFCURVE",
"34 637 OFFCURVE",
"70 637 CURVE SMOOTH",
"80 637 OFFCURVE",
"90 635 OFFCURVE",
"99 635 CURVE SMOOTH",
"105 635 OFFCURVE",
"109 640 OFFCURVE",
"109 649 CURVE SMOOTH",
"109 714 OFFCURVE",
"158 833 OFFCURVE",
"187 862 CURVE SMOOTH",
"211 886 OFFCURVE",
"237 888 OFFCURVE",
"260 888 CURVE SMOOTH",
"295 888 OFFCURVE",
"336 870 OFFCURVE",
"336 833 CURVE SMOOTH",
"336 787 OFFCURVE",
"255 744 OFFCURVE",
"229 724 CURVE SMOOTH",
"181 687 OFFCURVE",
"158 655 OFFCURVE",
"158.2 634.9 CURVE SMOOTH",
"158 631 OFFCURVE",
"161 629 OFFCURVE",
"165.2 629.3 CURVE SMOOTH",
"199 629 OFFCURVE",
"250 636 OFFCURVE",
"284.9 636.3 CURVE SMOOTH",
"467 636 OFFCURVE",
"501 478 OFFCURVE",
"501 362 CURVE SMOOTH",
"501 245 OFFCURVE",
"430 24 OFFCURVE",
"325.5 22.4 CURVE SMOOTH",
"293 22 OFFCURVE",
"274 35 OFFCURVE",
"274 64 CURVE SMOOTH",
"274 120 OFFCURVE",
"442 188 OFFCURVE",
"442 309 CURVE SMOOTH",
"442 419 OFFCURVE",
"402 466 OFFCURVE",
"256 466 CURVE SMOOTH",
"230 466 OFFCURVE",
"200 462 OFFCURVE",
"191 459 CURVE SMOOTH",
"175 454 OFFCURVE",
"137 400 OFFCURVE",
"137 364 CURVE SMOOTH",
"138 299 OFFCURVE",
"189 192 OFFCURVE",
"189 86.1 CURVE SMOOTH",
"189 76.3 OFFCURVE",
"188.3 67.2 OFFCURVE",
"186.2 59.5 CURVE SMOOTH",
"182.7 46.9 OFFCURVE",
"172.2 33.6 OFFCURVE",
"164.5 23.1 CURVE SMOOTH",
"156.8 13.3 OFFCURVE",
"148.4 2.8 OFFCURVE",
"139.3 -5.6 CURVE SMOOTH",
"132.3 -11.2 OFFCURVE",
"125.3 -16.1 OFFCURVE",
"117.6 -20.3 CURVE SMOOTH",
"109.9 -23.8 OFFCURVE",
"98.7 -29.4 OFFCURVE",
"88.9 -29.4 CURVE SMOOTH"
);
}
);
width = 541;
},
{
anchors = (
{
name = bottom;
position = "{245, 0}";
},
{
name = bottomleft;
position = "{15, 0}";
},
{
name = center;
position = "{270, 315}";
},
{
name = top;
position = "{367, 800}";
},
{
name = topleft;
position = "{-3, 604}";
}
);
associatedMasterId = m01;
layerId = "734705CE-74CD-4122-9B6A-9A0CB9172F62";
name = "May 11, 21, 16:46";
paths = (
{
closed = 1;
nodes = (
"107.8 694.4 OFFCURVE",
"128.8 758.1 OFFCURVE",
"155.4 810.6 CURVE SMOOTH",
"163.8 828.1 OFFCURVE",
"173.6 851.9 OFFCURVE",
"188.3 865.2 CURVE SMOOTH",
"205.1 879.9 OFFCURVE",
"233.8 888.3 OFFCURVE",
"260.4 888.3 CURVE SMOOTH",
"279.3 888.3 OFFCURVE",
"297.5 884.1 OFFCURVE",
"310.1 875 CURVE SMOOTH",
"322.7 865.9 OFFCURVE",
"332.5 858.9 OFFCURVE",
"335.3 842.8 CURVE",
"335.3 839.3 OFFCURVE",
"336 835.8 OFFCURVE",
"336 833 CURVE SMOOTH",
"336 800.8 OFFCURVE",
"310.1 780.5 OFFCURVE",
"284.9 763 CURVE SMOOTH",
"255.5 742.7 OFFCURVE",
"224 721.7 OFFCURVE",
"198.1 695.8 CURVE SMOOTH",
"184.8 682.5 OFFCURVE",
"172.9 667.1 OFFCURVE",
"163.8 649.6 CURVE SMOOTH",
"162.4 646.1 OFFCURVE",
"158.2 639.8 OFFCURVE",
"158.2 634.9 CURVE SMOOTH",
"158.2 634.2 OFFCURVE",
"158.2 632.8 OFFCURVE",
"158.9 632.1 CURVE SMOOTH",
"160.3 630 OFFCURVE",
"162.4 629.3 OFFCURVE",
"165.2 629.3 CURVE SMOOTH",
"168.7 629.3 OFFCURVE",
"172.2 630 OFFCURVE",
"175 630 CURVE SMOOTH",
"191.8 630 OFFCURVE",
"207.9 630.7 OFFCURVE",
"224.7 632.8 CURVE SMOOTH",
"243.6 634.9 OFFCURVE",
"263.9 636.3 OFFCURVE",
"284.9 636.3 CURVE SMOOTH",
"323.4 636.3 OFFCURVE",
"363.3 630.7 OFFCURVE",
"395.5 613.9 CURVE SMOOTH",
"450.1 585.9 OFFCURVE",
"476 520.8 OFFCURVE",
"488.6 463.4 CURVE SMOOTH",
"496.3 428.4 OFFCURVE",
"500.5 391.3 OFFCURVE",
"500.5 353.5 CURVE SMOOTH",
"500.5 254.1 OFFCURVE",
"472.5 151.9 OFFCURVE",
"411.6 77 CURVE SMOOTH",
"392 52.5 OFFCURVE",
"365.4 26.6 OFFCURVE",
"332.5 22.4 CURVE SMOOTH",
"330.4 22.4 OFFCURVE",
"327.6 22.4 OFFCURVE",
"325.5 22.4 CURVE SMOOTH",
"310.8 22.4 OFFCURVE",
"293.3 26.6 OFFCURVE",
"284.2 36.4 CURVE SMOOTH",
"277.2 42.7 OFFCURVE",
"274.4 57.4 OFFCURVE",
"274.4 69.3 CURVE SMOOTH",
"274.4 74.2 OFFCURVE",
"274.4 78.4 OFFCURVE",
"275.8 81.9 CURVE SMOOTH",
"278.6 91 OFFCURVE",
"287 93.8 OFFCURVE",
"294.7 98.7 CURVE SMOOTH",
"306.6 105.7 OFFCURVE",
"318.5 113.4 OFFCURVE",
"329.7 121.8 CURVE SMOOTH",
"364 147.7 OFFCURVE",
"393.4 179.2 OFFCURVE",
"413.7 217 CURVE SMOOTH",
"432.6 251.3 OFFCURVE",
"442.4 290.5 OFFCURVE",
"442.4 329 CURVE SMOOTH",
"442.4 341.6 OFFCURVE",
"441.7 353.5 OFFCURVE",
"439.6 365.4 CURVE SMOOTH",
"434.7 395.5 OFFCURVE",
"421.4 424.9 OFFCURVE",
"395.5 442.4 CURVE SMOOTH",
"365.4 463.4 OFFCURVE",
"331.1 466.2 OFFCURVE",
"296.1 466.2 CURVE SMOOTH",
"287.7 466.2 OFFCURVE",
"278.6 465.5 OFFCURVE",
"270.2 465.5 CURVE SMOOTH",
"249.9 465.5 OFFCURVE",
"230.3 465.5 OFFCURVE",
"210 464.1 CURVE SMOOTH",
"208.6 464.1 OFFCURVE",
"207.9 464.1 OFFCURVE",
"206.5 464.1 CURVE SMOOTH",
"204.4 464.1 OFFCURVE",
"202.3 464.1 OFFCURVE",
"200.2 464.1 CURVE SMOOTH",
"196.7 464.1 OFFCURVE",
"193.2 463.4 OFFCURVE",
"190.4 462 CURVE SMOOTH",
"182.7 458.5 OFFCURVE",
"175.7 443.1 OFFCURVE",
"170.8 436.8 CURVE SMOOTH",
"155.4 417.2 OFFCURVE",
"138.6 393.4 OFFCURVE",
"137.2 368.2 CURVE SMOOTH",
"137.2 367.5 OFFCURVE",
"137.2 366.1 OFFCURVE",
"137.2 364.7 CURVE SMOOTH",
"137.2 351.4 OFFCURVE",
"141.4 337.4 OFFCURVE",
"144.2 324.8 CURVE SMOOTH",
"157.5 264.6 OFFCURVE",
"174.3 204.4 OFFCURVE",
"182.7 142.8 CURVE SMOOTH",
"185.5 126 OFFCURVE",
"189 105 OFFCURVE",
"189 86.1 CURVE SMOOTH",
"189 76.3 OFFCURVE",
"188.3 67.2 OFFCURVE",
"186.2 59.5 CURVE SMOOTH",
"182.7 46.9 OFFCURVE",
"172.2 33.6 OFFCURVE",
"164.5 23.1 CURVE SMOOTH",
"156.8 13.3 OFFCURVE",
"148.4 2.8 OFFCURVE",
"139.3 -5.6 CURVE SMOOTH",
"132.3 -11.2 OFFCURVE",
"125.3 -16.1 OFFCURVE",
"117.6 -20.3 CURVE SMOOTH",
"109.9 -23.8 OFFCURVE",
"98.7 -29.4 OFFCURVE",
"88.9 -29.4 CURVE SMOOTH",
"84 -29.4 OFFCURVE",
"80.5 -28 OFFCURVE",
"77 -25.9 CURVE",
"68.6 -18.9 OFFCURVE",
"65.8 0.7 OFFCURVE",
"65.8 10.5 CURVE SMOOTH",
"65.8 39.9 OFFCURVE",
"64.4 69.3 OFFCURVE",
"64.4 98 CURVE SMOOTH",
"64.4 144.9 OFFCURVE",
"63 191.8 OFFCURVE",
"62.3 238 CURVE SMOOTH",
"62.3 243.6 OFFCURVE",
"62.3 249.9 OFFCURVE",
"62.3 255.5 CURVE SMOOTH",
"62.3 296.8 OFFCURVE",
"64.4 336.7 OFFCURVE",
"76.3 377.3 CURVE SMOOTH",
"82.6 398.3 OFFCURVE",
"91.7 417.9 OFFCURVE",
"103.6 436.8 CURVE SMOOTH",
"109.2 445.9 OFFCURVE",
"119 454.3 OFFCURVE",
"123.2 463.4 CURVE",
"102.2 464.1 OFFCURVE",
"67.2 469.7 OFFCURVE",
"51.8 485.1 CURVE SMOOTH",
"43.4 493.5 OFFCURVE",
"40.6 505.4 OFFCURVE",
"37.8 516.6 CURVE SMOOTH",
"33.6 530.6 OFFCURVE",
"32.2 545.3 OFFCURVE",
"32.2 560 CURVE SMOOTH",
"32.2 571.2 OFFCURVE",
"32.9 583.1 OFFCURVE",
"35 594.3 CURVE SMOOTH",
"37.1 605.5 OFFCURVE",
"39.2 620.9 OFFCURVE",
"48.3 628.6 CURVE SMOOTH",
"56 634.9 OFFCURVE",
"67.2 636.3 OFFCURVE",
"79.1 636.3 CURVE SMOOTH",
"88.9 636.3 OFFCURVE",
"99.4 634.9 OFFCURVE",
"107.8 634.9 CURVE"
);
}
);
width = 541;
},
{
anchors = (
{
name = bottom;
position = "{245, 0}";
},
{
name = bottomleft;
position = "{15, 0}";
},
{
name = center;
position = "{285, 324}";
},
{
name = top;
position = "{367, 800}";
},
{
name = topleft;
position = "{7, 604}";
}
);
layerId = m002;
paths = (
{
closed = 1;
nodes = (
"70 -29 OFFCURVE",
"62 -8 OFFCURVE",
"62 11 CURVE SMOOTH",
"62 40 OFFCURVE",
"67 76 OFFCURVE",
"67 105 CURVE SMOOTH",
"67 146 OFFCURVE",
"60 219 OFFCURVE",
"60 261 CURVE SMOOTH",
"60 402 OFFCURVE",
"118 450 OFFCURVE",
"118 457 CURVE SMOOTH",
"118 462 OFFCURVE",
"113 465 OFFCURVE",
"95 467 CURVE SMOOTH",
"74 469 OFFCURVE",
"56 478 OFFCURVE",
"47 490 CURVE SMOOTH",
"39 500 OFFCURVE",
"32 545 OFFCURVE",
"32.2 560 CURVE SMOOTH",
"33 588 OFFCURVE",
"34 637 OFFCURVE",
"70 637 CURVE SMOOTH",
"80 637 OFFCURVE",
"90 635 OFFCURVE",
"99 635 CURVE SMOOTH",
"105 635 OFFCURVE",
"109 640 OFFCURVE",
"109 649 CURVE SMOOTH",
"109 714 OFFCURVE",
"158 833 OFFCURVE",
"187 862 CURVE SMOOTH",
"211 886 OFFCURVE",
"237 888 OFFCURVE",
"260 888 CURVE SMOOTH",
"295 888 OFFCURVE",
"336 870 OFFCURVE",
"336 833 CURVE SMOOTH",
"336 787 OFFCURVE",
"255 744 OFFCURVE",
"229 724 CURVE SMOOTH",
"181 687 OFFCURVE",
"158 655 OFFCURVE",
"158.2 634.9 CURVE SMOOTH",
"158 631 OFFCURVE",
"161 629 OFFCURVE",
"165.2 629.3 CURVE SMOOTH",
"199 629 OFFCURVE",
"250 636 OFFCURVE",
"284.9 636.3 CURVE SMOOTH",
"467 636 OFFCURVE",
"501 478 OFFCURVE",
"501 362 CURVE SMOOTH",
"501 245 OFFCURVE",
"430 24 OFFCURVE",
"325.5 22.4 CURVE SMOOTH",
"293 22 OFFCURVE",
"274 35 OFFCURVE",
"274 64 CURVE SMOOTH",
"274 120 OFFCURVE",
"442 188 OFFCURVE",
"442 309 CURVE SMOOTH",
"442 419 OFFCURVE",
"402 466 OFFCURVE",
"256 466 CURVE SMOOTH",
"230 466 OFFCURVE",
"200 462 OFFCURVE",
"191 459 CURVE SMOOTH",
"175 454 OFFCURVE",
"137 400 OFFCURVE",
"137 364 CURVE SMOOTH",
"138 299 OFFCURVE",
"189 192 OFFCURVE",
"189 86.1 CURVE SMOOTH",
"189 76.3 OFFCURVE",
"188.3 67.2 OFFCURVE",
"186.2 59.5 CURVE SMOOTH",
"182.7 46.9 OFFCURVE",
"172.2 33.6 OFFCURVE",
"164.5 23.1 CURVE SMOOTH",
"156.8 13.3 OFFCURVE",
"148.4 2.8 OFFCURVE",
"139.3 -5.6 CURVE SMOOTH",
"132.3 -11.2 OFFCURVE",
"125.3 -16.1 OFFCURVE",
"117.6 -20.3 CURVE SMOOTH",
"109.9 -23.8 OFFCURVE",
"98.7 -29.4 OFFCURVE",
"88.9 -29.4 CURVE SMOOTH"
);
}
);
width = 541;
}
);
unicode = 05D0;
},
{
color = 5;
glyphname = "bet-hb";
layers = (
{
anchors = (
{
name = bottom;
position = "{233, 0}";
},
{
name = center;
position = "{130, 335}";
}
);
layerId = m01;
paths = (
{
closed = 1;
nodes = (
"34 -27 OFFCURVE",
"25 -20 OFFCURVE",
"25 27 CURVE SMOOTH",
"25 108 OFFCURVE",
"41 141 OFFCURVE",
"72 141 CURVE SMOOTH",
"219 141 OFFCURVE",
"347 147 OFFCURVE",
"347 196 CURVE SMOOTH",
"347 252 OFFCURVE",
"245 298 OFFCURVE",
"245 322 CURVE SMOOTH",
"245 361 OFFCURVE",
"292 431 OFFCURVE",
"292 467 CURVE SMOOTH",
"292 474 OFFCURVE",
"289 480 OFFCURVE",
"255 480 CURVE SMOOTH",
"204 480 OFFCURVE",
"191 473 OFFCURVE",
"149 473 CURVE SMOOTH",
"85 473 OFFCURVE",
"52 488 OFFCURVE",
"52 556 CURVE SMOOTH",
"52 597 OFFCURVE",
"58 624 OFFCURVE",
"58 665 CURVE SMOOTH",
"58 687 OFFCURVE",
"66 699 OFFCURVE",
"104 699 CURVE SMOOTH",
"111 699 OFFCURVE",
"113 695 OFFCURVE",
"115 684 CURVE SMOOTH",
"119 663 OFFCURVE",
"141 638 OFFCURVE",
"180 638 CURVE SMOOTH",
"195 638 OFFCURVE",
"321 640 OFFCURVE",
"376 640 CURVE SMOOTH",
"392 640 OFFCURVE",
"400 634 OFFCURVE",
"400 624 CURVE SMOOTH",
"400 582 OFFCURVE",
"351 483 OFFCURVE",
"351 457 CURVE SMOOTH",
"351 432 OFFCURVE",
"426 338 OFFCURVE",
"426 254 CURVE SMOOTH",
"426 98 OFFCURVE",
"242 -27 OFFCURVE",
"66 -27 CURVE SMOOTH"
);
}
);
width = 465;
},
{
anchors = (
{
name = center;
position = "{150, 315}";
}
);
associatedMasterId = m01;
layerId = "CB7A08CF-58C0-4938-A993-D86D5D5DC970";
name = "May 11, 21, 17:13";
paths = (
{
closed = 1;
nodes = (
"277.2 478.1 OFFCURVE",
"259 480.2 OFFCURVE",
"241.5 480.2 CURVE SMOOTH",
"230.3 480.2 OFFCURVE",
"219.8 479.5 OFFCURVE",
"209.3 478.1 CURVE SMOOTH",
"197.4 476.7 OFFCURVE",
"186.2 473.2 OFFCURVE",
"174.3 472.5 CURVE SMOOTH",
"172.9 472.5 OFFCURVE",
"170.8 472.5 OFFCURVE",
"169.4 472.5 CURVE SMOOTH",
"155.4 472.5 OFFCURVE",
"141.4 475.3 OFFCURVE",
"127.4 477.4 CURVE SMOOTH",
"110.6 479.5 OFFCURVE",
"91.7 476 OFFCURVE",
"77.7 487.2 CURVE SMOOTH",
"57.4 504 OFFCURVE",
"51.8 529.9 OFFCURVE",
"51.8 557.2 CURVE SMOOTH",
"51.8 584.5 OFFCURVE",
"57.4 612.5 OFFCURVE",
"58.1 634.9 CURVE SMOOTH",
"58.8 651.7 OFFCURVE",
"56 679.7 OFFCURVE",
"69.3 693 CURVE SMOOTH",
"74.2 697.9 OFFCURVE",
"82.6 699.3 OFFCURVE",
"91.7 699.3 CURVE SMOOTH",
"99.4 699.3 OFFCURVE",
"107.8 697.9 OFFCURVE",
"113.4 697.9 CURVE",
"114.8 663.6 OFFCURVE",
"142.1 642.6 OFFCURVE",
"174.3 638.4 CURVE SMOOTH",
"187.6 637 OFFCURVE",
"201.6 637 OFFCURVE",
"215.6 637 CURVE SMOOTH",
"236.6 637 LINE SMOOTH",
"241.5 637 OFFCURVE",
"246.4 637 OFFCURVE",
"252 637 CURVE SMOOTH",
"301 635.6 OFFCURVE",
"350 634.9 OFFCURVE",
"399.7 634.9 CURVE",
"396.9 597.8 OFFCURVE",
"385.7 558.6 OFFCURVE",
"372.4 524.3 CURVE SMOOTH",
"366.8 510.3 OFFCURVE",
"363.3 496.3 OFFCURVE",
"358.4 482.3 CURVE SMOOTH",
"356.3 475.3 OFFCURVE",
"351.4 466.2 OFFCURVE",
"351.4 458.5 CURVE SMOOTH",
"351.4 457.8 OFFCURVE",
"351.4 457.8 OFFCURVE",
"351.4 457.1 CURVE SMOOTH",
"352.8 445.2 OFFCURVE",
"364 431.9 OFFCURVE",
"368.9 420.7 CURVE SMOOTH",
"382.2 392.7 OFFCURVE",
"396.9 365.4 OFFCURVE",
"408.8 336.7 CURVE SMOOTH",
"419.3 310.8 OFFCURVE",
"425.6 282.1 OFFCURVE",
"425.6 254.1 CURVE SMOOTH",
"425.6 236.6 OFFCURVE",
"423.5 219.1 OFFCURVE",
"418.6 203 CURVE SMOOTH",
"409.5 170.8 OFFCURVE",
"388.5 137.9 OFFCURVE",
"368.2 110.6 CURVE SMOOTH",
"310.8 34.3 OFFCURVE",
"215.6 -8.4 OFFCURVE",
"122.5 -21.7 CURVE SMOOTH",
"106.4 -23.8 OFFCURVE",
"87.5 -27.3 OFFCURVE",
"70 -27.3 CURVE SMOOTH",
"63.7 -27.3 OFFCURVE",
"57.4 -26.6 OFFCURVE",
"51.8 -25.9 CURVE SMOOTH",
"43.4 -23.8 OFFCURVE",
"31.5 -21.7 OFFCURVE",
"28.7 -12.6 CURVE SMOOTH",
"25.9 -0.7 OFFCURVE",
"24.5 13.3 OFFCURVE",
"24.5 27.3 CURVE SMOOTH",
"24.5 35.7 OFFCURVE",
"25.2 44.1 OFFCURVE",
"25.9 51.8 CURVE SMOOTH",
"29.4 77.7 OFFCURVE",
"30.1 120.4 OFFCURVE",
"53.2 137.9 CURVE SMOOTH",
"58.8 141.4 OFFCURVE",
"65.8 140.7 OFFCURVE",
"72.1 140.7 CURVE SMOOTH",
"83.3 141.4 OFFCURVE",
"95.2 140.7 OFFCURVE",
"105.7 142.1 CURVE SMOOTH",
"114.1 143.5 OFFCURVE",
"122.5 143.5 OFFCURVE",
"130.9 143.5 CURVE SMOOTH",
"142.8 143.5 OFFCURVE",
"154.7 142.8 OFFCURVE",
"166.6 142.8 CURVE SMOOTH",
"205.1 142.8 OFFCURVE",
"246.4 143.5 OFFCURVE",
"284.9 153.3 CURVE SMOOTH",
"301 157.5 OFFCURVE",
"332.5 163.8 OFFCURVE",
"341.6 179.2 CURVE SMOOTH",
"345.1 184.8 OFFCURVE",
"346.5 190.4 OFFCURVE",
"346.5 196 CURVE SMOOTH",
"346.5 205.8 OFFCURVE",
"343 215.6 OFFCURVE",
"337.4 224.7 CURVE SMOOTH",
"322 252.7 OFFCURVE",
"296.8 273 OFFCURVE",
"272.3 293.3 CURVE SMOOTH",
"265.3 298.9 OFFCURVE",
"248.5 308 OFFCURVE",
"245.7 317.1 CURVE SMOOTH",
"245 317.8 OFFCURVE",
"245 319.2 OFFCURVE",
"245 320.6 CURVE SMOOTH",
"245 324.1 OFFCURVE",
"246.4 327.6 OFFCURVE",
"246.4 330.4 CURVE SMOOTH",
"248.5 343 OFFCURVE",
"250.6 355.6 OFFCURVE",
"255.5 367.5 CURVE SMOOTH",
"269.5 401.8 OFFCURVE",
"286.3 436.8 OFFCURVE",
"293.3 473.2 CURVE"
);
}
);
width = 465;
},
{
anchors = (
{
name = bottom;
position = "{233, 0}";
},
{
name = center;
position = "{130, 335}";
}
);
layerId = m002;
paths = (
{
closed = 1;
nodes = (
"34 -27 OFFCURVE",
"25 -20 OFFCURVE",
"25 27 CURVE SMOOTH",
"25 108 OFFCURVE",
"41 141 OFFCURVE",
"72 141 CURVE SMOOTH",
"219 141 OFFCURVE",
"347 147 OFFCURVE",
"347 196 CURVE SMOOTH",
"347 252 OFFCURVE",
"245 298 OFFCURVE",
"245 322 CURVE SMOOTH",
"245 361 OFFCURVE",
"292 431 OFFCURVE",
"292 467 CURVE SMOOTH",
"292 474 OFFCURVE",
"289 480 OFFCURVE",
"255 480 CURVE SMOOTH",
"204 480 OFFCURVE",
"191 473 OFFCURVE",
"149 473 CURVE SMOOTH",
"85 473 OFFCURVE",
"52 488 OFFCURVE",
"52 556 CURVE SMOOTH",
"52 597 OFFCURVE",
"58 624 OFFCURVE",
"58 665 CURVE SMOOTH",
"58 687 OFFCURVE",
"66 699 OFFCURVE",
"104 699 CURVE SMOOTH",
"111 699 OFFCURVE",
"113 695 OFFCURVE",
"115 684 CURVE SMOOTH",
"119 663 OFFCURVE",
"141 638 OFFCURVE",
"180 638 CURVE SMOOTH",
"195 638 OFFCURVE",
"321 640 OFFCURVE",
"376 640 CURVE SMOOTH",
"392 640 OFFCURVE",
"400 634 OFFCURVE",
"400 624 CURVE SMOOTH",
"400 582 OFFCURVE",
"351 483 OFFCURVE",
"351 457 CURVE SMOOTH",
"351 432 OFFCURVE",
"426 338 OFFCURVE",
"426 254 CURVE SMOOTH",
"426 98 OFFCURVE",
"242 -27 OFFCURVE",
"66 -27 CURVE SMOOTH"
);
}
);
width = 465;
}
);
unicode = 05D1;
},
{
color = 5;
glyphname = "gimel-hb";
layers = (
{
anchors = (
{
name = bottom;
position = "{184, 0}";
},
{
name = center;
position = "{126, 315}";
}
);
layerId = m01;
paths = (
{
closed = 1;
nodes = (
"275 147 OFFCURVE",
"277 152 OFFCURVE",
"277 157 CURVE SMOOTH",
"277 214 OFFCURVE",
"267 329 OFFCURVE",
"231 397 CURVE SMOOTH",
"181 490 OFFCURVE",
"89 485 OFFCURVE",
"89 528 CURVE SMOOTH",
"89 570 OFFCURVE",
"127 662 OFFCURVE",
"169 662 CURVE SMOOTH",
"235 662 OFFCURVE",
"295 602 OFFCURVE",
"311 552 CURVE SMOOTH",
"345 445 OFFCURVE",
"334 206 OFFCURVE",
"334 32 CURVE SMOOTH",
"334 1 OFFCURVE",
"322 -7 OFFCURVE",
"287 -7 CURVE SMOOTH",
"280 -7 OFFCURVE",
"275 -5 OFFCURVE",
"275 0 CURVE SMOOTH",
"275 32 OFFCURVE",
"278 65 OFFCURVE",
"278 79 CURVE SMOOTH",
"278 100 OFFCURVE",
"265 108 OFFCURVE",
"239 108 CURVE SMOOTH",
"166 108 OFFCURVE",
"176 -15 OFFCURVE",
"74 -15 CURVE SMOOTH",
"34 -15 OFFCURVE",
"-30 8 OFFCURVE",
"-30 45 CURVE SMOOTH",
"-30 56 OFFCURVE",
"15 56 OFFCURVE",
"30 111 CURVE SMOOTH",
"41 150 OFFCURVE",
"67 195 OFFCURVE",
"132 195 CURVE SMOOTH",
"201 195 OFFCURVE",
"262 147 OFFCURVE",
"270 147 CURVE SMOOTH"
);
}
);
width = 402;
},
{
anchors = (
{
name = center;
position = "{150, 315}";
}
);
associatedMasterId = m01;
layerId = "610DDF41-CC7E-4C90-905C-C8356B140EDD";
name = "May 12, 21, 05:38";
paths = (
{
closed = 1;
nodes = (
"300 154 OFFCURVE",
"301 165 OFFCURVE",
"301 175 CURVE SMOOTH",
"301 192 OFFCURVE",
"298 208 OFFCURVE",
"297 225 CURVE SMOOTH",
"290 296 OFFCURVE",
"279 384 OFFCURVE",
"227 437 CURVE SMOOTH",
"210 454 OFFCURVE",
"190 470 OFFCURVE",
"168 480 CURVE SMOOTH",
"150 489 OFFCURVE",
"123 495 OFFCURVE",
"116 517 CURVE SMOOTH",
"114 520 OFFCURVE",
"113 524 OFFCURVE",
"113 528 CURVE SMOOTH",
"113 535 OFFCURVE",
"115 542 OFFCURVE",
"116 548 CURVE SMOOTH",
"120 580 OFFCURVE",
"132 610 OFFCURVE",
"153 635 CURVE SMOOTH",
"160 643 OFFCURVE",
"172 659 OFFCURVE",
"183 661 CURVE SMOOTH",
"187 662 OFFCURVE",
"190 662 OFFCURVE",
"193 662 CURVE SMOOTH",
"239 662 OFFCURVE",
"280 623 OFFCURVE",
"310 592 CURVE SMOOTH",
"349 552 OFFCURVE",
"354 485 OFFCURVE",
"355 433 CURVE SMOOTH",
"357 333 OFFCURVE",
"358 232 OFFCURVE",
"358 132 CURVE SMOOTH",
"358 32 LINE SMOOTH",
"358 22 OFFCURVE",
"355 1 OFFCURVE",
"345 -5 CURVE",
"343 -7 OFFCURVE",
"340 -7 OFFCURVE",
"337 -7 CURVE SMOOTH",
"335 -7 OFFCURVE",
"333 -7 OFFCURVE",
"332 -7 CURVE SMOOTH",
"300 -7 LINE",
"300 57 LINE SMOOTH",
"300 63 OFFCURVE",
"301 70 OFFCURVE",
"301 76 CURVE SMOOTH",
"301 81 OFFCURVE",
"301 84 OFFCURVE",
"300 88 CURVE SMOOTH",
"295 102 OFFCURVE",
"280 108 OFFCURVE",
"264 108 CURVE SMOOTH",
"250 108 OFFCURVE",
"235 103 OFFCURVE",
"227 96 CURVE SMOOTH",
"195 69 OFFCURVE",
"187 21 OFFCURVE",
"150 -1 CURVE SMOOTH",
"134 -11 OFFCURVE",
"116 -15 OFFCURVE",
"98 -15 CURVE SMOOTH",
"76 -15 OFFCURVE",
"53 -9 OFFCURVE",
"33 1 CURVE SMOOTH",
"15 12 OFFCURVE",
"-2 23 OFFCURVE",
"-6 45 CURVE",
"17 53 OFFCURVE",
"37 68 OFFCURVE",
"47 90 CURVE SMOOTH",
"57 113 OFFCURVE",
"55 136 OFFCURVE",
"72 155 CURVE SMOOTH",
"80 164 OFFCURVE",
"88 172 OFFCURVE",
"97 178 CURVE SMOOTH",
"116 190 OFFCURVE",
"136 195 OFFCURVE",
"156 195 CURVE SMOOTH",
"205 195 OFFCURVE",
"256 167 OFFCURVE",
"297 143 CURVE"
);
}
);
width = 426;
},
{
anchors = (
{
name = bottom;
position = "{184, 0}";
},
{
name = center;
position = "{126, 315}";
}
);
layerId = m002;
paths = (
{
closed = 1;
nodes = (
"275 147 OFFCURVE",
"277 152 OFFCURVE",
"277 157 CURVE SMOOTH",
"277 214 OFFCURVE",
"267 329 OFFCURVE",
"231 397 CURVE SMOOTH",
"181 490 OFFCURVE",
"89 485 OFFCURVE",
"89 528 CURVE SMOOTH",
"89 570 OFFCURVE",
"127 662 OFFCURVE",
"169 662 CURVE SMOOTH",
"235 662 OFFCURVE",
"295 602 OFFCURVE",
"311 552 CURVE SMOOTH",
"345 445 OFFCURVE",
"334 206 OFFCURVE",
"334 32 CURVE SMOOTH",
"334 1 OFFCURVE",
"322 -7 OFFCURVE",
"287 -7 CURVE SMOOTH",
"280 -7 OFFCURVE",
"275 -5 OFFCURVE",
"275 0 CURVE SMOOTH",
"275 32 OFFCURVE",
"278 65 OFFCURVE",
"278 79 CURVE SMOOTH",
"278 100 OFFCURVE",
"265 108 OFFCURVE",
"239 108 CURVE SMOOTH",
"166 108 OFFCURVE",
"176 -15 OFFCURVE",
"74 -15 CURVE SMOOTH",
"34 -15 OFFCURVE",
"-30 8 OFFCURVE",
"-30 45 CURVE SMOOTH",
"-30 56 OFFCURVE",
"15 56 OFFCURVE",
"30 111 CURVE SMOOTH",
"41 150 OFFCURVE",
"67 195 OFFCURVE",
"132 195 CURVE SMOOTH",
"201 195 OFFCURVE",
"262 147 OFFCURVE",
"270 147 CURVE SMOOTH"
);
}
);
width = 402;
}
);
unicode = 05D2;
},
{
color = 5;
glyphname = "dalet-hb";
layers = (
{
anchors = (
{
name = bottom;
position = "{288, 0}";
},
{
name = center;
position = "{182, 348}";
}
);
layerId = m01;
paths = (
{
closed = 1;
nodes = (
"258 -29 OFFCURVE",
"199 37 OFFCURVE",
"199 71 CURVE SMOOTH",
"199 156 OFFCURVE",
"371 380 OFFCURVE",
"371 459.9 CURVE SMOOTH",
"371 470 OFFCURVE",
"363 476 OFFCURVE",
"347 476 CURVE SMOOTH",
"276 476 OFFCURVE",
"155 464 OFFCURVE",
"123 464 CURVE SMOOTH",
"66 464 OFFCURVE",
"28 480 OFFCURVE",
"28 545 CURVE SMOOTH",
"28 600 OFFCURVE",
"41 673 OFFCURVE",
"44 683 CURVE SMOOTH",
"46 690 OFFCURVE",
"53 694 OFFCURVE",
"65 694 CURVE SMOOTH",
"79 694 OFFCURVE",
"90 690 OFFCURVE",
"93 680 CURVE SMOOTH",
"99 660 OFFCURVE",
"109 634 OFFCURVE",
"164.5 633.5 CURVE SMOOTH",
"177 633 OFFCURVE",
"415 639 OFFCURVE",
"448 639 CURVE SMOOTH",
"470 639 OFFCURVE",
"479 620 OFFCURVE",
"478.8 585.2 CURVE SMOOTH",
"479 515 OFFCURVE",
"426 502 OFFCURVE",
"426 470 CURVE SMOOTH",
"426 457 OFFCURVE",
"430 441 OFFCURVE",
"430 429 CURVE SMOOTH",
"430 349 OFFCURVE",
"348 -29 OFFCURVE",
"302 -29 CURVE SMOOTH"
);
}
);
width = 501;
},
{
anchors = (
{
name = center;
position = "{186, 348}";
}
);
associatedMasterId = m01;
layerId = "C5009804-811E-4614-81CC-9BC809BD5068";
name = "May 12, 21, 07:29";
paths = (
{
closed = 1;
nodes = (
"88.2 694.4 LINE",
"92.4 674.8 OFFCURVE",
"104.3 648.2 OFFCURVE",
"123.2 639.8 CURVE SMOOTH",
"135.8 634.9 OFFCURVE",
"149.8 633.5 OFFCURVE",
"164.5 633.5 CURVE SMOOTH",
"179.2 633.5 OFFCURVE",
"193.2 634.9 OFFCURVE",
"205.8 634.9 CURVE SMOOTH",
"374.5 634.9 LINE",
"443.1 634.9 LINE SMOOTH",
"447.3 634.9 OFFCURVE",
"450.8 634.9 OFFCURVE",
"453.6 634.9 CURVE SMOOTH",
"461.3 634.9 OFFCURVE",
"467.6 633.5 OFFCURVE",
"471.1 624.4 CURVE SMOOTH",
"476 611.8 OFFCURVE",
"478.8 598.5 OFFCURVE",
"478.8 585.2 CURVE SMOOTH",
"478.8 560 OFFCURVE",
"470.4 534.8 OFFCURVE",
"456.4 514.5 CURVE SMOOTH",
"447.3 501.2 OFFCURVE",
"431.2 497 OFFCURVE",
"427.7 480.2 CURVE SMOOTH",
"426.3 476 OFFCURVE",
"426.3 471.8 OFFCURVE",
"426.3 466.9 CURVE SMOOTH",
"426.3 454.3 OFFCURVE",
"429.1 441 OFFCURVE",
"429.1 429.1 CURVE SMOOTH",
"429.1 428.4 OFFCURVE",
"429.1 427.7 OFFCURVE",
"428.4 427 CURVE",
"428.4 400.4 OFFCURVE",
"423.5 373.1 OFFCURVE",
"418.6 347.2 CURVE SMOOTH",
"404.6 264.6 OFFCURVE",
"376.6 184.1 OFFCURVE",
"359.8 102.2 CURVE SMOOTH",
"354.2 73.5 OFFCURVE",
"345.8 44.8 OFFCURVE",
"336.7 17.5 CURVE SMOOTH",
"333.2 6.3 OFFCURVE",
"329.7 -9.1 OFFCURVE",
"322 -18.2 CURVE SMOOTH",
"316.4 -25.2 OFFCURVE",
"303.8 -28.7 OFFCURVE",
"292.6 -28.7 CURVE SMOOTH",
"287 -28.7 OFFCURVE",
"282.8 -28 OFFCURVE",
"279.3 -26.6 CURVE SMOOTH",
"269.5 -22.4 OFFCURVE",
"261.1 -14.7 OFFCURVE",
"253.4 -8.4 CURVE SMOOTH",
"231 10.5 OFFCURVE",
"199 39 OFFCURVE",
"199 71 CURVE SMOOTH",
"199 71 OFFCURVE",
"198.8 71.4 OFFCURVE",
"198.8 72.1 CURVE SMOOTH",
"199.5 112.7 OFFCURVE",
"223 152 OFFCURVE",
"241.5 186.9 CURVE SMOOTH",
"332.5 359.8 LINE SMOOTH",
"346.5 386.4 OFFCURVE",
"370.3 416.5 OFFCURVE",
"370.3 447.3 CURVE SMOOTH",
"370.3 450.8 OFFCURVE",
"371 455 OFFCURVE",
"371 459.9 CURVE SMOOTH",
"371 462.7 OFFCURVE",
"371 465.5 OFFCURVE",
"369.6 467.6 CURVE SMOOTH",
"367.5 472.5 OFFCURVE",
"354.9 471.8 OFFCURVE",
"350 472.5 CURVE SMOOTH",
"336.7 473.9 OFFCURVE",
"321.3 475.3 OFFCURVE",
"307.3 475.3 CURVE SMOOTH",
"299.6 475.3 OFFCURVE",
"291.9 474.6 OFFCURVE",
"284.9 473.9 CURVE SMOOTH",
"272.3 472.5 OFFCURVE",
"259 473.2 OFFCURVE",
"245.7 472.5 CURVE SMOOTH",
"211.4 470.4 OFFCURVE",
"177.1 468.3 OFFCURVE",
"142.8 466.9 CURVE SMOOTH",
"136.5 466.2 OFFCURVE",
"130.2 466.2 OFFCURVE",
"123.2 466.2 CURVE SMOOTH",
"98.7 466.2 OFFCURVE",
"72.1 469 OFFCURVE",
"52.5 483 CURVE SMOOTH",
"33.6 496.3 OFFCURVE",
"30.8 524.3 OFFCURVE",
"30.1 545.3 CURVE SMOOTH",
"30.1 550.2 OFFCURVE",
"30.1 555.1 OFFCURVE",
"30.1 559.3 CURVE SMOOTH",
"30.1 604.8 OFFCURVE",
"39.2 648.9 OFFCURVE",
"44.8 694.4 CURVE"
);
}
);
width = 501;
},
{
anchors = (
{
name = bottom;
position = "{288, 0}";
},
{
name = center;
position = "{182, 348}";
}
);
layerId = m002;
paths = (
{
closed = 1;
nodes = (
"258 -29 OFFCURVE",
"199 37 OFFCURVE",
"199 71 CURVE SMOOTH",
"199 156 OFFCURVE",
"371 380 OFFCURVE",
"371 459.9 CURVE SMOOTH",
"371 470 OFFCURVE",
"363 476 OFFCURVE",
"347 476 CURVE SMOOTH",
"276 476 OFFCURVE",
"155 464 OFFCURVE",
"123 464 CURVE SMOOTH",
"66 464 OFFCURVE",
"28 480 OFFCURVE",
"28 545 CURVE SMOOTH",
"28 600 OFFCURVE",
"41 673 OFFCURVE",
"44 683 CURVE SMOOTH",
"46 690 OFFCURVE",
"53 694 OFFCURVE",
"65 694 CURVE SMOOTH",
"79 694 OFFCURVE",
"90 690 OFFCURVE",
"93 680 CURVE SMOOTH",
"99 660 OFFCURVE",
"109 634 OFFCURVE",
"164.5 633.5 CURVE SMOOTH",
"177 633 OFFCURVE",
"415 639 OFFCURVE",
"448 639 CURVE SMOOTH",
"470 639 OFFCURVE",
"479 620 OFFCURVE",
"478.8 585.2 CURVE SMOOTH",
"479 515 OFFCURVE",
"426 502 OFFCURVE",
"426 470 CURVE SMOOTH",
"426 457 OFFCURVE",
"430 441 OFFCURVE",
"430 429 CURVE SMOOTH",
"430 349 OFFCURVE",
"348 -29 OFFCURVE",
"302 -29 CURVE SMOOTH"
);
}
);
width = 501;
}
);
unicode = 05D3;
},
{
color = 5;
glyphname = "he-hb";
layers = (
{
anchors = (
{
name = bottom;
position = "{291, 0}";
},
{
name = center;
position = "{309, 328}";
}
);
layerId = m01;
paths = (
{
closed = 1;
nodes = (
"133 -29 OFFCURVE",
"57 128 OFFCURVE",
"57 269 CURVE SMOOTH",
"57 300 OFFCURVE",
"62 338 OFFCURVE",
"64 345 CURVE SMOOTH",
"66 352 OFFCURVE",
"70 355 OFFCURVE",
"87 355 CURVE SMOOTH",
"102 355 OFFCURVE",
"105 352 OFFCURVE",
"106 347 CURVE SMOOTH",
"116 269 OFFCURVE",
"159 199 OFFCURVE",
"218 181 CURVE SMOOTH",
"312 152 OFFCURVE",
"321 139 OFFCURVE",
"321 68 CURVE SMOOTH",
"321 -6 OFFCURVE",
"314 -29 OFFCURVE",
"274 -29 CURVE SMOOTH"
);
},
{
closed = 1;
nodes = (
"446 105 OFFCURVE",
"422 119 OFFCURVE",
"422 145 CURVE SMOOTH",
"422 191 OFFCURVE",
"483 222 OFFCURVE",
"483 324 CURVE SMOOTH",
"483 435 OFFCURVE",
"396 468 OFFCURVE",
"283 468 CURVE SMOOTH",
"265 468 OFFCURVE",
"170 462 OFFCURVE",
"144 462 CURVE SMOOTH",
"47 462 OFFCURVE",
"46 520 OFFCURVE",
"46 568 CURVE SMOOTH",
"46 612 OFFCURVE",
"63 682 OFFCURVE",
"64 685 CURVE SMOOTH",
"67 692 OFFCURVE",
"75 691 OFFCURVE",
"90 692 CURVE SMOOTH",
"97 692 OFFCURVE",
"104 691 OFFCURVE",
"109 686 CURVE SMOOTH",
"116 680 OFFCURVE",
"113 671 OFFCURVE",
"118 664 CURVE SMOOTH",
"138 631 OFFCURVE",
"172 628 OFFCURVE",
"208 628 CURVE SMOOTH",
"242 628 OFFCURVE",
"281 634 OFFCURVE",
"316 634 CURVE SMOOTH",
"483 634 OFFCURVE",
"538 495 OFFCURVE",
"538 333 CURVE SMOOTH",
"538 265 OFFCURVE",
"519 105 OFFCURVE",
"475 105 CURVE SMOOTH"
);
}
);
width = 580;
},
{
anchors = (
{
name = center;
position = "{309, 328}";
}
);
associatedMasterId = m01;
layerId = "74F27FE5-9453-418B-BDFF-7F1DAEED82F7";
name = "May 12, 21, 07:46";
paths = (
{
closed = 1;
nodes = (
"109.2 304.5 OFFCURVE",
"128.1 248.5 OFFCURVE",
"165.2 214.2 CURVE SMOOTH",
"179.9 200.2 OFFCURVE",
"200.2 190.4 OFFCURVE",
"217.7 181.3 CURVE SMOOTH",
"245.7 166.6 OFFCURVE",
"287 165.2 OFFCURVE",
"308.7 140 CURVE SMOOTH",
"317.8 129.5 OFFCURVE",
"317.8 116.2 OFFCURVE",
"319.2 102.9 CURVE SMOOTH",
"319.9 88.2 OFFCURVE",
"320.6 72.8 OFFCURVE",
"320.6 58.1 CURVE SMOOTH",
"320.6 42 OFFCURVE",
"319.9 26.6 OFFCURVE",
"316.4 11.9 CURVE SMOOTH",
"314.3 0.7 OFFCURVE",
"310.8 -17.5 OFFCURVE",
"301 -24.5 CURVE SMOOTH",
"296.1 -28 OFFCURVE",
"288.4 -28 OFFCURVE",
"282.8 -28.7 CURVE SMOOTH",
"278.6 -28.7 OFFCURVE",
"273.7 -29.4 OFFCURVE",
"269.5 -29.4 CURVE SMOOTH",
"254.8 -29.4 OFFCURVE",
"240.1 -26.6 OFFCURVE",
"226.8 -21.7 CURVE SMOOTH",
"198.8 -11.2 OFFCURVE",
"168.7 4.9 OFFCURVE",
"147 25.2 CURVE SMOOTH",
"91.7 76.3 OFFCURVE",
"65.8 154 OFFCURVE",
"58.8 226.8 CURVE SMOOTH",
"58.1 240.8 OFFCURVE",
"57.4 254.8 OFFCURVE",
"57.4 268.8 CURVE SMOOTH",
"57.4 287.7 OFFCURVE",
"58.1 305.9 OFFCURVE",
"60.9 323.4 CURVE SMOOTH",
"61.6 330.4 OFFCURVE",
"61.6 350 OFFCURVE",
"66.5 354.2 CURVE",
"67.9 354.9 OFFCURVE",
"70 354.9 OFFCURVE",
"72.1 354.9 CURVE SMOOTH",
"74.2 354.9 OFFCURVE",
"76.3 354.9 OFFCURVE",
"77.7 354.9 CURVE SMOOTH",
"105 354.9 LINE"
);
},
{
closed = 1;
nodes = (
"69.3 692.3 OFFCURVE",
"74.9 691.6 OFFCURVE",
"77.7 691.6 CURVE SMOOTH",
"81.2 691.6 OFFCURVE",
"85.4 691.6 OFFCURVE",
"89.6 691.6 CURVE SMOOTH",
"96.6 691.6 OFFCURVE",
"103.6 690.9 OFFCURVE",
"108.5 686 CURVE SMOOTH",
"115.5 679.7 OFFCURVE",
"112.7 671.3 OFFCURVE",
"117.6 664.3 CURVE SMOOTH",
"129.5 644 OFFCURVE",
"149.1 633.5 OFFCURVE",
"172.2 631.4 CURVE SMOOTH",
"184.1 630 OFFCURVE",
"196 629.3 OFFCURVE",
"208.6 629.3 CURVE SMOOTH",
"242.9 629.3 OFFCURVE",
"277.2 632.8 OFFCURVE",
"311.5 632.8 CURVE SMOOTH",
"360.5 632.8 OFFCURVE",
"408.1 626.5 OFFCURVE",
"449.4 594.3 CURVE SMOOTH",
"480.2 570.5 OFFCURVE",
"497 533.4 OFFCURVE",
"510.3 497.7 CURVE SMOOTH",
"529.9 445.9 OFFCURVE",
"537.6 389.2 OFFCURVE",
"537.6 333.2 CURVE SMOOTH",
"537.6 297.5 OFFCURVE",
"534.8 261.8 OFFCURVE",
"529.2 227.5 CURVE SMOOTH",
"524.3 200.2 OFFCURVE",
"518.7 173.6 OFFCURVE",
"511 147 CURVE SMOOTH",
"506.8 131.6 OFFCURVE",
"503.3 117.6 OFFCURVE",
"487.9 109.2 CURVE SMOOTH",
"483 106.4 OFFCURVE",
"476.7 105 OFFCURVE",
"469.7 105 CURVE SMOOTH",
"454.3 105 OFFCURVE",
"437.5 112 OFFCURVE",
"429.1 122.5 CURVE SMOOTH",
"424.2 128.8 OFFCURVE",
"422.1 137.2 OFFCURVE",
"422.1 144.9 CURVE SMOOTH",
"422.1 149.1 OFFCURVE",
"422.8 152.6 OFFCURVE",
"423.5 156.8 CURVE SMOOTH",
"428.4 177.1 OFFCURVE",
"443.8 196.7 OFFCURVE",
"454.3 214.9 CURVE SMOOTH",
"466.2 235.9 OFFCURVE",
"474.6 259 OFFCURVE",
"478.8 282.8 CURVE SMOOTH",
"481.6 296.1 OFFCURVE",
"483 310.1 OFFCURVE",
"483 324.1 CURVE SMOOTH",
"483 333.2 OFFCURVE",
"482.3 342.3 OFFCURVE",
"480.9 350.7 CURVE SMOOTH",
"478.8 363.3 OFFCURVE",
"475.3 376.6 OFFCURVE",
"469.7 387.8 CURVE SMOOTH",
"434.7 458.5 OFFCURVE",
"352.1 466.2 OFFCURVE",
"279.3 466.2 CURVE SMOOTH",
"261.1 466.2 OFFCURVE",
"243.6 465.5 OFFCURVE",
"227.5 465.5 CURVE SMOOTH",
"208.6 465.5 OFFCURVE",
"189.7 464.8 OFFCURVE",
"170.8 464.8 CURVE SMOOTH",
"162.4 464.8 OFFCURVE",
"152.6 464.1 OFFCURVE",
"143.5 464.1 CURVE SMOOTH",
"122.5 464.1 OFFCURVE",
"101.5 466.2 OFFCURVE",
"82.6 476 CURVE SMOOTH",
"56 489.3 OFFCURVE",
"50.4 511 OFFCURVE",
"47.6 538.3 CURVE SMOOTH",
"46.2 548.8 OFFCURVE",
"46.2 558.6 OFFCURVE",
"46.2 568.4 CURVE SMOOTH",
"46.2 591.5 OFFCURVE",
"48.3 615.3 OFFCURVE",
"53.2 637.7 CURVE SMOOTH",
"55.3 651 OFFCURVE",
"58.1 663.6 OFFCURVE",
"61.6 676.9 CURVE SMOOTH",
"63 680.4 OFFCURVE",
"63.7 687.4 OFFCURVE",
"66.5 690.2 CURVE"
);
}
);
width = 580;
},
{
anchors = (
{
name = bottom;
position = "{291, 0}";
},
{
name = center;
position = "{309, 328}";
}
);
layerId = m002;
paths = (
{
closed = 1;
nodes = (
"133 -29 OFFCURVE",
"57 128 OFFCURVE",
"57 269 CURVE SMOOTH",
"57 300 OFFCURVE",
"62 338 OFFCURVE",
"64 345 CURVE SMOOTH",
"66 352 OFFCURVE",
"70 355 OFFCURVE",
"87 355 CURVE SMOOTH",
"102 355 OFFCURVE",
"105 352 OFFCURVE",
"106 347 CURVE SMOOTH",
"116 269 OFFCURVE",
"159 199 OFFCURVE",
"218 181 CURVE SMOOTH",
"312 152 OFFCURVE",
"321 139 OFFCURVE",
"321 68 CURVE SMOOTH",
"321 -6 OFFCURVE",
"314 -29 OFFCURVE",
"274 -29 CURVE SMOOTH"
);
},
{
closed = 1;
nodes = (
"446 105 OFFCURVE",
"422 119 OFFCURVE",
"422 145 CURVE SMOOTH",
"422 191 OFFCURVE",
"483 222 OFFCURVE",
"483 324 CURVE SMOOTH",
"483 435 OFFCURVE",
"396 468 OFFCURVE",
"283 468 CURVE SMOOTH",
"265 468 OFFCURVE",
"170 462 OFFCURVE",
"144 462 CURVE SMOOTH",
"47 462 OFFCURVE",
"46 520 OFFCURVE",
"46 568 CURVE SMOOTH",
"46 612 OFFCURVE",
"63 682 OFFCURVE",
"64 685 CURVE SMOOTH",
"67 692 OFFCURVE",
"75 691 OFFCURVE",
"90 692 CURVE SMOOTH",
"97 692 OFFCURVE",
"104 691 OFFCURVE",
"109 686 CURVE SMOOTH",
"116 680 OFFCURVE",
"113 671 OFFCURVE",
"118 664 CURVE SMOOTH",
"138 631 OFFCURVE",
"172 628 OFFCURVE",
"208 628 CURVE SMOOTH",
"242 628 OFFCURVE",
"281 634 OFFCURVE",
"316 634 CURVE SMOOTH",
"483 634 OFFCURVE",
"538 495 OFFCURVE",
"538 333 CURVE SMOOTH",
"538 265 OFFCURVE",
"519 105 OFFCURVE",
"475 105 CURVE SMOOTH"
);
}
);
width = 580;
}
);
unicode = 05D4;
},
{
color = 5;
glyphname = "vav-hb";
layers = (
{
anchors = (
{
name = bottom;
position = "{184, 0}";
},
{
name = bottomleft;
position = "{100, 0}";
},
{
name = center;
position = "{77, 270}";
},
{
name = top;
position = "{115, 610}";
},
{
name = topleft;
position = "{106, 630}";
}
);
layerId = m01;
paths = (
{
closed = 1;
nodes = (
"176 -17 OFFCURVE",
"172 -15 OFFCURVE",
"172 -9 CURVE SMOOTH",
"172 50 OFFCURVE",
"178 111 OFFCURVE",
"178 174 CURVE SMOOTH",
"178 282 OFFCURVE",
"156 387 OFFCURVE",
"97 443 CURVE SMOOTH",
"67 471 OFFCURVE",
"22 486 OFFCURVE",
"22 513 CURVE SMOOTH",
"22 561 OFFCURVE",
"59 656 OFFCURVE",
"106 656 CURVE SMOOTH",
"141 656 OFFCURVE",
"200 611 OFFCURVE",
"221 573 CURVE SMOOTH",
"241 538 OFFCURVE",
"248 462 OFFCURVE",
"248 420 CURVE SMOOTH",
"248 246 OFFCURVE",
"230 4 OFFCURVE",
"220 -7 CURVE SMOOTH",
"213 -15 OFFCURVE",
"195 -17 OFFCURVE",
"182 -17 CURVE SMOOTH"
);
}
);
width = 308;
},
{
anchors = (
{
name = bottom;
position = "{184, 0}";
},
{
name = bottomleft;
position = "{100, 0}";
},
{
name = center;
position = "{93, 260}";
},
{
name = top;
position = "{115, 610}";
},
{
name = topleft;
position = "{166, 610}";
}
);
associatedMasterId = m01;
layerId = "AE2493F3-090F-4792-8A58-0F1576C2A10C";
name = "May 12, 21, 08:18";
paths = (
{
closed = 1;
nodes = (
"172.2 46.2 OFFCURVE",
"177.8 110.6 OFFCURVE",
"177.8 174.3 CURVE SMOOTH",
"177.8 238 OFFCURVE",
"172.2 301 OFFCURVE",
"149.1 361.9 CURVE SMOOTH",
"134.4 401.1 OFFCURVE",
"109.2 434 OFFCURVE",
"77 459.9 CURVE SMOOTH",
"58.1 476 OFFCURVE",
"25.2 485.1 OFFCURVE",
"22.4 512.4 CURVE SMOOTH",
"22.4 514.5 OFFCURVE",
"22.4 517.3 OFFCURVE",
"22.4 520.1 CURVE SMOOTH",
"22.4 555.1 OFFCURVE",
"42 595 OFFCURVE",
"60.2 623 CURVE SMOOTH",
"69 638 OFFCURVE",
"78 651 OFFCURVE",
"97 655 CURVE SMOOTH",
"99 655 OFFCURVE",
"102 656 OFFCURVE",
"105.7 655.9 CURVE SMOOTH",
"117.6 655.9 OFFCURVE",
"129.5 651 OFFCURVE",
"140.7 645.4 CURVE SMOOTH",
"172.9 630 OFFCURVE",
"203 604.8 OFFCURVE",
"220.5 573.3 CURVE SMOOTH",
"230.3 557.2 OFFCURVE",
"234.5 536.2 OFFCURVE",
"238.7 517.3 CURVE SMOOTH",
"245 485.1 OFFCURVE",
"247.8 452.2 OFFCURVE",
"247.8 420 CURVE SMOOTH",
"247.8 410.2 OFFCURVE",
"247.1 400.4 OFFCURVE",
"247.1 390.6 CURVE SMOOTH",
"242.9 301 OFFCURVE",
"244.3 210.7 OFFCURVE",
"235.2 120.4 CURVE SMOOTH",
"232.4 89.6 OFFCURVE",
"231.7 58.8 OFFCURVE",
"227.5 28 CURVE SMOOTH",
"226.1 18.9 OFFCURVE",
"226.1 0 OFFCURVE",
"219.8 -7 CURVE SMOOTH",
"212.1 -15.4 OFFCURVE",
"195.3 -16.8 OFFCURVE",
"182 -16.8 CURVE SMOOTH",
"178.5 -16.8 OFFCURVE",
"175 -16.8 OFFCURVE",
"172.2 -16.8 CURVE"
);
}
);
width = 308;
},
{
anchors = (
{
name = bottom;
position = "{184, 0}";
},
{
name = bottomleft;
position = "{100, 0}";
},
{
name = center;
position = "{77, 270}";
},
{
name = top;
position = "{115, 610}";
},
{
name = topleft;
position = "{106, 630}";
}
);
layerId = m002;
paths = (
{
closed = 1;
nodes = (
"176 -17 OFFCURVE",
"172 -15 OFFCURVE",
"172 -9 CURVE SMOOTH",
"172 50 OFFCURVE",
"178 111 OFFCURVE",
"178 174 CURVE SMOOTH",
"178 282 OFFCURVE",
"156 387 OFFCURVE",
"97 443 CURVE SMOOTH",
"67 471 OFFCURVE",
"22 486 OFFCURVE",
"22 513 CURVE SMOOTH",
"22 561 OFFCURVE",
"59 656 OFFCURVE",
"106 656 CURVE SMOOTH",
"141 656 OFFCURVE",
"200 611 OFFCURVE",
"221 573 CURVE SMOOTH",
"241 538 OFFCURVE",
"248 462 OFFCURVE",
"248 420 CURVE SMOOTH",
"248 246 OFFCURVE",
"230 4 OFFCURVE",
"220 -7 CURVE SMOOTH",
"213 -15 OFFCURVE",
"195 -17 OFFCURVE",
"182 -17 CURVE SMOOTH"
);
}
);
width = 308;
}
);
unicode = 05D5;
},
{
color = 5;
glyphname = "zayin-hb";
layers = (
{
anchors = (
{
name = bottom;
position = "{117, 0}";
},
{
name = bottomleft;
position = "{7, 0}";
},
{
name = center;
position = "{0, 254}";
},
{
name = top;
position = "{194, 690}";
},
{
name = topleft;
position = "{67, 690}";
}
);
layerId = m01;
paths = (
{
closed = 1;
nodes = (
"91 -28 OFFCURVE",
"81 -24 OFFCURVE",
"81 -12 CURVE SMOOTH",
"81 15 OFFCURVE",
"92 116 OFFCURVE",
"92 165 CURVE SMOOTH",
"92 411 OFFCURVE",
"45 483 OFFCURVE",
"45 542 CURVE SMOOTH",
"45 587 OFFCURVE",
"138 652 OFFCURVE",
"198 652 CURVE SMOOTH",
"217 652 OFFCURVE",
"242 561 OFFCURVE",
"242 530 CURVE SMOOTH",
"242 457 OFFCURVE",
"148 425 OFFCURVE",
"148 370 CURVE SMOOTH",
"148 344 OFFCURVE",
"175 300 OFFCURVE",
"175 211 CURVE SMOOTH",
"175 167 OFFCURVE",
"153 -28 OFFCURVE",
"106 -28 CURVE SMOOTH"
);
}
);
width = 270;
},
{
anchors = (
{
name = bottom;
position = "{117, 0}";
},
{
name = bottomleft;
position = "{7, 0}";
},
{
name = center;
position = "{13, 264}";
},
{
name = top;
position = "{194, 690}";
},
{
name = topleft;
position = "{67, 690}";
}
);
associatedMasterId = m01;
layerId = "DEEC8D0F-5110-43B9-9E3D-44CC70BBD2D6";
name = "May 12, 21, 08:47";
paths = (
{
closed = 1;
nodes = (
"212.1 651.7 OFFCURVE",
"215.6 628.6 OFFCURVE",
"218.4 619.5 CURVE SMOOTH",
"227.5 591.5 OFFCURVE",
"242.2 560 OFFCURVE",
"242.2 529.9 CURVE SMOOTH",
"242.2 523.6 OFFCURVE",
"241.5 517.3 OFFCURVE",
"240.1 511.7 CURVE SMOOTH",
"231.7 475.3 OFFCURVE",
"202.3 451.5 OFFCURVE",
"178.5 425.6 CURVE SMOOTH",
"167 413 OFFCURVE",
"153 400 OFFCURVE",
"150 382 CURVE SMOOTH",
"149 378 OFFCURVE",
"148 374 OFFCURVE",
"148.4 370.3 CURVE SMOOTH",
"148.4 353.5 OFFCURVE",
"155 339 OFFCURVE",
"160 323 CURVE SMOOTH",
"166 305 OFFCURVE",
"169 285 OFFCURVE",
"172 265 CURVE SMOOTH",
"174 248 OFFCURVE",
"175 230 OFFCURVE",
"175 211.4 CURVE SMOOTH",
"175 166.6 OFFCURVE",
"153 -27 OFFCURVE",
"105.7 -26.6 CURVE SMOOTH",
"98 -27 OFFCURVE",
"81 -29 OFFCURVE",
"81.2 -17.5 CURVE SMOOTH",
"81.2 -14.7 OFFCURVE",
"92 116 OFFCURVE",
"91.7 164.5 CURVE SMOOTH",
"91 243 OFFCURVE",
"91 321 OFFCURVE",
"76 398 CURVE SMOOTH",
"69 430 OFFCURVE",
"60 459 OFFCURVE",
"52 490 CURVE SMOOTH",
"48 505 OFFCURVE",
"44.8 520.1 OFFCURVE",
"44.8 534.8 CURVE SMOOTH",
"44.8 540.4 OFFCURVE",
"45.5 545.3 OFFCURVE",
"46.2 550.2 CURVE SMOOTH",
"50.4 571.2 OFFCURVE",
"65.8 583.1 OFFCURVE",
"80.5 595.7 CURVE SMOOTH",
"113.4 624.4 OFFCURVE",
"151.2 651.7 OFFCURVE",
"196 651.7 CURVE SMOOTH",
"196.7 651.7 OFFCURVE",
"197.4 651.7 OFFCURVE",
"198.1 651.7 CURVE SMOOTH"
);
}
);
width = 270;
},
{
anchors = (
{
name = bottom;
position = "{117, 0}";
},
{
name = bottomleft;
position = "{7, 0}";
},
{
name = center;
position = "{0, 254}";
},
{
name = top;
position = "{194, 690}";
},
{
name = topleft;
position = "{67, 690}";
}
);
layerId = m002;
paths = (
{
closed = 1;
nodes = (
"91 -28 OFFCURVE",
"81 -24 OFFCURVE",
"81 -12 CURVE SMOOTH",
"81 15 OFFCURVE",
"92 116 OFFCURVE",
"92 165 CURVE SMOOTH",
"92 411 OFFCURVE",
"45 483 OFFCURVE",
"45 542 CURVE SMOOTH",
"45 587 OFFCURVE",
"138 652 OFFCURVE",
"198 652 CURVE SMOOTH",
"217 652 OFFCURVE",
"242 561 OFFCURVE",
"242 530 CURVE SMOOTH",
"242 457 OFFCURVE",
"148 425 OFFCURVE",
"148 370 CURVE SMOOTH",
"148 344 OFFCURVE",
"175 300 OFFCURVE",
"175 211 CURVE SMOOTH",
"175 167 OFFCURVE",
"153 -28 OFFCURVE",
"106 -28 CURVE SMOOTH"
);
}
);
width = 270;
}
);
unicode = 05D6;
},
{
color = 5;
glyphname = "het-hb";
layers = (
{
anchors = (
{
name = bottom;
position = "{257, 0}";
}
);
layerId = m01;
paths = (
{
closed = 1;
nodes = (
"80 -29 OFFCURVE",
"60 -13 OFFCURVE",
"60.2 7.7 CURVE SMOOTH",
"61 51 OFFCURVE",
"71 339 OFFCURVE",
"80.5 380.8 CURVE SMOOTH",
"86.8 408.8 OFFCURVE",
"113 452 OFFCURVE",
"112.7 460.6 CURVE SMOOTH",
"112 471 OFFCURVE",
"68 480 OFFCURVE",
"60 497 CURVE SMOOTH",
"56 507 OFFCURVE",
"53 536 OFFCURVE",
"53 556 CURVE SMOOTH",
"53 610 OFFCURVE",
"66 687 OFFCURVE",
"70 691 CURVE SMOOTH",
"74 695 OFFCURVE",
"87 696 OFFCURVE",
"94 696 CURVE SMOOTH",
"98 696 OFFCURVE",
"110 695 OFFCURVE",
"113 692 CURVE SMOOTH",
"120 685 OFFCURVE",
"128 655 OFFCURVE",
"146 648 CURVE SMOOTH",
"167 640 OFFCURVE",
"196 636 OFFCURVE",
"299.6 636.3 CURVE SMOOTH",
"349 636 OFFCURVE",
"383 630 OFFCURVE",
"415 613 CURVE SMOOTH",
"472 583 OFFCURVE",
"508 453 OFFCURVE",
"508 366 CURVE SMOOTH",
"508 211 OFFCURVE",
"450 22 OFFCURVE",
"314 22 CURVE SMOOTH",
"294 22 OFFCURVE",
"279 38 OFFCURVE",
"279 62 CURVE SMOOTH",
"279 95 OFFCURVE",
"325 114 OFFCURVE",
"351 129 CURVE SMOOTH",
"406 162 OFFCURVE",
"450 243 OFFCURVE",
"450.1 329.7 CURVE SMOOTH",
"450 432 OFFCURVE",
"402 468 OFFCURVE",
"314 468 CURVE SMOOTH",
"295 468 OFFCURVE",
"263 465 OFFCURVE",
"241 465 CURVE SMOOTH",
"227 465 OFFCURVE",
"208 468 OFFCURVE",
"191 468 CURVE SMOOTH",
"181 468 OFFCURVE",
"174 463 OFFCURVE",
"171 458 CURVE SMOOTH",
"163 447 OFFCURVE",
"147 402 OFFCURVE",
"147.7 380.1 CURVE SMOOTH",
"148 354 OFFCURVE",
"200 122 OFFCURVE",
"199.5 83.3 CURVE SMOOTH",
"200 35 OFFCURVE",
"132 -29 OFFCURVE",
"94 -29 CURVE SMOOTH"
);
}
);
width = 541;
},
{
associatedMasterId = m01;
layerId = "E37BF7D2-5ADF-4131-8914-0CDA0001A2D3";
name = "May 12, 21, 08:55";
paths = (
{
closed = 1;
nodes = (
"113 468 OFFCURVE",
"68 479 OFFCURVE",
"61 496 CURVE SMOOTH",
"57 506 OFFCURVE",
"53 531 OFFCURVE",
"53 556 CURVE SMOOTH",
"53 579 OFFCURVE",
"66 687 OFFCURVE",
"70 691 CURVE SMOOTH",
"74 695 OFFCURVE",
"85 695 OFFCURVE",
"92 695 CURVE SMOOTH",
"96 695 OFFCURVE",
"110.6 695.1 OFFCURVE",
"113.4 693 CURVE SMOOTH",
"119.7 688.1 OFFCURVE",
"123.2 671.3 OFFCURVE",
"127.4 664.3 CURVE SMOOTH",
"137.9 648.2 OFFCURVE",
"152.6 644 OFFCURVE",
"170.1 640.5 CURVE SMOOTH",
"191.8 636.3 OFFCURVE",
"212.8 635.6 OFFCURVE",
"234.5 635.6 CURVE SMOOTH",
"256.2 635.6 OFFCURVE",
"277.9 636.3 OFFCURVE",
"299.6 636.3 CURVE SMOOTH",
"317.1 636.3 OFFCURVE",
"334.6 635.6 OFFCURVE",
"352.1 633.5 CURVE SMOOTH",
"378 629.3 OFFCURVE",
"406.7 622.3 OFFCURVE",
"427 604.8 CURVE SMOOTH",
"459.2 576.1 OFFCURVE",
"477.4 528.5 OFFCURVE",
"488.6 487.9 CURVE SMOOTH",
"501.2 443.1 OFFCURVE",
"508.2 394.8 OFFCURVE",
"508.2 345.8 CURVE SMOOTH",
"508.2 278.6 OFFCURVE",
"495.6 210.7 OFFCURVE",
"467.6 151.9 CURVE SMOOTH",
"444.5 102.9 OFFCURVE",
"414.4 53.2 OFFCURVE",
"361.9 32.2 CURVE SMOOTH",
"347.9 27.3 OFFCURVE",
"333.9 24.5 OFFCURVE",
"319.2 23.1 CURVE SMOOTH",
"316.4 23.1 OFFCURVE",
"312.9 22.4 OFFCURVE",
"310.1 22.4 CURVE SMOOTH",
"307.3 22.4 OFFCURVE",
"304.5 23.1 OFFCURVE",
"301.7 24.5 CURVE SMOOTH",
"294 28.7 OFFCURVE",
"290.5 36.4 OFFCURVE",
"286.3 43.4 CURVE SMOOTH",
"282.1 50.4 OFFCURVE",
"279.3 55.3 OFFCURVE",
"279.3 61.6 CURVE SMOOTH",
"279.3 63 OFFCURVE",
"279.3 65.1 OFFCURVE",
"280 67.2 CURVE SMOOTH",
"286.3 101.5 OFFCURVE",
"325.5 112 OFFCURVE",
"351.4 128.8 CURVE SMOOTH",
"379.4 147 OFFCURVE",
"403.9 176.4 OFFCURVE",
"420 205.8 CURVE SMOOTH",
"440.3 243.6 OFFCURVE",
"450.1 287 OFFCURVE",
"450.1 329.7 CURVE SMOOTH",
"450.1 338.8 OFFCURVE",
"449.4 347.9 OFFCURVE",
"448.7 357 CURVE SMOOTH",
"445.9 385 OFFCURVE",
"440.3 410.9 OFFCURVE",
"420 432.6 CURVE SMOOTH",
"403.9 450.1 OFFCURVE",
"380.8 458.5 OFFCURVE",
"357.7 462.7 CURVE SMOOTH",
"336.7 466.9 OFFCURVE",
"315.7 468.3 OFFCURVE",
"294 468.3 CURVE SMOOTH",
"272.3 468.3 OFFCURVE",
"250.6 466.9 OFFCURVE",
"228.9 465.5 CURVE SMOOTH",
"225.4 465.5 OFFCURVE",
"221.9 465.5 OFFCURVE",
"219.1 465.5 CURVE SMOOTH",
"208.6 465.5 OFFCURVE",
"198.8 466.2 OFFCURVE",
"189 466.9 CURVE SMOOTH",
"185.5 466.9 OFFCURVE",
"181.3 468.3 OFFCURVE",
"177.1 468.3 CURVE SMOOTH",
"175.7 468.3 OFFCURVE",
"164.5 447.3 OFFCURVE",
"162.4 442.4 CURVE SMOOTH",
"155.4 422.1 OFFCURVE",
"147.7 401.8 OFFCURVE",
"147.7 380.1 CURVE SMOOTH",
"147.7 373.1 OFFCURVE",
"148.4 366.1 OFFCURVE",
"150.5 358.4 CURVE SMOOTH",
"158.2 329.7 OFFCURVE",
"160.3 298.2 OFFCURVE",
"166.6 269.5 CURVE SMOOTH",
"175.7 224 OFFCURVE",
"188.3 177.8 OFFCURVE",
"193.9 132.3 CURVE SMOOTH",
"195.3 117.6 OFFCURVE",
"199.5 99.4 OFFCURVE",
"199.5 83.3 CURVE SMOOTH",
"199.5 76.3 OFFCURVE",
"198.8 70 OFFCURVE",
"196.7 64.4 CURVE SMOOTH",
"194.6 55.3 OFFCURVE",
"188.3 46.2 OFFCURVE",
"183.4 39.2 CURVE SMOOTH",
"166.6 12.6 OFFCURVE",
"142.8 -13.3 OFFCURVE",
"112.7 -24.5 CURVE SMOOTH",
"107.1 -26.6 OFFCURVE",
"99.4 -29.4 OFFCURVE",
"92.4 -29.4 CURVE SMOOTH",
"91 -29.4 OFFCURVE",
"89.6 -28.7 OFFCURVE",
"88.9 -28.7 CURVE SMOOTH",
"76.3 -26.6 OFFCURVE",
"63.7 -9.1 OFFCURVE",
"60.9 2.8 CURVE",
"60.9 4.2 OFFCURVE",
"60.2 6.3 OFFCURVE",
"60.2 7.7 CURVE SMOOTH",
"60.2 11.9 OFFCURVE",
"61.6 16.1 OFFCURVE",
"61.6 20.3 CURVE SMOOTH",
"61.6 32.9 OFFCURVE",
"61.6 45.5 OFFCURVE",
"62.3 58.1 CURVE SMOOTH",
"64.4 88.9 OFFCURVE",
"63 119 OFFCURVE",
"65.1 149.8 CURVE SMOOTH",
"68.6 200.2 OFFCURVE",
"69.3 250.6 OFFCURVE",
"72.8 301.7 CURVE SMOOTH",
"74.9 327.6 OFFCURVE",
"74.9 355.6 OFFCURVE",
"80.5 380.8 CURVE SMOOTH",
"86.8 408.8 OFFCURVE",
"112 454 OFFCURVE",
"112.7 460.6 CURVE SMOOTH"
);
}
);
width = 541;
},
{
anchors = (
{
name = bottom;
position = "{257, 0}";
}
);
layerId = m002;
paths = (
{
closed = 1;
nodes = (
"80 -29 OFFCURVE",
"60 -13 OFFCURVE",
"60.2 7.7 CURVE SMOOTH",
"61 51 OFFCURVE",
"71 339 OFFCURVE",
"80.5 380.8 CURVE SMOOTH",
"86.8 408.8 OFFCURVE",
"113 452 OFFCURVE",
"112.7 460.6 CURVE SMOOTH",
"112 471 OFFCURVE",
"68 480 OFFCURVE",
"60 497 CURVE SMOOTH",
"56 507 OFFCURVE",
"53 536 OFFCURVE",
"53 556 CURVE SMOOTH",
"53 610 OFFCURVE",
"66 687 OFFCURVE",
"70 691 CURVE SMOOTH",
"74 695 OFFCURVE",
"87 696 OFFCURVE",
"94 696 CURVE SMOOTH",
"98 696 OFFCURVE",
"110 695 OFFCURVE",
"113 692 CURVE SMOOTH",
"120 685 OFFCURVE",
"128 655 OFFCURVE",
"146 648 CURVE SMOOTH",
"167 640 OFFCURVE",
"196 636 OFFCURVE",
"299.6 636.3 CURVE SMOOTH",
"349 636 OFFCURVE",
"383 630 OFFCURVE",
"415 613 CURVE SMOOTH",
"472 583 OFFCURVE",
"508 453 OFFCURVE",
"508 366 CURVE SMOOTH",
"508 211 OFFCURVE",
"450 22 OFFCURVE",
"314 22 CURVE SMOOTH",
"294 22 OFFCURVE",
"279 38 OFFCURVE",
"279 62 CURVE SMOOTH",
"279 95 OFFCURVE",
"325 114 OFFCURVE",
"351 129 CURVE SMOOTH",
"406 162 OFFCURVE",
"450 243 OFFCURVE",
"450.1 329.7 CURVE SMOOTH",
"450 432 OFFCURVE",
"402 468 OFFCURVE",
"314 468 CURVE SMOOTH",
"295 468 OFFCURVE",
"263 465 OFFCURVE",
"241 465 CURVE SMOOTH",
"227 465 OFFCURVE",
"208 468 OFFCURVE",
"191 468 CURVE SMOOTH",
"181 468 OFFCURVE",
"174 463 OFFCURVE",
"171 458 CURVE SMOOTH",
"163 447 OFFCURVE",
"147 402 OFFCURVE",
"147.7 380.1 CURVE SMOOTH",
"148 354 OFFCURVE",
"200 122 OFFCURVE",
"199.5 83.3 CURVE SMOOTH",
"200 35 OFFCURVE",
"132 -29 OFFCURVE",
"94 -29 CURVE SMOOTH"
);
}
);
width = 541;
}
);
unicode = 05D7;
},
{
color = 5;
glyphname = "tet-hb";
layers = (
{
anchors = (
{
name = bottom;
position = "{384, 0}";
},
{
name = center;
position = "{364, 327}";
}
);
layerId = m01;
paths = (
{
closed = 1;
nodes = (
"141 -103 OFFCURVE",
"126 -99 OFFCURVE",
"126 -90 CURVE SMOOTH",
"126 -71 OFFCURVE",
"160 32 OFFCURVE",
"160 189 CURVE SMOOTH",
"159 496 OFFCURVE",
"26 501 OFFCURVE",
"26 541 CURVE SMOOTH",
"26 589 OFFCURVE",
"77 673 OFFCURVE",
"122 673 CURVE SMOOTH",
"150 673 OFFCURVE",
"205 540 OFFCURVE",
"213 364 CURVE SMOOTH",
"221 180 OFFCURVE",
"226 163 OFFCURVE",
"231 157 CURVE SMOOTH",
"239 148 OFFCURVE",
"277 141 OFFCURVE",
"333 141 CURVE SMOOTH",
"468 142 OFFCURVE",
"529 239 OFFCURVE",
"529 324 CURVE SMOOTH",
"529 437 OFFCURVE",
"438 497 OFFCURVE",
"379 497 CURVE SMOOTH",
"331 497 OFFCURVE",
"296 466 OFFCURVE",
"279 466 CURVE SMOOTH",
"268 466 OFFCURVE",
"260 492 OFFCURVE",
"260 505 CURVE SMOOTH",
"260 519 OFFCURVE",
"381 676 OFFCURVE",
"403 676 CURVE SMOOTH",
"519 676 OFFCURVE",
"586 480 OFFCURVE",
"586 341 CURVE SMOOTH",
"586 159 OFFCURVE",
"499 -24 OFFCURVE",
"308 -24 CURVE SMOOTH",
"245 -24 OFFCURVE",
"217 -7 OFFCURVE",
"205 -7 CURVE SMOOTH",
"195 -7 OFFCURVE",
"187 -103 OFFCURVE",
"170 -103 CURVE SMOOTH"
);
}
);
width = 600;
},
{
anchors = (
{
name = center;
position = "{364, 327}";
}
);
associatedMasterId = m01;
layerId = "B29EFFF7-8C7A-466E-965F-1D763E1D9FBF";
name = "May 12, 21, 09:59";
paths = (
{
closed = 1;
nodes = (
"268.8 471.8 OFFCURVE",
"261.8 490.7 OFFCURVE",
"261.8 503.3 CURVE SMOOTH",
"261.8 505.4 OFFCURVE",
"261.8 506.8 OFFCURVE",
"261.8 508.2 CURVE",
"264.6 520.1 OFFCURVE",
"282 534 OFFCURVE",
"289.1 543.2 CURVE SMOOTH",
"356.3 627.2 LINE",
"385.7 662.9 LINE SMOOTH",
"389 667 OFFCURVE",
"393.4 674.8 OFFCURVE",
"398.3 676.2 CURVE SMOOTH",
"399.7 676.9 OFFCURVE",
"401.1 676.9 OFFCURVE",
"402.5 676.9 CURVE SMOOTH",
"408.1 676.9 OFFCURVE",
"415.1 674.8 OFFCURVE",
"420 673.4 CURVE SMOOTH",
"441 669.2 OFFCURVE",
"461.3 659.4 OFFCURVE",
"477.4 644.7 CURVE SMOOTH",
"506.8 616.7 OFFCURVE",
"525.7 578.2 OFFCURVE",
"544.6 543.2 CURVE SMOOTH",
"551.6 530.6 OFFCURVE",
"559.3 517.3 OFFCURVE",
"564.2 503.3 CURVE SMOOTH",
"574.7 471.1 OFFCURVE",
"578.2 433.3 OFFCURVE",
"581.7 399.7 CURVE SMOOTH",
"583.8 379.4 OFFCURVE",
"584.5 357.7 OFFCURVE",
"584.5 336.7 CURVE SMOOTH",
"584.5 231.7 OFFCURVE",
"557.2 121.8 OFFCURVE",
"482.3 46.9 CURVE SMOOTH",
"467.6 31.5 OFFCURVE",
"452.2 16.8 OFFCURVE",
"433.3 6.3 CURVE SMOOTH",
"396.2 -16.1 OFFCURVE",
"351.4 -23.8 OFFCURVE",
"308 -23.8 CURVE SMOOTH",
"295.4 -23.8 OFFCURVE",
"283.5 -23.1 OFFCURVE",
"271.6 -22.4 CURVE SMOOTH",
"255.5 -21 OFFCURVE",
"240.1 -17.5 OFFCURVE",
"225.4 -12.6 CURVE SMOOTH",
"221.2 -11.9 OFFCURVE",
"213.5 -7 OFFCURVE",
"207.9 -7 CURVE SMOOTH",
"205.8 -7 LINE",
"198.1 -9.8 OFFCURVE",
"195.3 -25.9 OFFCURVE",
"193.9 -32.9 CURVE SMOOTH",
"191.8 -48.3 OFFCURVE",
"189.7 -62.3 OFFCURVE",
"185.5 -77.7 CURVE SMOOTH",
"183.4 -85.4 OFFCURVE",
"181.3 -95.2 OFFCURVE",
"175.7 -100.8 CURVE SMOOTH",
"173.6 -102.2 OFFCURVE",
"171.5 -102.9 OFFCURVE",
"169.4 -102.9 CURVE SMOOTH",
"166.6 -102.9 OFFCURVE",
"163.8 -102.2 OFFCURVE",
"161.7 -102.2 CURVE SMOOTH",
"149.1 -100.8 OFFCURVE",
"137 -99 OFFCURVE",
"124.6 -98 CURVE",
"145 -18 OFFCURVE",
"155 65 OFFCURVE",
"158 148 CURVE SMOOTH",
"159 162 OFFCURVE",
"160 176 OFFCURVE",
"159.6 189 CURVE SMOOTH",
"159.6 250.6 OFFCURVE",
"153.3 311.5 OFFCURVE",
"136.5 370.3 CURVE SMOOTH",
"129.5 393.4 OFFCURVE",
"122.5 419.3 OFFCURVE",
"109.9 440.3 CURVE SMOOTH",
"99.4 458.5 OFFCURVE",
"83.3 473.9 OFFCURVE",
"70 490 CURVE SMOOTH",
"60.2 500.5 OFFCURVE",
"49.7 511 OFFCURVE",
"39.9 520.8 CURVE SMOOTH",
"35.7 525 OFFCURVE",
"28.7 529.9 OFFCURVE",
"26.6 535.5 CURVE",
"26.6 536.9 OFFCURVE",
"26.6 538.3 OFFCURVE",
"26.6 539.7 CURVE SMOOTH",
"26.6 542.5 OFFCURVE",
"27.3 546.7 OFFCURVE",
"27.3 549.5 CURVE SMOOTH",
"30.1 578.2 OFFCURVE",
"45.5 603.4 OFFCURVE",
"60.9 627.2 CURVE SMOOTH",
"67.2 637 OFFCURVE",
"73.5 648.2 OFFCURVE",
"81.9 655.9 CURVE SMOOTH",
"91 665 OFFCURVE",
"104.3 672.7 OFFCURVE",
"117.6 672.7 CURVE SMOOTH",
"122.5 672.7 OFFCURVE",
"126.7 672 OFFCURVE",
"130.9 669.9 CURVE SMOOTH",
"138.6 666.4 OFFCURVE",
"143.5 655.2 OFFCURVE",
"147 648.2 CURVE SMOOTH",
"156.8 630 OFFCURVE",
"165.9 611.1 OFFCURVE",
"172.2 590.8 CURVE SMOOTH",
"194.6 523.6 OFFCURVE",
"207.9 450.8 OFFCURVE",
"212.8 380.1 CURVE SMOOTH",
"217.7 304.5 OFFCURVE",
"217 228.9 OFFCURVE",
"222.6 153.3 CURVE",
"243.6 151.9 OFFCURVE",
"263.9 146.3 OFFCURVE",
"284.9 144.2 CURVE SMOOTH",
"300.3 142.1 OFFCURVE",
"317.1 141.4 OFFCURVE",
"333.2 141.4 CURVE SMOOTH",
"377.3 141.4 OFFCURVE",
"422.1 149.1 OFFCURVE",
"457.8 177.1 CURVE SMOOTH",
"504.7 212.8 OFFCURVE",
"529.9 270.2 OFFCURVE",
"529.9 327.6 CURVE SMOOTH",
"529.9 378 OFFCURVE",
"510.3 428.4 OFFCURVE",
"468.3 462 CURVE SMOOTH",
"455.7 472.5 OFFCURVE",
"441 480.9 OFFCURVE",
"425.6 487.2 CURVE SMOOTH",
"411.6 492.8 OFFCURVE",
"394.8 497 OFFCURVE",
"379.4 497 CURVE SMOOTH",
"378 497 LINE SMOOTH",
"341 497 OFFCURVE",
"308 476.7 OFFCURVE",
"274.4 462.7 CURVE"
);
}
);
width = 600;
},
{
anchors = (
{
name = bottom;
position = "{384, 0}";
},
{
name = center;
position = "{364, 327}";
}
);
layerId = m002;
paths = (
{
closed = 1;
nodes = (
"141 -103 OFFCURVE",
"126 -99 OFFCURVE",
"126 -90 CURVE SMOOTH",
"126 -71 OFFCURVE",
"160 32 OFFCURVE",
"160 189 CURVE SMOOTH",
"159 496 OFFCURVE",
"26 501 OFFCURVE",
"26 541 CURVE SMOOTH",
"26 589 OFFCURVE",
"77 673 OFFCURVE",
"122 673 CURVE SMOOTH",
"150 673 OFFCURVE",
"205 540 OFFCURVE",
"213 364 CURVE SMOOTH",
"221 180 OFFCURVE",
"226 163 OFFCURVE",
"231 157 CURVE SMOOTH",
"239 148 OFFCURVE",
"277 141 OFFCURVE",
"333 141 CURVE SMOOTH",
"468 142 OFFCURVE",
"529 239 OFFCURVE",
"529 324 CURVE SMOOTH",
"529 437 OFFCURVE",
"438 497 OFFCURVE",
"379 497 CURVE SMOOTH",
"331 497 OFFCURVE",
"296 466 OFFCURVE",
"279 466 CURVE SMOOTH",
"268 466 OFFCURVE",
"260 492 OFFCURVE",
"260 505 CURVE SMOOTH",
"260 519 OFFCURVE",
"381 676 OFFCURVE",
"403 676 CURVE SMOOTH",
"519 676 OFFCURVE",
"586 480 OFFCURVE",
"586 341 CURVE SMOOTH",
"586 159 OFFCURVE",
"499 -24 OFFCURVE",
"308 -24 CURVE SMOOTH",
"245 -24 OFFCURVE",
"217 -7 OFFCURVE",
"205 -7 CURVE SMOOTH",
"195 -7 OFFCURVE",
"187 -103 OFFCURVE",
"170 -103 CURVE SMOOTH"
);
}
);
width = 600;
}
);
unicode = 05D8;
},
{
color = 5;
glyphname = "yod-hb";
layers = (
{
anchors = (
{
name = bottom;
position = "{95, 0}";
},
{
name = center;
position = "{45, 368}";
}
);
layerId = m01;
paths = (
{
closed = 1;
nodes = (
"60 684 OFFCURVE",
"75 688 OFFCURVE",
"89 688 CURVE SMOOTH",
"94 688 OFFCURVE",
"96 684 OFFCURVE",
"96 679 CURVE SMOOTH",
"96 644 OFFCURVE",
"109 626 OFFCURVE",
"201 591 CURVE SMOOTH",
"235 578 OFFCURVE",
"258 544 OFFCURVE",
"258 502 CURVE SMOOTH",
"258 353 OFFCURVE",
"148 241 OFFCURVE",
"130 241 CURVE SMOOTH",
"120 241 OFFCURVE",
"101 258 OFFCURVE",
"101 269 CURVE SMOOTH",
"101 276 OFFCURVE",
"110 284 OFFCURVE",
"124 301 CURVE SMOOTH",
"145 326 OFFCURVE",
"174 365 OFFCURVE",
"174 401 CURVE SMOOTH",
"174 426 OFFCURVE",
"163 434 OFFCURVE",
"135 445 CURVE SMOOTH",
"66 472 OFFCURVE",
"20 488 OFFCURVE",
"20 557 CURVE SMOOTH",
"20 602 OFFCURVE",
"47 665 OFFCURVE",
"55 677 CURVE SMOOTH"
);
}
);
width = 270;
},
{
anchors = (
{
name = center;
position = "{65, 377}";
}
);
associatedMasterId = m01;
layerId = "BB3BC3F1-4126-4DF1-9385-36962741E705";
name = "May 12, 21, 10:51";
paths = (
{
closed = 1;
nodes = (
"69 684 OFFCURVE",
"83 686 OFFCURVE",
"97 687 CURVE",
"97 683 OFFCURVE",
"95.2 679.7 OFFCURVE",
"95.2 675.5 CURVE SMOOTH",
"95.2 674.8 OFFCURVE",
"95.9 673.4 OFFCURVE",
"95.9 672.7 CURVE SMOOTH",
"97.3 664.3 OFFCURVE",
"100.1 651.7 OFFCURVE",
"105 644.7 CURVE SMOOTH",
"126.7 611.8 OFFCURVE",
"175 604.1 OFFCURVE",
"207.2 586.6 CURVE SMOOTH",
"231 573.3 OFFCURVE",
"251.3 551.6 OFFCURVE",
"256.2 524.3 CURVE SMOOTH",
"257.6 518 OFFCURVE",
"257.6 512.4 OFFCURVE",
"257.6 506.1 CURVE SMOOTH",
"257.6 499.1 OFFCURVE",
"256.9 491.4 OFFCURVE",
"256.9 484.4 CURVE SMOOTH",
"252 412.3 OFFCURVE",
"224 343 OFFCURVE",
"179.2 287 CURVE SMOOTH",
"169.4 274.4 OFFCURVE",
"158.9 262.5 OFFCURVE",
"147.7 252 CURVE SMOOTH",
"142.1 246.4 OFFCURVE",
"136.5 241.5 OFFCURVE",
"129.5 241.5 CURVE SMOOTH",
"127.4 241.5 OFFCURVE",
"126 241.5 OFFCURVE",
"123.2 242.9 CURVE SMOOTH",
"118.3 245 OFFCURVE",
"112.7 252.7 OFFCURVE",
"109.2 256.9 CURVE SMOOTH",
"105 260.4 OFFCURVE",
"98.7 265.3 OFFCURVE",
"97.3 270.2 CURVE SMOOTH",
"97.3 270.9 OFFCURVE",
"97.3 270.9 OFFCURVE",
"97.3 271.6 CURVE SMOOTH",
"97.3 275.8 OFFCURVE",
"102.9 279.3 OFFCURVE",
"105 282.1 CURVE",
"113.4 290.5 OFFCURVE",
"121.8 300.3 OFFCURVE",
"130.2 310.1 CURVE SMOOTH",
"149.1 333.2 OFFCURVE",
"173.6 367.5 OFFCURVE",
"173.6 401.1 CURVE SMOOTH",
"173.6 408.8 OFFCURVE",
"172.9 416.5 OFFCURVE",
"169.4 424.2 CURVE SMOOTH",
"165.2 434 OFFCURVE",
"144.2 441 OFFCURVE",
"135.1 445.2 CURVE SMOOTH",
"105.7 457.8 OFFCURVE",
"72.8 467.6 OFFCURVE",
"47.6 488.6 CURVE SMOOTH",
"26.6 506.1 OFFCURVE",
"19.6 530.6 OFFCURVE",
"19.6 556.5 CURVE SMOOTH",
"19.6 587.3 OFFCURVE",
"29.4 620.2 OFFCURVE",
"39.9 645.4 CURVE SMOOTH",
"44.1 657.3 OFFCURVE",
"51.1 669.2 OFFCURVE",
"54.6 681.8 CURVE"
);
}
);
width = 270;
},
{
anchors = (
{
name = bottom;
position = "{95, 0}";
},
{
name = center;
position = "{45, 368}";
}
);
layerId = m002;
paths = (
{
closed = 1;
nodes = (
"60 684 OFFCURVE",
"75 688 OFFCURVE",
"89 688 CURVE SMOOTH",
"94 688 OFFCURVE",
"96 684 OFFCURVE",
"96 679 CURVE SMOOTH",
"96 644 OFFCURVE",
"109 626 OFFCURVE",
"201 591 CURVE SMOOTH",
"235 578 OFFCURVE",
"258 544 OFFCURVE",
"258 502 CURVE SMOOTH",
"258 353 OFFCURVE",
"148 241 OFFCURVE",
"130 241 CURVE SMOOTH",
"120 241 OFFCURVE",
"101 258 OFFCURVE",
"101 269 CURVE SMOOTH",
"101 276 OFFCURVE",
"110 284 OFFCURVE",
"124 301 CURVE SMOOTH",
"145 326 OFFCURVE",
"174 365 OFFCURVE",
"174 401 CURVE SMOOTH",
"174 426 OFFCURVE",
"163 434 OFFCURVE",
"135 445 CURVE SMOOTH",
"66 472 OFFCURVE",
"20 488 OFFCURVE",
"20 557 CURVE SMOOTH",
"20 602 OFFCURVE",
"47 665 OFFCURVE",
"55 677 CURVE SMOOTH"
);
}
);
width = 270;
}
);
unicode = 05D9;
},
{
color = 5;
glyphname = "kafFinal-hb";
layers = (
{
anchors = (
{
name = bottom;
position = "{232, -317}";
},
{
name = center;
position = "{154, 317}";
}
);
layerId = m01;
paths = (
{
closed = 1;
nodes = (
"303 470 OFFCURVE",
"169 464 OFFCURVE",
"110 464 CURVE SMOOTH",
"51 464 OFFCURVE",
"25 495 OFFCURVE",
"25 558 CURVE SMOOTH",
"25 594 OFFCURVE",
"35 667 OFFCURVE",
"39 677 CURVE SMOOTH",
"43 686 OFFCURVE",
"63 694 OFFCURVE",
"75 694 CURVE SMOOTH",
"84 694 OFFCURVE",
"90 691 OFFCURVE",
"93 680 CURVE SMOOTH",
"97 665 OFFCURVE",
"114 628 OFFCURVE",
"195 628 CURVE SMOOTH",
"220 628 OFFCURVE",
"258 634 OFFCURVE",
"289 634 CURVE SMOOTH",
"377 634 OFFCURVE",
"406 572 OFFCURVE",
"406 509 CURVE SMOOTH",
"406 440 OFFCURVE",
"370 373 OFFCURVE",
"370 295 CURVE SMOOTH",
"370 219 OFFCURVE",
"424 -104 OFFCURVE",
"424 -200 CURVE SMOOTH",
"424 -260 OFFCURVE",
"367 -342 OFFCURVE",
"309 -342 CURVE SMOOTH",
"290 -342 OFFCURVE",
"277 -317 OFFCURVE",
"277 -298 CURVE SMOOTH",
"277 -247 OFFCURVE",
"282 -57 OFFCURVE",
"282 124 CURVE SMOOTH",
"282 381 OFFCURVE",
"329 438 OFFCURVE",
"329 457 CURVE SMOOTH",
"329 465 OFFCURVE",
"326 470 OFFCURVE",
"318 470 CURVE SMOOTH"
);
}
);
width = 465;
},
{
anchors = (
{
name = bottom;
position = "{122, 283}";
},
{
name = center;
position = "{125, 300}";
}
);
associatedMasterId = m01;
layerId = "7D567AD8-DBA6-4E10-84D9-7E6D2FFA8F96";
name = "May 12, 21, 11:09";
paths = (
{
closed = 1;
nodes = (
"147 468.3 LINE SMOOTH",
"135.1 468.3 OFFCURVE",
"123.2 467.6 OFFCURVE",
"111.3 467.6 CURVE SMOOTH",
"92.4 467.6 OFFCURVE",
"73.5 469.7 OFFCURVE",
"57.4 480.9 CURVE SMOOTH",
"28.7 499.8 OFFCURVE",
"28 525 OFFCURVE",
"28 556.5 CURVE SMOOTH",
"28 557.9 LINE SMOOTH",
"28 583.1 OFFCURVE",
"29.4 607.6 OFFCURVE",
"32.2 632.8 CURVE SMOOTH",
"33.6 645.4 OFFCURVE",
"35 658 OFFCURVE",
"37.1 670.6 CURVE SMOOTH",
"37.1 674.8 OFFCURVE",
"37.1 682.5 OFFCURVE",
"39.9 686 CURVE SMOOTH",
"42 688.8 OFFCURVE",
"49 688.1 OFFCURVE",
"52.5 688.8 CURVE SMOOTH",
"64.4 690.2 OFFCURVE",
"76 692 OFFCURVE",
"88.2 694.4 CURVE",
"96 641 OFFCURVE",
"149.1 627.9 OFFCURVE",
"194.6 627.9 CURVE SMOOTH",
"222.6 627.9 OFFCURVE",
"254.8 633.5 OFFCURVE",
"285.6 633.5 CURVE SMOOTH",
"316.4 633.5 OFFCURVE",
"346.5 627.9 OFFCURVE",
"370.3 605.5 CURVE SMOOTH",
"378.7 597.8 OFFCURVE",
"385 588 OFFCURVE",
"390.6 578.2 CURVE SMOOTH",
"396.9 567 OFFCURVE",
"400.4 553.7 OFFCURVE",
"403.2 540.4 CURVE SMOOTH",
"405.3 529.9 OFFCURVE",
"406 519.4 OFFCURVE",
"406 508.9 CURVE SMOOTH",
"406 440.3 OFFCURVE",
"370.3 373.1 OFFCURVE",
"370.3 303.8 CURVE SMOOTH",
"370.3 295.4 LINE SMOOTH",
"370 240 OFFCURVE",
"380.8 185.5 OFFCURVE",
"387.8 130.2 CURVE SMOOTH",
"394.1 74.9 OFFCURVE",
"400.4 18.9 OFFCURVE",
"407.4 -37.1 CURVE SMOOTH",
"412.3 -74.2 OFFCURVE",
"416.5 -110.6 OFFCURVE",
"420 -147.7 CURVE SMOOTH",
"421.4 -163.1 OFFCURVE",
"424.2 -178.5 OFFCURVE",
"424.2 -193.2 CURVE SMOOTH",
"424.2 -195.3 OFFCURVE",
"424.2 -197.4 OFFCURVE",
"424.2 -199.5 CURVE SMOOTH",
"422.1 -242.2 OFFCURVE",
"403.2 -280 OFFCURVE",
"373.1 -310.1 CURVE SMOOTH",
"354.2 -329 OFFCURVE",
"336 -341.6 OFFCURVE",
"309 -342 CURVE SMOOTH",
"305.2 -341.6 LINE SMOOTH",
"290 -342 OFFCURVE",
"284.9 -309.4 OFFCURVE",
"284.2 -297.5 CURVE SMOOTH",
"283.5 -290.5 OFFCURVE",
"283.5 -283.5 OFFCURVE",
"283.5 -277.2 CURVE SMOOTH",
"283.5 -264.6 OFFCURVE",
"284.2 -251.3 OFFCURVE",
"284.2 -239.4 CURVE SMOOTH",
"284.2 -208.6 OFFCURVE",
"282.8 -177.8 OFFCURVE",
"282.8 -147 CURVE SMOOTH",
"282.8 -61.6 OFFCURVE",
"282.1 23.1 OFFCURVE",
"282.1 107.8 CURVE SMOOTH",
"282.1 123.9 LINE SMOOTH",
"282.1 207.9 OFFCURVE",
"282.8 291.2 OFFCURVE",
"302.4 374.5 CURVE SMOOTH",
"310.1 407.4 OFFCURVE",
"322.7 437.5 OFFCURVE",
"335.3 468.3 CURVE"
);
}
);
width = 465;
},
{
anchors = (
{
name = bottom;
position = "{232, -317}";
},
{
name = center;
position = "{154, 317}";
}
);
layerId = m002;
paths = (
{
closed = 1;
nodes = (
"303 470 OFFCURVE",
"169 464 OFFCURVE",
"110 464 CURVE SMOOTH",
"51 464 OFFCURVE",
"25 495 OFFCURVE",
"25 558 CURVE SMOOTH",
"25 594 OFFCURVE",
"35 667 OFFCURVE",
"39 677 CURVE SMOOTH",
"43 686 OFFCURVE",
"63 694 OFFCURVE",
"75 694 CURVE SMOOTH",
"84 694 OFFCURVE",
"90 691 OFFCURVE",
"93 680 CURVE SMOOTH",
"97 665 OFFCURVE",
"114 628 OFFCURVE",
"195 628 CURVE SMOOTH",
"220 628 OFFCURVE",
"258 634 OFFCURVE",
"289 634 CURVE SMOOTH",
"377 634 OFFCURVE",
"406 572 OFFCURVE",
"406 509 CURVE SMOOTH",
"406 440 OFFCURVE",
"370 373 OFFCURVE",
"370 295 CURVE SMOOTH",
"370 219 OFFCURVE",
"424 -104 OFFCURVE",
"424 -200 CURVE SMOOTH",
"424 -260 OFFCURVE",
"367 -342 OFFCURVE",
"309 -342 CURVE SMOOTH",
"290 -342 OFFCURVE",
"277 -317 OFFCURVE",
"277 -298 CURVE SMOOTH",
"277 -247 OFFCURVE",
"282 -57 OFFCURVE",
"282 124 CURVE SMOOTH",
"282 381 OFFCURVE",
"329 438 OFFCURVE",
"329 457 CURVE SMOOTH",
"329 465 OFFCURVE",
"326 470 OFFCURVE",
"318 470 CURVE SMOOTH"
);
}
);
width = 465;
}
);
unicode = 05DA;
},
{
color = 5;
glyphname = "kaf-hb";
layers = (
{
anchors = (
{
name = bottom;
position = "{206, 0}";
},
{
name = center;
position = "{192, 329}";
}
);
layerId = m01;
paths = (
{
closed = 1;
nodes = (
"78 708 OFFCURVE",
"84 705 OFFCURVE",
"86 695 CURVE SMOOTH",
"93 653 OFFCURVE",
"137 642 OFFCURVE",
"165 642 CURVE SMOOTH",
"194 642 OFFCURVE",
"220 645 OFFCURVE",
"239 645 CURVE SMOOTH",
"362 645 OFFCURVE",
"415 525 OFFCURVE",
"415 368 CURVE SMOOTH",
"415 193 OFFCURVE",
"325 -17 OFFCURVE",
"52 -17 CURVE SMOOTH",
"30 -17 OFFCURVE",
"23 -4 OFFCURVE",
"23 54 CURVE SMOOTH",
"23 101 OFFCURVE",
"29 136 OFFCURVE",
"44 147 CURVE SMOOTH",
"55 155 OFFCURVE",
"71 160 OFFCURVE",
"99 160 CURVE SMOOTH",
"206 160 OFFCURVE",
"358 195 OFFCURVE",
"358 346 CURVE SMOOTH",
"358 431 OFFCURVE",
"315 477 OFFCURVE",
"230 477 CURVE SMOOTH",
"202 477 OFFCURVE",
"166 472 OFFCURVE",
"137 472 CURVE SMOOTH",
"72 472 OFFCURVE",
"18 477 OFFCURVE",
"15 571 CURVE SMOOTH",
"14 620 OFFCURVE",
"29 689 OFFCURVE",
"35 698 CURVE SMOOTH",
"40 706 OFFCURVE",
"60 708 OFFCURVE",
"73 708 CURVE SMOOTH"
);
}
);
width = 465;
},
{
anchors = (
{
name = center;
position = "{177, 330}";
}
);
associatedMasterId = m01;
layerId = "B822F9EC-DFC9-479D-AEB0-8E0B0AA75E48";
name = "May 12, 21, 11:36";
paths = (
{
closed = 1;
nodes = (
"87 708 OFFCURVE",
"84 705 OFFCURVE",
"86.1 695.1 CURVE SMOOTH",
"87.5 688.1 OFFCURVE",
"89.6 680.4 OFFCURVE",
"93.1 673.4 CURVE SMOOTH",
"102.2 658.7 OFFCURVE",
"123.2 651.7 OFFCURVE",
"139.3 648.2 CURVE SMOOTH",
"155.4 644 OFFCURVE",
"171.5 643.3 OFFCURVE",
"188.3 643.3 CURVE SMOOTH",
"200.9 643.3 OFFCURVE",
"213.5 644 OFFCURVE",
"226.8 644 CURVE SMOOTH",
"249.9 644 OFFCURVE",
"273.7 642.6 OFFCURVE",
"295.4 633.5 CURVE SMOOTH",
"321.3 623 OFFCURVE",
"343.7 602.7 OFFCURVE",
"360.5 581.7 CURVE SMOOTH",
"399.7 530.6 OFFCURVE",
"410.2 464.8 OFFCURVE",
"414.4 402.5 CURVE SMOOTH",
"415.1 390.6 OFFCURVE",
"415.1 379.4 OFFCURVE",
"415.1 367.5 CURVE SMOOTH",
"415.1 279.3 OFFCURVE",
"392 192.5 OFFCURVE",
"341.6 118.3 CURVE SMOOTH",
"338.8 114.8 OFFCURVE",
"338.1 110.6 OFFCURVE",
"335.3 107.1 CURVE SMOOTH",
"289.1 47.6 OFFCURVE",
"217 9.8 OFFCURVE",
"144.9 -6.3 CURVE SMOOTH",
"121.1 -11.2 OFFCURVE",
"97.3 -14 OFFCURVE",
"72.8 -15.4 CURVE SMOOTH",
"66.5 -16.1 OFFCURVE",
"58.8 -16.8 OFFCURVE",
"51.8 -16.8 CURVE SMOOTH",
"43.4 -16.8 LINE SMOOTH",
"28 -17 OFFCURVE",
"28 13.3 OFFCURVE",
"27.3 24.5 CURVE SMOOTH",
"26.6 33.6 OFFCURVE",
"23.1 44.1 OFFCURVE",
"23.1 53.9 CURVE SMOOTH",
"23.1 70.7 OFFCURVE",
"28 88.9 OFFCURVE",
"29.4 105.7 CURVE SMOOTH",
"30.1 121.8 OFFCURVE",
"32.2 138.6 OFFCURVE",
"45.5 149.1 CURVE SMOOTH",
"60.2 160.3 OFFCURVE",
"81.9 158.2 OFFCURVE",
"99.4 159.6 CURVE SMOOTH",
"133.7 161.7 OFFCURVE",
"168.7 165.9 OFFCURVE",
"202.3 172.2 CURVE SMOOTH",
"252 182.7 OFFCURVE",
"303.1 206.5 OFFCURVE",
"332.5 249.9 CURVE SMOOTH",
"340.2 261.8 OFFCURVE",
"346.5 275.1 OFFCURVE",
"351.4 288.4 CURVE SMOOTH",
"354.9 301 OFFCURVE",
"355.6 313.6 OFFCURVE",
"357 325.5 CURVE SMOOTH",
"357.7 331.8 OFFCURVE",
"357.7 338.8 OFFCURVE",
"357.7 345.8 CURVE SMOOTH",
"357.7 392.7 OFFCURVE",
"341.6 445.9 OFFCURVE",
"294.7 464.8 CURVE SMOOTH",
"271.6 473.9 OFFCURVE",
"247.1 476 OFFCURVE",
"222.6 476 CURVE SMOOTH",
"194.6 476 OFFCURVE",
"165.9 472.5 OFFCURVE",
"137.2 472.5 CURVE SMOOTH",
"130.9 472.5 OFFCURVE",
"123.9 473.2 OFFCURVE",
"117.6 473.2 CURVE SMOOTH",
"94.5 475.3 OFFCURVE",
"59.5 477.4 OFFCURVE",
"40.6 493.5 CURVE SMOOTH",
"28.7 503.3 OFFCURVE",
"21.7 522.2 OFFCURVE",
"18.2 537.6 CURVE SMOOTH",
"16.1 548.8 OFFCURVE",
"15.4 560 OFFCURVE",
"15.4 571.2 CURVE SMOOTH",
"15.4 596.4 OFFCURVE",
"19.6 622.3 OFFCURVE",
"22.4 647.5 CURVE SMOOTH",
"23.8 661.5 OFFCURVE",
"32.2 697.2 OFFCURVE",
"35 700.7 CURVE SMOOTH",
"37.1 703.5 OFFCURVE",
"66 708 OFFCURVE",
"77 708.4 CURVE SMOOTH"
);
}
);
width = 465;
},
{
anchors = (
{
name = bottom;
position = "{206, 0}";
},
{
name = center;
position = "{192, 329}";
}
);
layerId = m002;
paths = (
{
closed = 1;
nodes = (
"78 708 OFFCURVE",
"84 705 OFFCURVE",
"86 695 CURVE SMOOTH",
"93 653 OFFCURVE",
"137 642 OFFCURVE",
"165 642 CURVE SMOOTH",
"194 642 OFFCURVE",
"220 645 OFFCURVE",
"239 645 CURVE SMOOTH",
"362 645 OFFCURVE",
"415 525 OFFCURVE",
"415 368 CURVE SMOOTH",
"415 193 OFFCURVE",
"325 -17 OFFCURVE",
"52 -17 CURVE SMOOTH",
"30 -17 OFFCURVE",
"23 -4 OFFCURVE",
"23 54 CURVE SMOOTH",
"23 101 OFFCURVE",
"29 136 OFFCURVE",
"44 147 CURVE SMOOTH",
"55 155 OFFCURVE",
"71 160 OFFCURVE",
"99 160 CURVE SMOOTH",
"206 160 OFFCURVE",
"358 195 OFFCURVE",
"358 346 CURVE SMOOTH",
"358 431 OFFCURVE",
"315 477 OFFCURVE",
"230 477 CURVE SMOOTH",
"202 477 OFFCURVE",
"166 472 OFFCURVE",
"137 472 CURVE SMOOTH",
"72 472 OFFCURVE",
"18 477 OFFCURVE",
"15 571 CURVE SMOOTH",
"14 620 OFFCURVE",
"29 689 OFFCURVE",
"35 698 CURVE SMOOTH",
"40 706 OFFCURVE",
"60 708 OFFCURVE",
"73 708 CURVE SMOOTH"
);
}
);
width = 465;
}
);
unicode = 05DB;
},
{
color = 5;
glyphname = "lamed-hb";
layers = (
{
anchors = (
{
name = bottom;
position = "{125, 0}";
},
{
name = center;
position = "{138, 306}";
}
);
layerId = m01;
paths = (
{
closed = 1;
nodes = (
"29 -40 OFFCURVE",
"22 -23 OFFCURVE",
"21.7 16.8 CURVE SMOOTH",
"22 39 OFFCURVE",
"34 112 OFFCURVE",
"41 125 CURVE SMOOTH",
"49 140 OFFCURVE",
"65 143 OFFCURVE",
"79.8 145.6 CURVE SMOOTH",
"188 163 OFFCURVE",
"279 211 OFFCURVE",
"278.6 315 CURVE SMOOTH",
"278 392 OFFCURVE",
"219 425 OFFCURVE",
"147 457.8 CURVE SMOOTH",
"116 471 OFFCURVE",
"71 482 OFFCURVE",
"71.4 531.3 CURVE SMOOTH",
"71 544 OFFCURVE",
"82 720 OFFCURVE",
"83.3 774.2 CURVE SMOOTH",
"84 815 OFFCURVE",
"65 834 OFFCURVE",
"32.2 863.8 CURVE SMOOTH",
"23.8 870.1 OFFCURVE",
"2 884 OFFCURVE",
"1.4 895.3 CURVE SMOOTH",
"1 920 OFFCURVE",
"9 939 OFFCURVE",
"14 969 CURVE SMOOTH",
"17 986 OFFCURVE",
"22 1000 OFFCURVE",
"48.3 1000.3 CURVE SMOOTH",
"79 1001 OFFCURVE",
"176 952 OFFCURVE",
"176 921 CURVE SMOOTH",
"176 889 OFFCURVE",
"155 751 OFFCURVE",
"146 684 CURVE SMOOTH",
"145 677 OFFCURVE",
"145 668 OFFCURVE",
"145 663 CURVE SMOOTH",
"145 656 OFFCURVE",
"149 653 OFFCURVE",
"162 648 CURVE SMOOTH",
"300 594 OFFCURVE",
"337 480 OFFCURVE",
"336.7 348.6 CURVE SMOOTH",
"336 145 OFFCURVE",
"200 -39 OFFCURVE",
"56 -39.9 CURVE SMOOTH"
);
}
);
width = 387;
},
{
anchors = (
{
name = center;
position = "{110, 320}";
}
);
associatedMasterId = m01;
layerId = "80D01CFF-9CA8-4019-A007-70A2BE622974";
name = "May 12, 21, 11:51";
paths = (
{
closed = 1;
nodes = (
"161.7 650.3 OFFCURVE",
"188.3 638.4 OFFCURVE",
"205.1 628.6 CURVE SMOOTH",
"255.5 598.5 OFFCURVE",
"294 546 OFFCURVE",
"315.7 492.1 CURVE SMOOTH",
"331.1 452.2 OFFCURVE",
"337 412 OFFCURVE",
"336.7 369.6 CURVE SMOOTH",
"336.7 348.6 LINE SMOOTH",
"336.7 242.2 OFFCURVE",
"301.7 136.5 OFFCURVE",
"233.1 54.6 CURVE SMOOTH",
"221.9 40.6 OFFCURVE",
"209.3 25.9 OFFCURVE",
"195.3 15.4 CURVE SMOOTH",
"171.5 -3.5 OFFCURVE",
"140.7 -17.5 OFFCURVE",
"112.7 -28 CURVE SMOOTH",
"95.9 -34.3 OFFCURVE",
"74.9 -39.9 OFFCURVE",
"56 -39.9 CURVE SMOOTH",
"51.8 -39.9 OFFCURVE",
"47.6 -39.2 OFFCURVE",
"43.4 -39.2 CURVE",
"28 -36.4 OFFCURVE",
"24.5 -11.9 OFFCURVE",
"23.1 0 CURVE SMOOTH",
"22.4 5.6 OFFCURVE",
"21.7 11.2 OFFCURVE",
"21.7 16.8 CURVE SMOOTH",
"21.7 38.5 OFFCURVE",
"26.6 61.6 OFFCURVE",
"30.1 82.6 CURVE SMOOTH",
"32.2 97.3 OFFCURVE",
"33.6 112 OFFCURVE",
"41.3 125.3 CURVE SMOOTH",
"49 140 OFFCURVE",
"64.4 142.8 OFFCURVE",
"79.8 145.6 CURVE SMOOTH",
"100.8 149.8 OFFCURVE",
"121.8 154 OFFCURVE",
"142.8 159.6 CURVE SMOOTH",
"164.5 165.9 OFFCURVE",
"186.2 172.2 OFFCURVE",
"205.1 183.4 CURVE SMOOTH",
"246.4 209.3 OFFCURVE",
"272.3 257.6 OFFCURVE",
"277.9 305.2 CURVE SMOOTH",
"277.9 308.7 OFFCURVE",
"278.6 311.5 OFFCURVE",
"278.6 315 CURVE SMOOTH",
"278.6 322 OFFCURVE",
"277.9 329.7 OFFCURVE",
"276.5 336.7 CURVE SMOOTH",
"265.3 405.3 OFFCURVE",
"203.7 431.9 OFFCURVE",
"147 457.8 CURVE SMOOTH",
"130.2 464.8 OFFCURVE",
"114.1 472.5 OFFCURVE",
"98 481.6 CURVE SMOOTH",
"92.4 485.1 OFFCURVE",
"83.3 488.6 OFFCURVE",
"79.8 494.9 CURVE SMOOTH",
"73.5 506.1 OFFCURVE",
"71.4 518 OFFCURVE",
"71.4 531.3 CURVE SMOOTH",
"71.4 548.1 OFFCURVE",
"74.9 565.6 OFFCURVE",
"75.6 581.7 CURVE SMOOTH",
"77.7 629.3 OFFCURVE",
"76.3 678.3 OFFCURVE",
"79.8 725.9 CURVE SMOOTH",
"80.5 742 OFFCURVE",
"83.3 758.1 OFFCURVE",
"83.3 774.2 CURVE SMOOTH",
"83.3 781.9 OFFCURVE",
"82.6 789.6 OFFCURVE",
"81.2 796.6 CURVE SMOOTH",
"75.6 825.3 OFFCURVE",
"52.5 845.6 OFFCURVE",
"32.2 863.8 CURVE SMOOTH",
"23.8 870.1 OFFCURVE",
"2.8 884.1 OFFCURVE",
"1.4 895.3 CURVE SMOOTH",
"1.4 897.4 OFFCURVE",
"1.4 900.2 OFFCURVE",
"1.4 903 CURVE SMOOTH",
"1.4 924.7 OFFCURVE",
"7.7 948.5 OFFCURVE",
"14 968.1 CURVE SMOOTH",
"16.1 974.4 OFFCURVE",
"16.8 986.3 OFFCURVE",
"22.4 990.5 CURVE SMOOTH",
"30.1 997.5 OFFCURVE",
"39.2 1000.3 OFFCURVE",
"48.3 1000.3 CURVE SMOOTH",
"71.4 1000.3 OFFCURVE",
"97.3 983.5 OFFCURVE",
"115.5 974.4 CURVE SMOOTH",
"126 968.8 OFFCURVE",
"135.8 963.9 OFFCURVE",
"145.6 957.6 CURVE SMOOTH",
"155.4 950.6 OFFCURVE",
"168 942.2 OFFCURVE",
"172.9 931 CURVE SMOOTH",
"175 927.5 OFFCURVE",
"175.7 923.3 OFFCURVE",
"175.7 917.7 CURVE SMOOTH",
"175.7 905.8 OFFCURVE",
"172.2 890.4 OFFCURVE",
"171.5 882.7 CURVE SMOOTH",
"169.4 868 OFFCURVE",
"170.1 866.6 OFFCURVE",
"168 851.2 CURVE SMOOTH",
"159.6 784.7 OFFCURVE",
"149.8 718.9 OFFCURVE",
"141.4 652.4 CURVE"
);
}
);
width = 387;
},
{
anchors = (
{
name = bottom;
position = "{125, 0}";
},
{
name = center;
position = "{138, 306}";
}
);
layerId = m002;
paths = (
{
closed = 1;
nodes = (
"29 -40 OFFCURVE",
"22 -23 OFFCURVE",
"21.7 16.8 CURVE SMOOTH",
"22 39 OFFCURVE",
"34 112 OFFCURVE",
"41 125 CURVE SMOOTH",
"49 140 OFFCURVE",
"65 143 OFFCURVE",
"79.8 145.6 CURVE SMOOTH",
"188 163 OFFCURVE",
"279 211 OFFCURVE",
"278.6 315 CURVE SMOOTH",
"278 392 OFFCURVE",
"219 425 OFFCURVE",
"147 457.8 CURVE SMOOTH",
"116 471 OFFCURVE",
"71 482 OFFCURVE",
"71.4 531.3 CURVE SMOOTH",
"71 544 OFFCURVE",
"82 720 OFFCURVE",
"83.3 774.2 CURVE SMOOTH",
"84 815 OFFCURVE",
"65 834 OFFCURVE",
"32.2 863.8 CURVE SMOOTH",
"23.8 870.1 OFFCURVE",
"2 884 OFFCURVE",
"1.4 895.3 CURVE SMOOTH",
"1 920 OFFCURVE",
"9 939 OFFCURVE",
"14 969 CURVE SMOOTH",
"17 986 OFFCURVE",
"22 1000 OFFCURVE",
"48.3 1000.3 CURVE SMOOTH",
"79 1001 OFFCURVE",
"176 952 OFFCURVE",
"176 921 CURVE SMOOTH",
"176 889 OFFCURVE",
"155 751 OFFCURVE",
"146 684 CURVE SMOOTH",
"145 677 OFFCURVE",
"145 668 OFFCURVE",
"145 663 CURVE SMOOTH",
"145 656 OFFCURVE",
"149 653 OFFCURVE",
"162 648 CURVE SMOOTH",
"300 594 OFFCURVE",
"337 480 OFFCURVE",
"336.7 348.6 CURVE SMOOTH",
"336 145 OFFCURVE",
"200 -39 OFFCURVE",
"56 -39.9 CURVE SMOOTH"
);
}
);
width = 387;
}
);
unicode = 05DC;
},
{
color = 5;
glyphname = "memFinal-hb";
layers = (
{
anchors = (
{
name = bottom;
position = "{306, 0}";
}
);
layerId = m01;
paths = (
{
closed = 1;
nodes = (
"125 436 OFFCURVE",
"125 328 CURVE SMOOTH",
"125 228 OFFCURVE",
"164 142 OFFCURVE",
"321 142 CURVE SMOOTH",
"405 142 OFFCURVE",
"499 212 OFFCURVE",
"499.1 294 CURVE SMOOTH",
"499 412 OFFCURVE",
"466 462 OFFCURVE",
"353 462 CURVE SMOOTH",
"163 462 OFFCURVE"
);
},
{
closed = 1;
nodes = (
"73 696 OFFCURVE",
"97 700 OFFCURVE",
"107 700 CURVE SMOOTH",
"112 700 OFFCURVE",
"116 698 OFFCURVE",
"116 692 CURVE SMOOTH",
"116 661 OFFCURVE",
"152 635 OFFCURVE",
"235 635 CURVE SMOOTH",
"278 635 OFFCURVE",
"308 639 OFFCURVE",
"366 639 CURVE SMOOTH",
"474 639 OFFCURVE",
"550 510 OFFCURVE",
"550 341 CURVE SMOOTH",
"550 189 OFFCURVE",
"497 -31 OFFCURVE",
"279 -31 CURVE SMOOTH",
"130 -31 OFFCURVE",
"42 102 OFFCURVE",
"42 260.4 CURVE SMOOTH",
"42 404 OFFCURVE",
"114 453 OFFCURVE",
"114 462 CURVE SMOOTH",
"114 470 OFFCURVE",
"50 480 OFFCURVE",
"50 539 CURVE SMOOTH",
"50 596 OFFCURVE",
"66 681 OFFCURVE",
"70 689 CURVE SMOOTH"
);
}
);
width = 580;
},
{
associatedMasterId = m01;
layerId = "02C26F68-5BDF-4DAE-919E-156B81C58064";
name = "May 12, 21, 12:02";
paths = (
{
closed = 1;
nodes = (
"114.8 697.9 LINE",
"111.3 699.3 OFFCURVE",
"74.9 690.9 OFFCURVE",
"70.7 694.4 CURVE"
);
},
{
closed = 1;
nodes = (
"70.7 694.4 LINE",
"58.8 623.7 LINE"
);
},
{
closed = 1;
nodes = (
"165.2 447.3 OFFCURVE",
"144.2 420.7 OFFCURVE",
"135.8 390.6 CURVE SMOOTH",
"125.3 325.5 LINE",
"127.4 262.5 LINE",
"156.8 210 LINE",
"167.3 199.5 LINE SMOOTH",
"174.3 193.2 OFFCURVE",
"180.6 186.9 OFFCURVE",
"186.9 180.6 CURVE SMOOTH",
"190.4 176.4 OFFCURVE",
"193.9 172.9 OFFCURVE",
"198.8 170.1 CURVE SMOOTH",
"202.3 168 OFFCURVE",
"206.5 166.6 OFFCURVE",
"210.7 165.2 CURVE SMOOTH",
"217.7 163.1 OFFCURVE",
"224 159.6 OFFCURVE",
"230.3 156.1 CURVE SMOOTH",
"233.8 154 OFFCURVE",
"237.3 152.6 OFFCURVE",
"240.8 151.2 CURVE",
"305.9 142.8 LINE",
"350 140.7 LINE",
"400.4 161.7 LINE",
"450.8 195.3 LINE",
"482.3 237.3 LINE",
"499.1 294 LINE",
"494.9 367.5 LINE",
"476 413.7 LINE",
"442.4 453.6 LINE",
"398.3 464.1 LINE",
"333.2 470.4 LINE",
"280.7 470.4 LINE",
"252 479.5 OFFCURVE",
"219.1 476 OFFCURVE",
"192.5 462 CURVE SMOOTH"
);
},
{
closed = 1;
nodes = (
"114.8 697.9 LINE",
"114.8 662.9 OFFCURVE",
"142.1 644 OFFCURVE",
"175 639.8 CURVE SMOOTH",
"210.7 635.6 OFFCURVE",
"249.2 633.5 OFFCURVE",
"285.6 634.2 CURVE SMOOTH",
"308.7 634.2 OFFCURVE",
"332.5 636.3 OFFCURVE",
"355.6 634.9 CURVE SMOOTH",
"382.9 632.8 OFFCURVE",
"415.1 630 OFFCURVE",
"439.6 617.4 CURVE SMOOTH",
"463.4 603.4 OFFCURVE",
"480.9 582.4 OFFCURVE",
"494.9 559.3 CURVE SMOOTH",
"518.7 520.1 OFFCURVE",
"534.1 476.7 OFFCURVE",
"541.8 431.9 CURVE SMOOTH",
"553.7 366.8 OFFCURVE",
"552.3 297.5 OFFCURVE",
"541.1 232.4 CURVE SMOOTH",
"527.8 149.8 OFFCURVE",
"494.9 66.5 OFFCURVE",
"427 14 CURVE SMOOTH",
"357 -39.9 OFFCURVE",
"248.5 -45.5 OFFCURVE",
"172.2 -2.8 CURVE SMOOTH",
"135.1 17.5 OFFCURVE",
"105 51.1 OFFCURVE",
"84 87.5 CURVE SMOOTH",
"53.9 140 OFFCURVE",
"44.8 200.9 OFFCURVE",
"42 260.4 CURVE SMOOTH",
"39.9 305.9 OFFCURVE",
"50.4 359.8 OFFCURVE",
"72.1 399.7 CURVE SMOOTH",
"85.4 424.2 OFFCURVE",
"105 444.5 OFFCURVE",
"119.7 468.3 CURVE",
"108.5 470.4 OFFCURVE",
"98 473.2 OFFCURVE",
"88.2 478.8 CURVE SMOOTH",
"55.3 495.6 OFFCURVE",
"45.5 532.7 OFFCURVE",
"50.4 567 CURVE SMOOTH",
"56 609 OFFCURVE",
"67.9 651.7 OFFCURVE",
"70.7 694.4 CURVE"
);
}
);
width = 580;
},
{
anchors = (
{
name = bottom;
position = "{306, 0}";
}
);
layerId = m002;
paths = (
{
closed = 1;
nodes = (
"125 436 OFFCURVE",
"125 328 CURVE SMOOTH",
"125 228 OFFCURVE",
"164 142 OFFCURVE",
"321 142 CURVE SMOOTH",
"405 142 OFFCURVE",
"499 212 OFFCURVE",
"499.1 294 CURVE SMOOTH",
"499 412 OFFCURVE",
"466 462 OFFCURVE",
"353 462 CURVE SMOOTH",
"163 462 OFFCURVE"
);
},
{
closed = 1;
nodes = (
"73 696 OFFCURVE",
"97 700 OFFCURVE",
"107 700 CURVE SMOOTH",
"112 700 OFFCURVE",
"116 698 OFFCURVE",
"116 692 CURVE SMOOTH",
"116 661 OFFCURVE",
"152 635 OFFCURVE",
"235 635 CURVE SMOOTH",
"278 635 OFFCURVE",
"308 639 OFFCURVE",
"366 639 CURVE SMOOTH",
"474 639 OFFCURVE",
"550 510 OFFCURVE",
"550 341 CURVE SMOOTH",
"550 189 OFFCURVE",
"497 -31 OFFCURVE",
"279 -31 CURVE SMOOTH",
"130 -31 OFFCURVE",
"42 102 OFFCURVE",
"42 260.4 CURVE SMOOTH",
"42 404 OFFCURVE",
"114 453 OFFCURVE",
"114 462 CURVE SMOOTH",
"114 470 OFFCURVE",
"50 480 OFFCURVE",
"50 539 CURVE SMOOTH",
"50 596 OFFCURVE",
"66 681 OFFCURVE",
"70 689 CURVE SMOOTH"
);
}
);
width = 580;
}
);
unicode = 05DD;
},
